<svg xmlns="http://www.w3.org/2000/svg" viewBox="0 0 1024 1024">
  <g transform="translate(512 512) scale(1.10) translate(-512 -512)">
    <path d="M 859.08 192.18 C 851.24 192.67 843.62 194.40 836.10 196.00 C 828.58 197.60 821.20 199.53 813.95 201.79 C 806.70 204.05 799.64 206.77 792.60 209.54 C 785.56 212.31 778.58 215.21 771.71 218.38 C 764.84 221.55 758.07 224.97 751.37 228.57 C 744.68 232.16 738.37 238.03 731.53 239.94 C 724.69 241.84 717.53 241.00 710.32 240.00 C 703.10 239.00 695.63 235.92 688.26 233.96 C 680.89 231.99 673.52 230.03 666.09 228.20 C 658.66 226.38 651.22 224.58 643.69 223.01 C 636.15 221.45 628.44 220.31 620.88 218.80 C 613.32 217.29 605.93 215.37 598.33 213.96 C 590.73 212.55 582.98 211.49 575.27 210.34 C 567.57 209.19 559.83 208.10 552.09 207.04 C 544.34 205.99 536.56 205.02 528.78 204.02 C 521.01 203.02 513.29 201.89 505.46 201.06 C 497.62 200.22 489.66 199.66 481.76 198.99 C 473.85 198.32 466.00 197.53 458.02 197.03 C 450.04 196.53 442.00 196.17 433.89 196.00 C 425.77 195.82 417.40 195.72 409.33 195.98 C 401.25 196.24 393.34 196.90 385.43 197.56 C 377.51 198.22 369.59 198.85 361.86 199.94 C 354.13 201.04 346.49 202.35 339.04 204.14 C 331.60 205.93 324.35 208.20 317.20 210.69 C 310.05 213.19 302.92 215.74 296.14 219.12 C 289.35 222.50 282.66 226.36 276.50 230.99 C 270.34 235.62 263.91 240.93 259.16 246.90 C 254.42 252.88 250.04 259.64 248.02 266.84 C 246.00 274.05 245.35 282.93 247.03 290.13 C 248.72 297.34 256.55 307.95 258.15 310.07 C 259.75 312.19 257.44 307.87 256.62 302.84 C 255.81 297.81 252.14 287.12 253.27 279.91 C 254.40 272.69 258.78 265.54 263.38 259.53 C 267.99 253.52 274.71 248.44 280.90 243.85 C 287.10 239.26 293.79 235.45 300.54 231.98 C 307.29 228.52 314.25 225.56 321.41 223.07 C 328.56 220.59 336.04 218.88 343.47 217.06 C 350.90 215.24 358.32 213.40 365.99 212.15 C 373.66 210.90 381.57 210.25 389.47 209.55 C 397.37 208.86 405.36 208.40 413.37 207.98 C 421.38 207.55 429.47 207.00 437.52 207.00 C 445.57 207.01 453.61 207.66 461.66 208.00 C 469.71 208.33 477.83 208.49 485.80 209.00 C 493.78 209.50 501.63 210.31 509.52 211.02 C 517.41 211.73 525.37 212.28 533.14 213.26 C 540.92 214.24 548.47 215.78 556.19 216.90 C 563.91 218.02 571.77 218.80 579.47 219.97 C 587.17 221.14 594.77 222.56 602.39 223.94 C 610.00 225.32 617.59 226.75 625.15 228.25 C 632.72 229.75 640.27 231.27 647.77 232.94 C 655.26 234.60 662.70 236.40 670.12 238.24 C 677.54 240.09 685.12 241.83 692.28 244.02 C 699.45 246.22 713.08 249.74 713.10 251.39 C 713.12 253.05 699.66 254.25 692.42 253.95 C 685.18 253.66 677.29 250.95 669.66 249.62 C 662.02 248.29 654.40 246.94 646.62 245.97 C 638.83 245.00 630.87 244.47 622.96 243.81 C 615.04 243.15 607.21 242.30 599.15 241.99 C 591.09 241.69 582.78 241.99 574.60 242.00 C 566.41 242.00 558.09 241.66 550.05 242.01 C 542.01 242.36 534.15 243.15 526.35 244.08 C 518.55 245.02 510.91 246.32 503.27 247.64 C 495.63 248.96 488.02 250.33 480.52 252.00 C 473.03 253.67 465.66 255.65 458.31 257.66 C 450.96 259.68 443.60 261.66 436.41 264.07 C 429.23 266.49 422.19 269.25 415.20 272.15 C 408.22 275.05 401.33 278.17 394.52 281.49 C 387.71 284.81 381.02 288.43 374.36 292.10 C 367.69 295.76 360.96 299.28 354.52 303.49 C 348.08 307.70 341.89 312.51 335.71 317.34 C 329.52 322.18 323.30 327.15 317.43 332.50 C 311.56 337.86 305.76 343.58 300.49 349.49 C 295.22 355.41 290.25 361.62 285.82 367.97 C 281.40 374.32 277.29 380.81 273.95 387.61 C 270.62 394.41 267.99 401.51 265.82 408.80 C 263.66 416.09 261.43 423.64 260.97 431.36 C 260.50 439.07 261.29 447.60 263.02 455.07 C 264.74 462.54 267.36 469.74 271.31 476.19 C 275.27 482.64 280.90 488.90 286.75 493.78 C 292.61 498.67 299.52 502.47 306.45 505.50 C 313.38 508.53 320.66 510.72 328.33 511.97 C 336.00 513.22 344.55 513.33 352.46 513.00 C 360.36 512.67 368.24 511.58 375.76 509.98 C 383.27 508.37 390.48 506.00 397.57 503.36 C 404.66 500.71 411.63 497.77 418.30 494.12 C 424.97 490.47 431.34 486.09 437.60 481.44 C 443.86 476.79 450.15 471.74 455.84 466.21 C 461.54 460.67 466.80 454.35 471.75 448.21 C 476.70 442.07 481.34 435.82 485.55 429.37 C 489.76 422.93 493.66 416.36 496.98 409.55 C 500.30 402.74 503.15 395.74 505.47 388.52 C 507.79 381.29 509.66 373.88 510.91 366.22 C 512.17 358.55 513.31 350.30 513.01 342.53 C 512.70 334.76 511.43 326.81 509.08 319.60 C 506.73 312.38 500.57 301.33 498.90 299.26 C 497.24 297.19 498.22 302.10 499.07 307.17 C 499.92 312.24 503.35 321.90 504.01 329.67 C 504.66 337.45 503.92 346.01 503.00 353.82 C 502.09 361.63 500.54 369.17 498.52 376.52 C 496.50 383.87 493.85 390.95 490.87 397.90 C 487.89 404.85 484.45 411.62 480.64 418.22 C 476.83 424.83 472.59 431.26 468.00 437.54 C 463.40 443.82 458.48 450.01 453.08 455.91 C 447.68 461.81 441.64 467.80 435.59 472.96 C 429.54 478.11 423.25 482.68 416.78 486.83 C 410.31 490.97 403.70 494.78 396.78 497.82 C 389.85 500.86 382.70 503.36 375.22 505.06 C 367.74 506.76 359.65 508.03 351.88 508.01 C 344.11 507.99 335.69 507.57 328.60 504.95 C 321.50 502.32 314.56 497.63 309.30 492.27 C 304.05 486.91 299.46 479.99 297.07 472.79 C 294.69 465.59 294.80 456.92 294.99 449.10 C 295.18 441.28 296.38 433.30 298.21 425.87 C 300.04 418.44 302.93 411.45 305.99 404.54 C 309.04 397.62 312.61 390.91 316.57 384.36 C 320.53 377.82 325.01 371.49 329.75 365.27 C 334.48 359.05 339.54 352.96 344.97 347.02 C 350.40 341.09 356.37 335.01 362.34 329.66 C 368.30 324.31 374.55 319.63 380.78 314.91 C 387.02 310.20 393.27 305.53 399.73 301.37 C 406.19 297.22 412.84 293.51 419.57 289.98 C 426.29 286.45 433.14 283.23 440.06 280.19 C 446.99 277.15 453.99 274.29 461.12 271.74 C 468.25 269.19 475.53 267.02 482.83 264.88 C 490.13 262.74 497.41 260.56 504.92 258.91 C 512.42 257.27 520.14 256.15 527.85 255.00 C 535.56 253.85 543.26 252.68 551.16 252.01 C 559.07 251.35 567.19 251.17 575.30 251.00 C 583.42 250.84 591.74 250.84 599.85 251.00 C 607.97 251.16 616.02 251.49 624.00 251.98 C 631.98 252.47 639.97 252.95 647.74 253.95 C 655.51 254.95 663.11 256.34 670.63 257.98 C 678.14 259.61 692.05 260.32 692.84 263.75 C 693.63 267.18 681.33 273.56 675.38 278.57 C 669.42 283.57 663.10 288.45 657.12 293.77 C 651.14 299.10 645.21 304.78 639.50 310.51 C 633.80 316.24 628.31 322.24 622.88 328.17 C 617.45 334.11 612.13 340.09 606.92 346.12 C 601.72 352.15 596.63 358.23 591.66 364.35 C 586.69 370.48 581.81 376.64 577.10 382.87 C 572.38 389.10 567.84 395.41 563.36 401.74 C 558.87 408.06 554.55 414.46 550.17 420.83 C 545.78 427.20 541.39 433.56 537.05 439.95 C 532.71 446.33 528.36 452.72 524.11 459.14 C 519.86 465.57 515.69 472.03 511.55 478.50 C 507.42 484.97 503.43 491.50 499.28 497.97 C 495.12 504.43 490.91 510.87 486.63 517.28 C 482.35 523.69 477.97 530.06 473.60 536.44 C 469.23 542.82 464.93 549.22 460.43 555.54 C 455.92 561.86 451.18 568.07 446.58 574.35 C 441.98 580.63 437.59 587.00 432.82 593.21 C 428.05 599.42 423.05 605.53 417.96 611.61 C 412.88 617.69 407.63 623.70 402.31 629.68 C 396.98 635.66 391.53 641.77 386.00 647.47 C 380.47 653.16 374.87 658.34 369.12 663.85 C 363.37 669.37 357.52 675.37 351.48 680.56 C 345.45 685.75 339.20 690.42 332.92 695.02 C 326.64 699.62 320.32 704.12 313.81 708.17 C 307.30 712.21 300.63 715.87 293.87 719.30 C 287.10 722.73 280.32 726.12 273.23 728.75 C 266.13 731.37 258.73 733.27 251.28 735.05 C 243.83 736.83 236.32 738.44 228.54 739.43 C 220.77 740.42 212.51 741.21 204.64 740.97 C 196.78 740.72 188.87 739.54 181.34 737.96 C 173.82 736.37 166.41 734.49 159.48 731.47 C 152.54 728.45 145.60 724.72 139.74 719.84 C 133.89 714.95 128.31 708.64 124.35 702.19 C 120.39 695.73 117.37 688.58 115.97 681.10 C 114.57 673.63 114.78 664.91 115.94 657.34 C 117.10 649.77 119.88 642.60 122.93 635.68 C 125.99 628.76 129.74 622.14 134.27 615.83 C 138.81 609.51 144.42 603.28 150.14 597.81 C 155.85 592.33 162.18 587.37 168.55 583.00 C 174.93 578.63 181.55 574.85 188.38 571.59 C 195.22 568.33 202.32 565.73 209.57 563.45 C 216.81 561.17 224.17 559.18 231.84 557.93 C 239.51 556.69 247.60 556.16 255.59 556.00 C 263.57 555.83 271.97 555.96 279.75 556.95 C 287.52 557.95 298.43 561.45 302.23 561.96 C 306.03 562.47 306.10 561.50 302.54 560.02 C 298.98 558.53 288.36 554.72 280.87 553.05 C 273.38 551.38 265.56 550.50 257.59 549.99 C 249.61 549.48 240.93 549.33 233.01 549.98 C 225.09 550.62 217.56 552.17 210.06 553.85 C 202.57 555.52 195.19 557.47 188.06 560.01 C 180.93 562.56 173.99 565.56 167.28 569.11 C 160.56 572.66 154.07 576.75 147.78 581.32 C 141.49 585.89 134.99 590.90 129.51 596.52 C 124.04 602.13 119.07 608.54 114.93 615.01 C 110.80 621.47 107.36 628.24 104.70 635.32 C 102.04 642.40 99.58 649.84 98.96 657.50 C 98.34 665.16 99.22 673.79 100.96 681.26 C 102.71 688.72 105.43 695.88 109.42 702.31 C 113.41 708.74 119.11 714.76 124.89 719.84 C 130.67 724.92 137.35 729.27 144.08 732.79 C 150.80 736.32 157.97 738.78 165.24 740.99 C 172.51 743.20 180.06 744.72 187.69 746.05 C 195.33 747.39 203.06 748.49 211.04 748.98 C 219.02 749.47 227.53 749.32 235.58 749.00 C 243.63 748.68 251.56 748.05 259.34 747.06 C 267.11 746.07 274.74 744.73 282.23 743.06 C 289.72 741.39 297.07 739.36 304.29 737.03 C 311.51 734.70 318.54 731.92 325.55 729.09 C 332.56 726.26 339.56 723.39 346.37 720.06 C 353.17 716.72 359.78 712.93 366.37 709.06 C 372.95 705.20 379.52 701.29 385.87 696.86 C 392.22 692.44 398.28 687.32 404.48 682.51 C 410.67 677.70 416.99 673.21 423.02 668.01 C 429.06 662.81 434.96 657.05 440.68 651.33 C 446.40 645.61 452.03 639.66 457.34 633.68 C 462.65 627.70 467.49 621.52 472.56 615.43 C 477.62 609.34 482.89 603.34 487.73 597.16 C 492.57 590.98 497.12 584.68 501.61 578.36 C 506.10 572.03 510.41 565.63 514.67 559.21 C 518.93 552.79 523.02 546.30 527.16 539.83 C 531.30 533.36 535.40 526.87 539.50 520.39 C 543.61 513.90 547.85 507.47 551.79 500.92 C 555.73 494.37 559.28 487.66 563.15 481.07 C 567.01 474.49 570.99 467.95 574.98 461.42 C 578.97 454.89 583.09 448.41 587.11 441.89 C 591.12 435.37 595.05 428.81 599.07 422.29 C 603.09 415.77 607.15 409.26 611.23 402.77 C 615.31 396.28 619.41 389.79 623.57 383.33 C 627.73 376.87 631.92 370.42 636.20 364.01 C 640.49 357.60 644.81 351.20 649.27 344.86 C 653.73 338.53 658.26 332.22 662.97 325.98 C 667.67 319.75 672.39 313.52 677.48 307.44 C 682.57 301.36 687.88 295.29 693.48 289.52 C 699.09 283.75 704.83 274.02 711.10 272.80 C 717.37 271.58 724.78 277.99 731.11 282.21 C 737.44 286.43 743.94 292.25 749.08 298.10 C 754.21 303.96 758.58 310.52 761.92 317.32 C 765.26 324.12 767.68 331.37 769.12 338.90 C 770.55 346.43 771.06 354.77 770.54 362.48 C 770.02 370.19 768.28 377.92 765.99 385.15 C 763.70 392.39 760.49 399.24 756.80 405.90 C 753.12 412.56 748.74 419.02 743.88 425.10 C 739.02 431.18 733.40 436.98 727.66 442.39 C 721.91 447.80 715.72 453.08 709.40 457.58 C 703.08 462.07 696.49 465.93 689.73 469.37 C 682.97 472.81 675.96 475.63 668.85 478.22 C 661.74 480.82 654.53 483.17 647.08 484.96 C 639.64 486.75 632.02 488.10 624.18 488.94 C 616.34 489.78 608.09 489.97 600.06 490.01 C 592.03 490.04 578.68 487.46 575.99 489.17 C 573.31 490.88 580.22 495.54 583.97 500.26 C 587.72 504.97 595.64 510.68 598.48 517.46 C 601.32 524.25 600.74 533.02 600.99 540.97 C 601.24 548.91 600.32 557.06 599.99 565.11 C 599.65 573.15 599.16 581.13 599.00 589.25 C 598.83 597.37 598.59 605.79 599.00 613.81 C 599.40 621.82 600.27 629.65 601.44 637.35 C 602.62 645.05 604.25 652.55 606.04 660.00 C 607.83 667.44 609.69 674.86 612.17 682.01 C 614.66 689.17 617.69 696.10 620.96 702.93 C 624.23 709.76 627.91 716.42 631.81 722.99 C 635.70 729.56 639.69 736.09 644.32 742.36 C 648.94 748.63 654.07 754.79 659.55 760.61 C 665.04 766.43 671.14 772.22 677.24 777.26 C 683.34 782.31 689.70 786.71 696.16 790.87 C 702.62 795.03 709.21 798.87 716.01 802.23 C 722.80 805.58 729.78 808.50 736.93 810.98 C 744.09 813.46 751.54 815.25 758.96 817.10 C 766.37 818.95 773.67 821.11 781.44 822.09 C 789.22 823.07 797.60 823.09 805.62 822.99 C 813.64 822.89 821.83 822.62 829.55 821.49 C 837.27 820.37 844.73 818.63 851.93 816.25 C 859.13 813.87 867.72 809.97 872.75 807.22 C 877.77 804.47 883.98 799.47 882.08 799.76 C 880.18 800.05 868.53 806.57 861.34 808.97 C 854.15 811.38 846.64 813.02 838.94 814.19 C 831.24 815.35 823.00 816.16 815.14 815.99 C 807.28 815.81 799.35 814.60 791.78 813.12 C 784.21 811.64 776.84 809.65 769.72 807.10 C 762.59 804.54 755.72 801.36 749.03 797.77 C 742.33 794.18 735.78 790.24 729.54 785.54 C 723.30 780.84 717.12 775.28 711.59 769.58 C 706.07 763.88 700.97 757.62 696.39 751.33 C 691.81 745.04 687.77 738.53 684.11 731.86 C 680.46 725.19 677.45 718.25 674.48 711.30 C 671.51 704.35 668.70 697.32 666.28 690.14 C 663.86 682.96 661.68 675.68 659.95 668.21 C 658.23 660.74 657.26 652.96 655.93 645.32 C 654.60 637.68 653.03 630.15 652.00 622.39 C 650.96 614.64 650.55 606.62 649.72 598.78 C 648.88 590.94 647.77 583.22 646.99 575.36 C 646.20 567.50 646.37 559.25 645.03 551.62 C 643.69 543.99 642.19 536.42 638.95 529.58 C 635.71 522.74 627.88 515.36 625.56 510.59 C 623.24 505.82 621.15 502.91 625.02 500.98 C 628.88 499.05 640.91 499.84 648.75 499.01 C 656.59 498.17 664.41 497.29 672.04 495.95 C 679.67 494.62 687.17 492.96 694.54 491.00 C 701.91 489.03 709.16 486.78 716.26 484.14 C 723.35 481.51 730.31 478.54 737.10 475.18 C 743.89 471.82 750.56 468.16 757.02 463.98 C 763.47 459.81 769.77 455.23 775.84 450.15 C 781.91 445.07 788.34 439.45 793.46 433.49 C 798.58 427.52 802.92 421.03 806.58 414.37 C 810.25 407.70 813.39 400.82 815.46 393.49 C 817.54 386.16 818.90 378.14 819.02 370.40 C 819.14 362.65 818.07 354.42 816.18 347.02 C 814.29 339.61 811.38 332.63 807.69 325.98 C 804.00 319.32 799.27 312.93 794.03 307.09 C 788.78 301.24 782.39 295.72 776.20 290.91 C 770.02 286.10 763.51 282.04 756.91 278.22 C 750.31 274.39 740.70 271.73 736.60 267.96 C 732.50 264.19 729.37 256.77 732.28 255.60 C 735.20 254.43 746.71 259.23 754.09 260.95 C 761.47 262.68 768.94 264.62 776.57 265.95 C 784.20 267.29 791.97 268.30 799.88 268.97 C 807.78 269.64 816.06 270.23 824.00 269.98 C 831.94 269.74 839.89 268.82 847.51 267.47 C 855.14 266.12 862.60 264.38 869.75 261.89 C 876.90 259.39 883.88 256.49 890.42 252.51 C 896.96 248.54 904.40 243.92 908.99 238.03 C 913.59 232.15 918.64 223.67 918.00 217.19 C 917.36 210.71 910.96 203.17 905.15 199.15 C 899.34 195.12 890.79 194.22 883.12 193.06 C 875.44 191.90 866.91 191.69 859.08 192.18 Z M 865.90 197.59 C 866.55 197.54 867.20 197.49 867.85 197.44 C 868.50 197.40 869.16 197.36 869.81 197.32 C 870.46 197.28 871.12 197.25 871.77 197.23 C 872.42 197.20 873.08 197.18 873.73 197.17 C 874.38 197.15 875.03 197.15 875.68 197.15 C 876.33 197.15 876.98 197.15 877.63 197.17 C 878.27 197.18 878.92 197.20 879.56 197.23 C 880.20 197.27 880.85 197.30 881.48 197.35 C 882.12 197.40 882.75 197.46 883.38 197.52 C 884.01 197.59 884.64 197.67 885.26 197.75 C 885.89 197.84 886.51 197.94 887.12 198.05 C 887.73 198.15 888.34 198.27 888.95 198.40 C 889.55 198.54 890.15 198.68 890.75 198.84 C 891.35 198.99 891.94 199.16 892.53 199.34 C 893.13 199.53 893.71 199.73 894.30 199.94 C 894.89 200.15 895.48 200.38 896.07 200.63 C 896.66 200.87 897.24 201.13 897.83 201.41 C 898.42 201.69 899.02 201.99 899.61 202.30 C 900.19 202.62 900.79 202.95 901.37 203.30 C 901.95 203.65 902.54 204.02 903.10 204.41 C 903.66 204.79 904.22 205.19 904.76 205.61 C 905.29 206.03 905.81 206.46 906.31 206.91 C 906.80 207.36 907.27 207.83 907.71 208.31 C 908.15 208.79 908.57 209.28 908.94 209.79 C 909.32 210.30 909.66 210.82 909.97 211.36 C 910.27 211.89 910.53 212.44 910.75 213.00 C 910.97 213.56 911.16 214.14 911.31 214.72 C 911.46 215.30 911.57 215.89 911.65 216.48 C 911.73 217.08 911.77 217.69 911.79 218.29 C 911.80 218.90 911.78 219.52 911.74 220.13 C 911.69 220.74 911.61 221.36 911.51 221.98 C 911.41 222.60 911.28 223.22 911.12 223.84 C 910.97 224.45 910.79 225.07 910.58 225.68 C 910.38 226.29 910.15 226.90 909.91 227.50 C 909.66 228.10 909.39 228.70 909.11 229.28 C 908.82 229.87 908.52 230.45 908.20 231.01 C 907.88 231.58 907.54 232.14 907.19 232.68 C 906.84 233.23 906.47 233.76 906.09 234.28 C 905.72 234.79 905.33 235.30 904.92 235.79 C 904.52 236.28 904.11 236.77 903.68 237.23 C 903.26 237.70 902.82 238.16 902.38 238.61 C 901.93 239.05 901.47 239.49 901.01 239.91 C 900.54 240.34 900.06 240.75 899.58 241.16 C 899.10 241.56 898.61 241.96 898.11 242.35 C 897.61 242.73 897.10 243.11 896.59 243.48 C 896.07 243.85 895.55 244.21 895.02 244.56 C 894.50 244.91 893.97 245.25 893.43 245.59 C 892.89 245.93 892.35 246.26 891.80 246.58 C 891.26 246.91 890.71 247.22 890.15 247.53 C 889.60 247.84 889.04 248.15 888.48 248.45 C 887.92 248.75 887.36 249.04 886.80 249.33 C 886.24 249.62 885.67 249.91 885.11 250.19 C 884.54 250.47 883.98 250.74 883.41 251.02 C 882.84 251.29 882.27 251.56 881.70 251.82 C 881.13 252.08 880.56 252.34 879.99 252.60 C 879.42 252.85 878.85 253.10 878.27 253.35 C 877.70 253.59 877.12 253.83 876.55 254.07 C 875.97 254.31 875.39 254.54 874.81 254.77 C 874.23 255.00 873.65 255.22 873.07 255.44 C 872.49 255.66 871.91 255.88 871.32 256.09 C 870.74 256.30 870.15 256.51 869.56 256.71 C 868.98 256.91 868.39 257.11 867.80 257.30 C 867.21 257.50 866.62 257.69 866.02 257.87 C 865.43 258.06 864.83 258.24 864.24 258.42 C 863.64 258.59 863.04 258.77 862.44 258.93 C 861.84 259.10 861.24 259.27 860.64 259.43 C 860.04 259.59 859.43 259.74 858.83 259.89 C 858.22 260.04 857.61 260.19 857.00 260.33 C 856.39 260.48 855.78 260.61 855.17 260.75 C 854.55 260.88 853.94 261.01 853.32 261.14 C 852.71 261.26 852.09 261.39 851.47 261.50 C 850.85 261.62 850.22 261.73 849.60 261.84 C 848.97 261.95 848.35 262.05 847.72 262.16 C 847.09 262.26 846.46 262.35 845.83 262.44 C 845.20 262.54 844.56 262.62 843.93 262.71 C 843.29 262.79 842.65 262.87 842.01 262.94 C 841.37 263.02 840.73 263.09 840.08 263.16 C 839.44 263.22 838.79 263.29 838.14 263.35 C 837.50 263.40 836.85 263.46 836.19 263.51 C 835.54 263.56 834.89 263.61 834.24 263.65 C 833.58 263.69 832.93 263.73 832.27 263.76 C 831.61 263.80 830.96 263.83 830.30 263.85 C 829.64 263.88 828.98 263.90 828.32 263.92 C 827.66 263.94 827.00 263.95 826.34 263.97 C 825.67 263.98 825.01 263.98 824.35 263.99 C 823.69 263.99 823.03 263.99 822.36 263.99 C 821.70 263.98 821.04 263.97 820.37 263.96 C 819.71 263.95 819.05 263.93 818.38 263.91 C 817.72 263.90 817.06 263.87 816.40 263.85 C 815.74 263.82 815.07 263.79 814.41 263.76 C 813.75 263.72 813.09 263.69 812.43 263.64 C 811.77 263.60 811.11 263.56 810.46 263.51 C 809.80 263.46 809.14 263.41 808.49 263.36 C 807.83 263.30 807.18 263.24 806.53 263.18 C 805.87 263.12 805.22 263.06 804.57 262.99 C 803.92 262.92 803.28 262.85 802.63 262.77 C 801.98 262.70 801.34 262.62 800.70 262.54 C 800.05 262.46 799.41 262.37 798.78 262.28 C 798.14 262.20 797.50 262.10 796.87 262.01 C 796.24 261.91 795.60 261.82 794.97 261.72 C 794.35 261.62 793.72 261.51 793.09 261.41 C 792.47 261.30 791.84 261.19 791.22 261.08 C 790.60 260.97 789.98 260.85 789.36 260.74 C 788.74 260.62 788.12 260.50 787.51 260.38 C 786.89 260.26 786.28 260.13 785.66 260.01 C 785.05 259.88 784.44 259.75 783.83 259.62 C 783.21 259.49 782.60 259.36 781.99 259.22 C 781.38 259.09 780.77 258.95 780.16 258.82 C 779.56 258.68 778.95 258.54 778.34 258.40 C 777.73 258.26 777.12 258.11 776.52 257.97 C 775.91 257.83 775.30 257.68 774.69 257.54 C 774.09 257.39 773.48 257.24 772.87 257.09 C 772.26 256.95 771.66 256.80 771.05 256.65 C 770.44 256.50 769.83 256.34 769.22 256.19 C 768.61 256.04 768.00 255.89 767.39 255.74 C 766.78 255.58 766.17 255.43 765.56 255.28 C 764.95 255.12 764.33 254.97 763.72 254.81 C 763.10 254.66 762.49 254.50 761.87 254.35 C 761.25 254.19 760.64 254.04 760.02 253.88 C 759.40 253.73 758.77 253.57 758.15 253.42 C 757.53 253.27 756.90 253.11 756.28 252.96 C 755.65 252.81 755.02 252.65 754.39 252.50 C 753.76 252.35 753.13 252.20 752.49 252.04 C 751.86 251.89 751.22 251.74 750.60 251.58 C 749.98 251.42 749.35 251.25 748.77 251.06 C 748.18 250.87 747.59 250.67 747.07 250.44 C 746.54 250.21 745.99 249.95 745.60 249.66 C 745.22 249.38 744.88 249.06 744.76 248.72 C 744.64 248.37 744.74 247.99 744.87 247.61 C 745.01 247.24 745.28 246.85 745.55 246.48 C 745.83 246.10 746.17 245.73 746.53 245.36 C 746.90 244.99 747.32 244.62 747.77 244.26 C 748.21 243.90 748.70 243.54 749.20 243.18 C 749.70 242.82 750.23 242.47 750.77 242.12 C 751.32 241.76 751.88 241.41 752.45 241.07 C 753.02 240.72 753.60 240.38 754.17 240.04 C 754.74 239.70 755.32 239.36 755.89 239.02 C 756.46 238.68 757.03 238.35 757.59 238.02 C 758.16 237.69 758.72 237.36 759.28 237.03 C 759.84 236.70 760.40 236.38 760.96 236.05 C 761.51 235.73 762.07 235.41 762.62 235.09 C 763.17 234.77 763.73 234.45 764.28 234.13 C 764.83 233.82 765.37 233.51 765.92 233.19 C 766.47 232.88 767.01 232.57 767.56 232.26 C 768.10 231.95 768.65 231.65 769.19 231.34 C 769.74 231.04 770.28 230.73 770.82 230.43 C 771.36 230.13 771.91 229.83 772.45 229.53 C 772.99 229.23 773.53 228.93 774.07 228.63 C 774.62 228.33 775.16 228.04 775.70 227.74 C 776.24 227.45 776.79 227.15 777.33 226.86 C 777.88 226.57 778.42 226.28 778.97 225.99 C 779.51 225.70 780.06 225.41 780.60 225.12 C 781.15 224.83 781.70 224.54 782.25 224.26 C 782.79 223.97 783.34 223.69 783.89 223.41 C 784.44 223.12 784.99 222.84 785.54 222.56 C 786.10 222.28 786.65 222.00 787.20 221.72 C 787.75 221.45 788.31 221.17 788.86 220.89 C 789.41 220.62 789.97 220.35 790.52 220.07 C 791.08 219.80 791.64 219.53 792.19 219.26 C 792.75 218.99 793.31 218.73 793.87 218.46 C 794.43 218.19 794.99 217.93 795.55 217.67 C 796.11 217.40 796.67 217.14 797.23 216.88 C 797.80 216.62 798.36 216.37 798.92 216.11 C 799.49 215.86 800.05 215.60 800.62 215.35 C 801.18 215.10 801.75 214.85 802.32 214.60 C 802.89 214.35 803.45 214.10 804.02 213.86 C 804.59 213.61 805.16 213.37 805.73 213.13 C 806.31 212.89 806.88 212.65 807.45 212.41 C 808.02 212.18 808.60 211.94 809.17 211.71 C 809.75 211.48 810.33 211.24 810.90 211.02 C 811.48 210.79 812.06 210.56 812.64 210.34 C 813.22 210.11 813.80 209.89 814.38 209.67 C 814.96 209.45 815.54 209.23 816.12 209.02 C 816.71 208.80 817.29 208.59 817.88 208.38 C 818.46 208.17 819.05 207.96 819.63 207.75 C 820.22 207.55 820.81 207.34 821.40 207.14 C 821.99 206.94 822.58 206.74 823.17 206.55 C 823.76 206.35 824.35 206.16 824.95 205.96 C 825.54 205.77 826.14 205.58 826.73 205.40 C 827.33 205.21 827.93 205.03 828.52 204.85 C 829.12 204.67 829.72 204.49 830.32 204.31 C 830.92 204.14 831.52 203.96 832.13 203.79 C 832.73 203.62 833.33 203.46 833.94 203.29 C 834.54 203.13 835.15 202.97 835.76 202.81 C 836.37 202.65 836.97 202.49 837.58 202.34 C 838.19 202.19 838.81 202.04 839.42 201.89 C 840.03 201.74 840.64 201.60 841.26 201.46 C 841.87 201.31 842.49 201.18 843.11 201.04 C 843.72 200.91 844.34 200.77 844.96 200.65 C 845.58 200.52 846.20 200.39 846.83 200.27 C 847.45 200.15 848.07 200.03 848.70 199.91 C 849.32 199.79 849.95 199.68 850.58 199.57 C 851.20 199.46 851.83 199.35 852.46 199.25 C 853.09 199.15 853.72 199.05 854.36 198.95 C 854.99 198.86 855.62 198.76 856.26 198.67 C 856.90 198.58 857.53 198.50 858.17 198.41 C 858.81 198.33 859.45 198.25 860.09 198.18 C 860.73 198.10 861.37 198.03 862.02 197.96 C 862.66 197.89 863.31 197.83 863.95 197.77 C 864.60 197.71 865.25 197.65 865.90 197.59 Z" fill="#ffffff" fill-rule="evenodd"/>
  </g>
</svg>
