<?xml version="1.0" encoding="UTF-8" standalone="no"?>
<svg
   viewBox="0 0 1024 1024"
   version="1.1"
   id="svg1"
   sodipodi:docname="R_bold_monogram.svg"
   inkscape:version="1.4.3 (0d15f75, 2025-12-25)"
   xmlns:inkscape="http://www.inkscape.org/namespaces/inkscape"
   xmlns:sodipodi="http://sodipodi.sourceforge.net/DTD/sodipodi-0.dtd"
   xmlns="http://www.w3.org/2000/svg"
   xmlns:svg="http://www.w3.org/2000/svg">
  <defs
     id="defs1" />
  <sodipodi:namedview
     id="namedview1"
     pagecolor="#ffffff"
     bordercolor="#000000"
     borderopacity="0.25"
     inkscape:showpageshadow="2"
     inkscape:pageopacity="0.0"
     inkscape:pagecheckerboard="0"
     inkscape:deskcolor="#d1d1d1"
     inkscape:zoom="1.8095703"
     inkscape:cx="389.87156"
     inkscape:cy="512"
     inkscape:window-width="2966"
     inkscape:window-height="1859"
     inkscape:window-x="536"
     inkscape:window-y="157"
     inkscape:window-maximized="0"
     inkscape:current-layer="svg1" />
  <path
     id="path2"
     style="stroke-width:1.21917"
     d="m 949.96289,127.23828 c -3.72332,-0.0319 -7.42531,0.0728 -11.00781,0.29688 a 0.16603545,0.16603545 0 0 0 -0.004,-0.002 c -9.57594,0.59851 -18.87433,2.71175 -28.04101,4.66211 -9.17315,1.95175 -18.17559,4.30564 -27.01954,7.0625 -8.84592,2.75748 -17.45729,6.07572 -26.04101,9.45313 -8.58493,3.37786 -17.09891,6.91467 -25.47852,10.78125 -8.3793,3.86645 -16.63378,8.03739 -24.80468,12.42773 -8.18441,4.39191 -15.87647,11.53562 -24.15625,13.84766 -8.29822,2.30506 -17.0011,1.28912 -25.78907,0.0703 -8.77194,-1.21494 -17.87679,-4.9678 -26.87695,-7.36133 -8.98545,-2.40182 -17.97083,-4.79188 -27.03125,-7.02344 -9.05879,-2.21897 -18.13257,-4.41328 -27.31641,-6.32812 -9.19884,-1.9032 -18.59714,-3.29295 -27.80859,-5.13281 -9.21082,-1.83973 -18.22081,-4.18191 -27.49414,-5.90235 -9.27094,-1.71998 -18.72259,-3.0122 -28.12109,-4.41406 -9.38856,-1.40217 -18.82488,-2.73106 -28.26172,-4.02344 a 0.16603545,0.16603545 0 0 0 -0.002,0 c -9.44977,-1.28031 -18.93516,-2.4625 -28.41992,-3.68164 -9.47109,-1.21892 -18.88313,-2.59699 -28.43359,-3.60937 -9.56236,-1.02456 -19.26853,-1.70868 -28.89844,-2.52539 -9.64194,-0.81672 -19.21415,-1.77883 -28.94726,-2.38867 -9.73102,-0.60972 -19.53568,-1.04855 -29.42579,-1.25586 -9.90088,-0.21948 -20.10738,-0.34065 -29.95117,-0.0234 -9.85648,0.31715 -19.50281,1.12112 -29.14648,1.92578 -9.65542,0.80462 -19.3151,1.57247 -28.7461,2.90234 -9.42732,1.34153 -18.74786,2.93899 -27.83789,5.12305 -9.07784,2.18405 -17.92215,4.9553 -26.64257,7.99219 -8.71783,3.04819 -17.41753,6.15847 -25.69532,10.28515 -8.28439,4.12389 -16.44791,8.83349 -23.96875,14.48633 -7.51449,5.64808 -15.3652,12.12967 -21.17187,19.42774 -5.7858,7.29937 -11.13906,15.557 -13.61133,24.36914 -2.46981,8.81544 -3.26621,19.65986 -1.20898,28.47656 2.07814,8.86594 11.6317,21.78174 13.58593,24.37109 0.24622,0.32624 0.41328,0.52927 0.54688,0.64258 0.0334,0.0283 0.064,0.0512 0.10351,0.0703 0.0395,0.0192 0.0949,0.0401 0.16602,0.0195 0.0711,-0.0206 0.12214,-0.0874 0.13867,-0.13477 0.0165,-0.0473 0.0166,-0.0854 0.0156,-0.125 -0.004,-0.15856 -0.06,-0.36228 -0.14844,-0.65625 -0.0885,-0.29397 -0.2111,-0.6673 -0.35742,-1.10742 -0.5853,-1.76049 -1.53612,-4.60115 -2.03321,-7.65039 -0.49708,-3.08685 -1.86147,-7.87224 -2.92968,-12.98828 -1.06822,-5.11604 -1.83693,-10.55851 -1.1543,-14.91407 1.37013,-8.75423 6.69246,-17.45236 12.29297,-24.76953 5.60046,-7.30127 13.78233,-13.4906 21.32812,-19.08594 7.5483,-5.58817 15.69673,-10.22868 23.92188,-14.45703 8.22241,-4.21474 16.69962,-7.82022 25.42187,-10.85351 8.70557,-3.01955 17.82075,-5.10295 26.88086,-7.32227 9.0588,-2.21896 18.10105,-4.46182 27.44336,-5.98437 9.34159,-1.52243 18.98175,-2.31454 28.61328,-3.16797 9.62818,-0.84093 19.36583,-1.40203 29.13086,-1.91406 a 0.16603545,0.16603545 0 0 0 0.002,0 c 9.76717,-0.52434 19.62679,-1.19532 29.43359,-1.19532 9.80554,0.0121 19.6052,0.80599 29.42383,1.22071 a 0.16603545,0.16603545 0 0 0 0.002,0 c 9.81674,0.4024 19.71396,0.59728 29.42578,1.21875 9.72465,0.60932 19.29334,1.59713 28.91406,2.46289 9.6216,0.86582 19.32435,1.53451 28.79102,2.72851 9.47699,1.19376 18.6814,3.07113 28.09961,4.4375 9.41704,1.36621 18.99898,2.31662 28.38086,3.74219 9.38394,1.42587 18.64872,3.15922 27.93945,4.8418 9.27719,1.68232 18.52826,3.4234 27.74414,5.25195 9.22883,1.82869 18.43456,3.68323 27.57617,5.71875 9.12956,2.02339 18.19848,4.21781 27.24414,6.46094 l -0.002,-0.002 c 9.04833,2.256 18.28831,4.37732 27.00977,7.04493 4.37522,1.34246 10.71378,3.08627 15.95898,4.74414 2.6226,0.82893 4.97237,1.63664 6.66016,2.35937 0.84389,0.36137 1.52188,0.70284 1.98047,1.00781 0.22929,0.15249 0.40349,0.29638 0.51367,0.42188 0.11018,0.1255 0.15151,0.22614 0.15234,0.29492 8.5e-4,0.0704 -0.0334,0.15184 -0.13476,0.25391 -0.10141,0.10207 -0.26641,0.21468 -0.48828,0.32617 -0.44376,0.22299 -1.10953,0.444 -1.93946,0.65039 -1.65985,0.41278 -3.9791,0.77257 -6.57617,1.05859 -5.19413,0.57205 -11.50038,0.84639 -15.90039,0.66407 a 0.16603545,0.16603545 0 0 0 -0.002,0 c -8.79037,-0.35211 -18.40381,-3.65067 -27.72461,-5.27539 -9.31415,-1.62144 -18.60691,-3.26788 -28.09766,-4.45118 -9.50378,-1.18339 -19.21169,-1.83026 -28.85351,-2.63476 -9.65312,-0.8044 -19.20303,-1.84051 -29.03711,-2.21875 -9.83489,-0.36608 -19.96661,-5.8e-4 -29.93555,0.0117 -9.98044,0 -20.12765,-0.41551 -29.93945,0.0117 -9.80832,0.42695 -19.39466,1.39133 -28.90625,2.52539 -9.51486,1.14667 -18.82979,2.73244 -28.14454,4.34179 -9.31524,1.60943 -18.59586,3.27941 -27.74414,5.31641 -9.13624,2.03707 -18.1245,4.45166 -27.08593,6.90234 a 0.16603545,0.16603545 0 0 0 -0.002,0 c -8.96036,2.46257 -17.93674,4.87802 -26.70898,7.81836 -8.75875,2.95212 -17.3451,6.31707 -25.86914,9.85352 a 0.16603545,0.16603545 0 0 0 0,0.002 c -8.51304,3.53694 -16.9153,7.34159 -25.2207,11.39063 -8.30682,4.04972 -16.4655,8.46468 -24.58594,12.93945 v -0.002 c -8.12996,4.46112 -16.34083,8.75602 -24.20117,13.89453 -7.8592,5.13777 -15.40669,11.00573 -22.94141,16.89453 -7.54762,5.90153 -15.135,11.96281 -22.29688,18.49023 -7.15976,6.53772 -14.23415,13.51386 -20.66406,20.72461 -6.42891,7.22187 -12.49517,14.79898 -17.90039,22.54688 -5.39148,7.74567 -10.40506,15.66556 -14.48242,23.96679 -4.06476,8.30039 -7.27421,16.96664 -9.92188,25.86133 -2.63344,8.88788 -5.35758,18.10363 -5.91992,27.54102 -0.57416,9.41854 0.38901,19.82963 2.50196,28.95312 2.10002,9.12042 5.30151,17.91612 10.1289,25.79883 4.83959,7.88266 11.71381,15.52558 18.85938,21.48633 7.16118,5.97578 15.59822,10.61422 24.05664,14.3125 8.46108,3.69943 17.34983,6.37414 26.71484,7.90039 9.36887,1.52686 19.80293,1.66043 29.45313,1.25781 9.6421,-0.40275 19.25926,-1.73315 28.43554,-3.68554 9.16735,-1.96532 17.96531,-4.85606 26.61328,-8.07618 8.64828,-3.23243 17.15322,-6.82005 25.29493,-11.27539 8.1419,-4.45547 15.91359,-9.80113 23.54882,-15.47265 7.6355,-5.67175 15.30918,-11.83258 22.25391,-18.58203 6.95796,-6.76264 13.37411,-14.4738 19.41016,-21.96094 6.03727,-7.48869 11.6978,-15.11163 16.83398,-22.98047 v -0.002 c 5.13499,-7.85504 9.8939,-15.87132 13.94531,-24.18164 4.05091,-8.30923 7.5303,-16.85171 10.36133,-25.66211 2.83063,-8.82134 5.11321,-17.86288 6.63867,-27.21094 1.53666,-9.35407 2.92709,-19.42036 2.56055,-28.91406 -0.37849,-9.48652 -1.92808,-19.19429 -4.79883,-28.00196 -1.43803,-4.41811 -4.03487,-9.99092 -6.52734,-14.77929 -2.49247,-4.78838 -4.86609,-8.77375 -5.91211,-10.07032 -0.2605,-0.32484 -0.46653,-0.52506 -0.67969,-0.61328 -0.10658,-0.0441 -0.22632,-0.056 -0.33203,-0.0137 -0.1057,0.0423 -0.18153,0.12805 -0.23242,0.22656 -0.10178,0.19703 -0.13748,0.46353 -0.14844,0.81055 -0.0109,0.34702 0.0105,0.77327 0.0547,1.26563 0.17663,1.9694 0.73407,5.00868 1.25195,8.09765 1.04265,6.21911 5.21801,17.98175 6.01953,27.41797 0.79077,9.46471 -0.10732,19.89215 -1.22851,29.41016 -1.10836,9.51242 -2.99818,18.6965 -5.45899,27.65039 -2.46012,8.95143 -5.68726,17.57838 -9.31836,26.04687 -3.6303,8.46662 -7.82272,16.71441 -12.46484,24.75586 -4.64171,8.05293 -9.80751,15.88692 -15.40039,23.53906 -5.60557,7.65285 -11.59932,15.19335 -18.17773,22.38086 -6.57968,7.18893 -13.93935,14.48629 -21.3086,20.77149 -7.36969,6.27334 -15.03149,11.84041 -22.91406,16.89648 -7.88376,5.04465 -15.9338,9.68531 -24.35938,13.38672 -8.44108,3.70286 -17.15041,6.7485 -26.25781,8.81836 -9.11162,2.07083 -18.96334,3.61616 -28.41797,3.5918 -9.46665,-0.0243 -19.7153,-0.53986 -28.32422,-3.72071 h -0.002 c -8.62831,-3.19646 -17.07158,-8.9031 -23.4668,-15.41992 -6.38411,-6.51815 -11.96741,-14.93806 -14.87109,-23.68554 -2.88868,-8.7389 -2.75894,-19.2917 -2.52734,-28.82422 0.23129,-9.51974 1.69139,-19.23912 3.91992,-28.28711 2.22715,-9.04253 5.74701,-17.55656 9.47656,-25.97852 3.71517,-8.42919 8.06386,-16.60158 12.88867,-24.58203 4.82378,-7.96656 10.28208,-15.67957 16.0586,-23.25977 a 0.16603545,0.16603545 0 0 0 0,-0.002 c 5.76377,-7.57942 11.93021,-15.00019 18.54687,-22.23828 6.61732,-7.22669 13.89313,-14.63474 21.16602,-21.15234 7.25917,-6.5162 14.87279,-12.21777 22.46875,-17.97266 7.60721,-5.74199 15.22446,-11.43442 23.09375,-16.50195 v 0.002 c 7.87015,-5.0559 15.97326,-9.5785 24.17578,-13.88086 a 0.16603545,0.16603545 0 0 0 0.002,0 c 8.18853,-4.3014 16.53466,-8.22456 24.96875,-11.92969 8.44631,-3.70518 16.97792,-7.19159 25.66602,-10.29882 8.68708,-3.10689 17.55948,-5.75049 26.45898,-8.35938 8.90058,-2.6092 17.76991,-5.26549 26.91797,-7.27539 9.13598,-1.99774 18.54701,-3.36352 27.94727,-4.76563 9.40013,-1.40211 18.78192,-2.82632 28.40625,-3.64257 9.63679,-0.80407 19.53451,-1.02518 29.42187,-1.23243 9.89745,-0.19502 20.0366,-0.19502 29.92188,0 9.89738,0.19503 19.71073,0.59807 29.4375,1.19532 9.72914,0.5974 19.46625,1.18218 28.93164,2.40039 9.46727,1.21844 18.73005,2.91151 27.89453,4.91015 4.59389,0.99706 11.12182,1.70923 16.61719,2.69532 2.74768,0.49304 5.23586,1.05649 7.08593,1.75 0.92504,0.34675 1.68978,0.72533 2.24414,1.13867 0.55437,0.41333 0.89338,0.85475 1.00196,1.32617 0.10855,0.47133 -0.004,1.00829 -0.32422,1.61133 -0.32041,0.60304 -0.84627,1.26348 -1.53125,1.96289 -1.36997,1.39881 -3.3764,2.95133 -5.64063,4.56445 -4.52845,3.22625 -10.09079,6.69766 -13.73437,9.76563 -7.26275,6.0929 -14.96924,12.04208 -22.26563,18.5332 a 0.16603545,0.16603545 0 0 0 -0.002,0.002 c -7.2937,6.5009 -14.52302,13.42635 -21.48633,20.41407 -6.95258,6.98916 -13.64945,14.30744 -20.26953,21.53711 -6.62114,7.24302 -13.10604,14.53389 -19.45898,21.88671 -6.34075,7.35285 -12.54902,14.76585 -18.60938,22.22852 -6.06008,7.47449 -12.01202,14.98848 -17.75586,22.58594 -5.75613,7.59763 -11.28955,15.29168 -16.75195,23.00976 -5.47561,7.70731 -10.74455,15.51001 -16.08399,23.27539 -5.35215,7.76609 -10.70245,15.51934 -15.99414,23.31055 -5.29118,7.77831 -10.59702,15.57013 -15.77929,23.39844 -5.18217,7.84029 -10.26683,15.71704 -15.31446,23.60547 -5.03636,7.88988 -9.9007,15.8503 -14.95898,23.73632 h 0.002 c -5.07135,7.87525 -10.20441,15.72703 -15.42187,23.54102 -5.21721,7.81365 -10.55686,15.57892 -15.88477,23.35742 -5.32835,7.77915 -10.57013,15.58044 -16.05469,23.28321 -5.4964,7.70228 -11.27525,15.27346 -16.88476,22.93164 -5.61004,7.65893 -10.9614,15.42166 -16.77344,22.98828 -5.81337,7.56838 -11.90655,15.01609 -18.11133,22.42773 -6.19186,7.41071 -12.59278,14.73744 -19.07812,22.02735 h 0.002 c -6.49818,7.29063 -13.14215,14.73967 -19.88086,21.68554 -6.73808,6.93303 -13.56456,13.24591 -20.57617,19.96485 -7.01304,6.73253 -14.14202,14.04638 -21.49805,20.36718 -7.34595,6.32265 -14.96357,12.01156 -22.61914,17.61914 -7.65523,5.60735 -15.35817,11.09336 -23.28906,16.02735 -7.93183,4.92234 -16.05844,9.38039 -24.29688,13.56054 -8.25328,4.18154 -16.51382,8.31143 -25.14648,11.51368 -8.64489,3.18998 -17.66173,5.50427 -26.74219,7.67382 -9.08036,2.16953 -18.23096,4.13401 -27.70703,5.33985 -9.46933,1.20651 -19.53104,2.16715 -29.11133,1.875 -9.569,-0.30436 -19.20371,-1.7413 -28.37695,-3.66602 h -0.002 c -9.16324,-1.93754 -18.185485,-4.22791 -26.61719,-7.90234 -8.451869,-3.67791 -16.898834,-8.21983 -24.025391,-14.1543 h -0.002 c -7.117711,-5.94988 -13.911967,-13.63142 -18.728515,-21.47656 -4.819061,-7.86139 -8.490939,-16.56242 -10.19336,-25.6582 -1.701982,-9.0813 -1.448908,-19.69692 -0.03711,-28.91016 1.410604,-9.20541 4.795286,-17.93516 8.511719,-26.36719 3.726228,-8.42664 8.290555,-16.48635 13.80664,-24.16992 5.527396,-7.6945 12.362708,-15.28443 19.330078,-21.94726 6.953384,-6.6733 14.661764,-12.7154 22.421875,-18.03907 7.770976,-5.32273 15.836666,-9.92549 24.156246,-13.89648 8.32983,-3.97006 16.9764,-7.13784 25.81055,-9.91602 a 0.16603545,0.16603545 0 0 0 0.002,0 c 8.82248,-2.77835 17.78688,-5.20244 27.12696,-6.72461 9.34028,-1.51003 19.19553,-2.15658 28.93164,-2.35156 9.72474,-0.20718 19.95756,-0.0491 29.42969,1.15625 4.72192,0.60771 10.41275,1.97857 15.5,3.27539 5.08724,1.29683 9.56289,2.51923 11.9082,2.83399 1.16516,0.15637 2.04657,0.20198 2.66015,0.14843 0.3068,-0.0268 0.54689,-0.0764 0.73047,-0.16015 0.18358,-0.0838 0.32601,-0.22279 0.34961,-0.4043 0.0236,-0.18151 -0.0657,-0.35077 -0.20703,-0.51562 -0.14131,-0.16486 -0.34638,-0.33496 -0.61914,-0.51758 -0.54552,-0.36526 -1.35999,-0.77879 -2.45117,-1.23242 -4.35574,-1.82304 -17.29583,-6.46739 -26.44727,-8.50782 -9.14347,-2.03867 -18.68614,-3.11227 -28.4082,-3.73437 -9.73458,-0.62214 -20.32245,-0.80507 -29.99023,-0.0117 -9.6689,0.78131 -18.8582,2.67207 -28.00391,4.7207 -9.13516,2.03688 -18.14085,4.41598 -26.8418,7.51563 -8.69944,3.11129 -17.16716,6.77336 -25.355466,11.10547 -8.200364,4.33204 -16.120468,9.3206 -23.794922,14.89648 -7.671304,5.57359 -15.602479,11.68931 -22.294921,18.55273 -6.677916,6.84884 -12.743808,14.66946 -17.796875,22.56641 -5.04101,7.88497 -9.240956,16.14972 -12.488282,24.79297 -3.244618,8.63607 -6.249775,17.72047 -7.007812,27.08594 -0.757718,9.36147 0.318393,19.89684 2.443359,29.01953 2.136892,9.10926 5.458177,17.85733 10.333985,25.71484 4.877387,7.86004 11.837562,15.2076 18.892578,21.40821 7.058735,6.20387 15.2134,11.51405 23.427734,15.81054 8.207787,4.31152 16.959042,7.3123 25.826172,10.00781 8.87372,2.69751 18.08549,4.55378 27.39063,6.17579 9.31803,1.63431 18.74868,2.97628 28.48632,3.57421 9.73832,0.59798 20.11863,0.41365 29.93555,0.0234 9.81867,-0.39032 19.49196,-1.15954 28.98242,-2.36719 9.47809,-1.20764 18.78528,-2.84176 27.92188,-4.8789 9.13698,-2.03722 18.10318,-4.51332 26.91015,-7.35547 8.80918,-2.84285 17.3845,-6.23303 25.93164,-9.68359 8.54699,-3.45048 17.0835,-6.95262 25.39258,-11.01563 8.29678,-4.0752 16.35917,-8.69722 24.39453,-13.41601 8.02276,-4.70636 16.03693,-9.47344 23.78516,-14.87891 7.75044,-5.39479 15.14011,-11.64059 22.69531,-17.50195 7.54259,-5.86103 15.25045,-11.33772 22.60938,-17.6836 7.36924,-6.34438 14.56636,-13.36912 21.54101,-20.34375 6.97587,-6.97587 13.84215,-14.23205 20.31836,-21.52539 6.47826,-7.29566 12.37948,-14.83165 18.5586,-22.2539 6.16709,-7.42244 12.59334,-14.73981 18.49804,-22.2793 5.90345,-7.53784 11.45118,-15.2199 16.92578,-22.92578 5.47563,-7.71955 10.73364,-15.52381 15.92774,-23.35157 5.19513,-7.82924 10.18153,-15.74149 15.22851,-23.6289 5.04773,-7.8886 10.04635,-15.80294 15.04493,-23.70313 5.0097,-7.91073 10.18039,-15.75067 14.98632,-23.74023 4.80665,-7.99076 9.13388,-16.17101 13.84961,-24.20117 4.70514,-8.02063 9.55749,-15.99403 14.42188,-23.95508 4.86347,-7.95952 9.88521,-15.85828 14.78711,-23.80859 4.88955,-7.95012 9.68168,-15.94868 14.58203,-23.89649 4.90079,-7.94854 9.85021,-15.88672 14.82422,-23.79883 4.97408,-7.91222 9.97169,-15.82219 15.04297,-23.69726 5.0715,-7.87549 10.18115,-15.73899 15.39843,-23.55274 5.23003,-7.81456 10.49537,-15.61595 15.93164,-23.34375 h -0.002 c 5.43696,-7.71658 10.96042,-15.40809 16.70117,-23.01367 5.72999,-7.59528 11.48141,-15.18719 17.6836,-22.5957 6.20403,-7.41069 12.6766,-14.80934 19.5,-21.83985 3.43256,-3.53046 6.89246,-8.25464 10.44531,-12.27734 3.55285,-4.02269 7.199,-7.33084 10.94922,-8.06055 3.75656,-0.73094 7.89043,0.82768 12.05469,3.23047 4.16425,2.4028 8.3507,5.64136 12.21679,8.21875 7.70239,5.13494 15.61821,12.22272 21.875,19.34375 6.2447,7.13332 11.56547,15.11767 15.63086,23.39453 4.06545,8.27698 7.01279,17.10354 8.76563,26.26953 h -0.002 c 1.74058,9.16542 2.36146,19.32054 1.72852,28.70508 -0.63282,9.38246 -2.75013,18.79439 -5.53906,27.59961 -2.78754,8.813 -6.69626,17.15438 -11.19141,25.26758 -4.48157,8.11066 -9.81657,15.97896 -15.73633,23.38477 -5.91839,7.40405 -12.7635,14.47028 -19.75781,21.0625 -7.0062,6.5919 -14.54918,13.02544 -22.24609,18.50586 -7.69738,5.46854 -15.72519,10.16842 -23.96094,14.35937 -8.23298,4.18958 -16.77261,7.6268 -25.4375,10.7832 -8.66462,3.16851 -17.44932,6.02927 -26.52344,8.21094 -9.06441,2.17935 -18.34555,3.82435 -27.89648,4.84766 -9.54875,1.0231 -19.60087,1.262 -29.38868,1.30468 -4.86089,0.0212 -13.73375,-1.44487 -21.7871,-2.6582 -4.02668,-0.60666 -7.85049,-1.15092 -10.87891,-1.41211 -1.51421,-0.13059 -2.83063,-0.19083 -3.87695,-0.15234 -1.04632,0.0385 -1.82099,0.16407 -2.28711,0.46094 -0.22946,0.14613 -0.38525,0.33799 -0.44532,0.56054 -0.0601,0.22256 -0.0229,0.46179 0.0781,0.70508 0.20207,0.48659 0.66141,1.01676 1.31055,1.61133 1.29827,1.18914 3.36546,2.61949 5.67578,4.16601 4.62062,3.09305 10.21767,6.65841 12.46289,9.48438 5.23477,6.58881 14.23603,12.73246 17.66797,20.93164 3.44184,8.22287 2.74151,18.89916 3.04687,28.60352 0.30409,9.66387 -0.81609,19.59754 -1.21875,29.41992 -0.41442,9.7994 -1.01189,19.53001 -1.20703,29.43359 -0.20723,9.89883 -0.50034,20.16612 0,29.95313 0.48799,9.77218 1.54947,19.32472 2.97656,28.71679 1.43966,9.39431 3.42648,18.5437 5.60938,27.62891 2.18257,9.0717 4.45369,18.12319 7.48047,26.84961 3.03855,8.73735 6.7343,17.19304 10.72265,25.52344 3.98949,8.33279 8.47786,16.4539 13.23438,24.46679 4.74339,8.01132 9.61129,15.97704 15.26172,23.62891 5.63659,7.64967 11.89438,15.16512 18.58007,22.26562 6.69769,7.10029 14.14079,14.16662 21.58399,20.31641 v -0.002 c 7.44415,6.16279 15.20308,11.52976 23.08203,16.60351 7.87999,5.07441 15.91958,9.75959 24.2168,13.85938 8.28435,4.08728 16.79981,7.64997 25.52343,10.67578 8.7396,3.02711 17.82771,5.20959 26.87305,7.46484 9.02948,2.25434 17.93553,4.89093 27.42578,6.08789 9.49956,1.19661 19.72441,1.22156 29.50391,1.09961 9.78009,-0.12196 19.77037,-0.45054 29.19531,-1.83007 9.42117,-1.36681 18.52682,-3.48975 27.31445,-6.39454 8.792,-2.90623 19.26587,-7.66227 25.41016,-11.02148 3.07201,-1.68287 6.49825,-4.04778 8.875,-5.95313 1.18838,-0.95267 2.11144,-1.7873 2.60742,-2.38085 0.124,-0.14839 0.22144,-0.28226 0.29102,-0.4043 0.0696,-0.12204 0.11762,-0.23067 0.11523,-0.35352 -0.002,-0.12284 -0.0975,-0.25342 -0.21484,-0.29687 -0.11733,-0.0435 -0.24527,-0.0399 -0.4043,-0.0156 -0.32291,0.0493 -0.79807,0.21589 -1.42969,0.47461 -0.63161,0.25873 -1.41214,0.61032 -2.31054,1.03125 -1.79681,0.84186 -4.06382,1.95989 -6.53125,3.15821 -4.93486,2.39662 -10.67537,5.11306 -15.04102,6.57031 -8.75435,2.93436 -17.90053,4.93205 -27.28125,6.35742 -9.38166,1.41335 -19.41946,2.40032 -28.98828,2.19336 -9.56823,-0.21913 -19.22866,-1.69265 -28.45312,-3.49609 -9.22156,-1.80292 -18.19702,-4.2281 -26.86914,-7.33399 -8.68348,-3.11777 -17.05257,-6.99148 -25.20313,-11.36523 -8.1636,-4.37424 -16.14156,-9.17313 -23.74023,-14.89649 -7.59947,-5.72398 -15.12867,-12.49581 -21.86524,-19.43945 -6.72314,-6.94236 -12.93547,-14.56886 -18.51562,-22.23242 -5.57909,-7.66211 -10.49968,-15.59401 -14.95899,-23.72071 -4.44516,-8.12305 -8.11365,-16.57807 -11.73437,-25.05078 -3.61993,-8.47086 -7.04373,-17.03725 -9.99219,-25.78515 -2.94919,-8.75009 -5.60529,-17.62025 -7.71289,-26.72071 -2.09439,-9.09597 -3.27601,-18.58056 -4.89844,-27.90039 -1.62211,-9.3181 -3.53828,-18.49441 -4.79297,-27.94726 -1.26668,-9.43934 -1.76477,-19.21681 -2.77734,-28.78125 -1.02453,-9.56223 -2.37765,-18.97281 -3.32813,-28.55078 a 0.16603545,0.16603545 0 0 0 0,-0.002 c -0.96176,-9.56883 -0.753,-19.63032 -2.39062,-28.95508 -1.63413,-9.30467 -3.46583,-18.54806 -7.42774,-26.9121 -1.98733,-4.19547 -5.36859,-8.53494 -8.60351,-12.55469 -3.23492,-4.01975 -6.32582,-7.72571 -7.72266,-10.59766 -1.41701,-2.91342 -2.7535,-5.25734 -3.14453,-7.11914 -0.19551,-0.9309 -0.15866,-1.73174 0.20117,-2.44531 0.35984,-0.71357 1.05165,-1.35349 2.21094,-1.93164 2.2832,-1.1416 7.13206,-1.50766 12.57813,-1.6875 5.44606,-0.17985 11.50338,-0.1898 16.29687,-0.69727 9.55891,-1.02418 19.09713,-2.09753 28.40625,-3.73242 9.30722,-1.62234 18.45544,-3.64828 27.44531,-6.03906 8.98955,-2.40292 17.83422,-5.14644 26.4961,-8.36719 8.64896,-3.20827 17.13813,-6.83248 25.42187,-10.93164 8.28241,-4.09852 16.42021,-8.5636 24.30274,-13.66406 7.86883,-5.08729 15.55485,-10.67488 22.96093,-16.87305 7.40236,-6.19505 15.24667,-13.05275 21.5,-20.33203 a 0.16603545,0.16603545 0 0 0 0.002,0 c 6.25071,-7.28838 11.54673,-15.20953 16.01367,-23.33789 4.47833,-8.1391 8.31357,-16.53757 10.8418,-25.49024 2.53938,-8.94886 4.19913,-18.73929 4.3457,-28.19336 0.14657,-9.46571 -1.16094,-19.5129 -3.46875,-28.54882 -2.30814,-9.04943 -5.86055,-17.5712 -10.36524,-25.68946 -4.50608,-8.13293 -10.28029,-15.93467 -16.67578,-23.0625 -6.41073,-7.14339 -14.2082,-13.87611 -21.75976,-19.74414 -7.54336,-5.87108 -15.48542,-10.82723 -23.53516,-15.48633 -4.0391,-2.3439 -8.9861,-4.32158 -13.54297,-6.28906 -4.55686,-1.96748 -8.72339,-3.9297 -11.18945,-6.19726 -2.47484,-2.27565 -4.67028,-5.67308 -5.79492,-8.66016 -0.56232,-1.49354 -0.85598,-2.88351 -0.79492,-3.9668 0.0611,-1.08328 0.4524,-1.8359 1.27343,-2.16601 0.81867,-0.32803 2.35096,-0.24792 4.29688,0.13086 1.94592,0.37877 4.311,1.04161 6.84765,1.81445 5.07332,1.54569 10.83228,3.53403 15.34571,4.58594 8.99487,2.10857 18.10291,4.47463 27.41406,6.09765 9.30721,1.63456 18.78701,2.86636 28.43555,3.6836 9.63301,0.81698 19.73368,1.53759 29.42578,1.23242 9.68972,-0.29288 19.38869,-1.41542 28.68555,-3.0625 9.30814,-1.64692 18.41234,-3.7709 27.14062,-6.81055 8.72308,-3.05001 17.24285,-6.58824 25.23047,-11.44922 7.97452,-4.8408 17.06192,-10.47897 22.68555,-17.69531 5.61959,-7.18332 11.80949,-17.52604 11.01949,-25.52539 -0.7896,-7.99544 -8.6219,-17.19134 -15.73824,-22.11523 -7.1366,-4.95016 -17.58216,-6.03776 -26.92774,-7.45118 -4.68912,-0.70825 -9.63433,-1.12667 -14.60351,-1.29296 -1.2423,-0.0416 -2.48697,-0.0675 -3.72852,-0.0781 z m 9.23633,6.6875 c 4.64774,0.0733 -0.15859,-0.1036 4.72265,0.0977 4.31233,0.29556 -0.38736,-0.12328 4.64844,0.35156 4.17845,0.55602 -0.24396,-0.19464 4.54883,0.64648 4.12195,0.83163 -0.40835,-0.27637 4.41211,0.95899 2.20533,0.56118 8.56394,3.05224 6.46484,2.17578 2.22281,0.91859 8.49965,4.48177 6.4375,3.24414 0.70541,0.4257 1.42135,0.87528 2.09961,1.34766 4.11415,2.72965 -2.22095,-1.74707 2.01758,1.45703 1.8878,1.46896 6.49642,6.98408 5.06445,5.0625 1.34257,1.76632 3.41057,8.10239 2.86327,5.95312 0.5477,2.13102 0.3546,8.73254 0.5176,6.54297 -0.6535,4.32362 0.5643,-0.905 -0.752,4.4961 -0.5751,2.27829 -3.46888,8.71078 -2.43941,6.5996 h 0.002 c -2.09595,3.84995 0.42936,-0.22846 -2.33203,4.12696 -2.50997,3.54524 0.41993,-0.14781 -2.75586,3.77734 -1.45923,1.77984 -6.45905,6.54642 -4.75,5.00391 -1.70363,1.55234 -7.24879,5.68356 -5.375,4.34179 -1.8887,1.33771 -7.82564,4.94004 -5.82813,3.77149 -0.65499,0.4003 -1.32384,0.7787 -2.00585,1.15625 -1.99123,1.18203 -6.13926,3.25073 -4.08008,2.19141 -2.04605,1.0584 -8.30205,3.99534 -6.20899,3.0332 -2.07023,0.96208 -8.38628,3.6093 -6.27539,2.74023 -2.10554,0.86402 -8.50872,3.23482 -6.36914,2.45899 -4.25527,1.4794 0.33023,-0.0423 -4.28711,1.47461 -2.16133,0.70517 -8.72055,2.57831 -6.52539,1.98437 a 0.16603545,0.16603545 0 0 0 -0.002,0 c -4.1143,1.11602 0.56631,-0.0547 -4.39453,1.16797 -0.74373,0.18288 -1.48851,0.36681 -2.23047,0.53711 -2.22766,0.55067 -6.73128,1.44353 -4.48242,0.98633 -2.26514,0.46205 -9.10244,1.62435 -6.82227,1.24219 -0.76514,0.12141 -1.53208,0.23224 -2.29883,0.34179 -2.31256,0.34828 -6.97787,0.86151 -4.65234,0.60938 -2.3569,0.28528 -9.45491,0.87596 -7.08789,0.69336 a 0.16603545,0.16603545 0 0 0 -0.002,0 c -4.47052,0.3018 0.62546,0.0288 -4.7754,0.30468 -0.80302,0.0487 -1.59544,0.085 -2.39843,0.10938 -4.77495,0.20879 2.78349,-0.0805 -2.41407,0.0859 -4.47573,0.0962 0.44526,0.0413 -4.83398,0.084 -3.66347,-0.0127 -1.40656,0.0425 -4.85156,-0.0352 -4.7878,-0.13084 0.28861,0.0386 -4.83594,-0.13476 -0.80349,-0.0365 -1.6186,-0.0729 -2.42187,-0.10938 -4.77129,-0.23996 2.66774,0.19405 -2.41407,-0.14648 -0.80466,-0.0487 -1.60782,-0.0975 -2.39843,-0.1582 -4.7236,-0.31767 2.6368,0.20435 -2.4004,-0.1836 -2.38169,-0.21668 -9.51275,-1.00788 -7.13867,-0.71679 -4.58359,-0.56838 0.10046,0.0824 -4.6914,-0.59766 -0.77617,-0.0971 -1.55716,-0.22021 -2.32618,-0.33008 -4.58406,-0.65547 2.56395,0.39214 -2.3164,-0.35351 -2.28461,-0.36305 -9.11084,-1.6126 -6.83594,-1.19336 -4.23403,-0.82544 0.59939,0.13227 -4.50781,-0.88868 -0.74262,-0.15826 -1.48621,-0.31641 -2.22852,-0.4746 -4.41044,-0.95363 2.5116,0.57731 -2.24218,-0.48829 -0.74129,-0.15796 -1.48365,-0.32951 -2.22852,-0.48828 -2.22991,-0.47562 -6.65801,-1.56087 -4.43945,-1.03515 -4.43797,-1.05417 0.36518,0.11739 -4.44922,-1.07422 -2.2335,-0.51974 -8.91001,-2.17671 -6.67969,-1.64453 -4.44263,-1.12831 0.38085,0.11299 -4.47461,-1.13477 -4.45771,-1.11527 0.28258,0.0937 -4.50976,-1.13281 -2.28683,-0.565 -9.15259,-2.23849 -6.86329,-1.6836 -4.51966,-1.09811 0.12168,0.054 -4.61914,-1.11914 -2.07694,-0.56496 -7.86348,-3.49935 -6.03906,-2.31445 -1.29452,-1.81931 -1.53786,0.056 -0.83203,-2.30664 0.15947,-0.42143 0.4793,-0.89131 0.80664,-1.33984 h -0.002 c 0.33375,-0.45296 0.7448,-0.89867 1.18164,-1.34766 0.44525,-0.44508 0.95209,-0.89097 1.49609,-1.32617 a 0.16603545,0.16603545 0 0 0 0.002,0 c 0.5318,-0.43509 1.12771,-0.8743 1.73633,-1.3125 0.60574,-0.43614 1.24855,-0.86082 1.90625,-1.28711 a 0.16603545,0.16603545 0 0 0 0.002,0 c 0.66866,-0.43765 1.35006,-0.86403 2.04296,-1.27734 a 0.16603545,0.16603545 0 0 0 0,-0.002 c 0.69306,-0.42556 1.40012,-0.83899 2.09571,-1.2539 0.694,-0.41398 1.40182,-0.82711 2.09765,-1.24219 0.69388,-0.41387 1.38701,-0.81804 2.07032,-1.2207 v 0.002 c 0.69564,-0.40275 1.3778,-0.80665 2.06054,-1.20899 0.68129,-0.40147 1.36462,-0.79017 2.04883,-1.19336 0.66996,-0.38979 1.3523,-0.78143 2.02344,-1.17187 0.66898,-0.38925 1.3509,-0.77784 2.02148,-1.16797 l 0.002,-0.002 c 0.66973,-0.37751 1.32855,-0.75499 1.99804,-1.14453 l 0.002,-0.002 c 0.67046,-0.3779 1.32702,-0.75375 1.99609,-1.13086 0.65534,-0.37622 1.32649,-0.74037 1.98633,-1.11914 l 0.002,-0.002 c 0.67187,-0.36652 1.32822,-0.74484 1.98438,-1.10937 0.65759,-0.36531 1.32912,-0.73147 1.98828,-1.09766 0.65841,-0.3658 1.3163,-0.73195 1.97461,-1.09766 v 0.002 c 0.66914,-0.365 1.32742,-0.71988 1.98633,-1.08594 l 0.002,-0.002 c 0.65826,-0.35352 1.32742,-0.71749 1.98437,-1.07032 0.67123,-0.35391 1.33015,-0.70732 2,-1.06054 0.65765,-0.35317 1.32729,-0.70662 1.98633,-1.06055 0.67059,-0.35358 1.34067,-0.70626 2.00977,-1.04688 a 0.16603545,0.16603545 0 0 0 0.002,-0.002 c 0.65601,-0.35231 1.32733,-0.69174 1.99805,-1.0332 a 0.16603545,0.16603545 0 0 0 0.002,-0.002 c 0.66874,-0.3526 1.33786,-0.69407 2.00781,-1.03515 0.6834,-0.34167 1.3548,-0.68205 2.02539,-1.02344 h -0.004 c 0.67129,-0.32952 1.35608,-0.66998 2.02734,-1.01172 h -0.004 c 0.66861,-0.32821 1.35206,-0.65631 2.02344,-0.99804 l 0.004,-0.002 c 0.68145,-0.32856 1.36326,-0.65941 2.0332,-0.98828 v 0.002 c 0.68117,-0.32841 1.36451,-0.64468 2.04883,-0.97461 0.68131,-0.32852 1.36223,-0.6459 2.04492,-0.96289 a 0.16603545,0.16603545 0 0 0 0.002,0 c 0.68094,-0.32828 1.3629,-0.64817 2.04493,-0.96484 0.69262,-0.31594 1.37554,-0.61845 2.05859,-0.93555 l 0.004,-0.002 c 0.69585,-0.30527 1.37707,-0.6226 2.06836,-0.92578 a 0.16603545,0.16603545 0 0 0 0.002,0 c 0.68204,-0.30447 1.37538,-0.60925 2.07031,-0.91406 0.69564,-0.30511 1.3776,-0.61068 2.07031,-0.90235 a 0.16603545,0.16603545 0 0 0 0.002,0 c 0.6932,-0.30402 1.38883,-0.59596 2.08398,-0.88867 v 0.002 c 0.70706,-0.29258 1.40166,-0.58667 2.0957,-0.8789 l 0.002,-0.002 c 0.6946,-0.28029 1.39918,-0.57208 2.09179,-0.85156 0.70846,-0.28094 1.41681,-0.57253 2.10938,-0.83984 0.70726,-0.28047 1.41373,-0.56248 2.11914,-0.83008 a 0.16603545,0.16603545 0 0 0 0.002,0 c 0.70556,-0.27978 1.41196,-0.54815 2.11914,-0.81641 0.70718,-0.26824 1.41369,-0.53558 2.11914,-0.79101 a 0.16603545,0.16603545 0 0 0 0.002,0 c 0.71818,-0.26779 1.42561,-0.52341 2.14453,-0.7793 0.70541,-0.25541 1.42275,-0.51191 2.12891,-0.76758 l 0.004,-0.002 c 0.71933,-0.24388 1.43772,-0.49732 2.1543,-0.74023 0.71951,-0.24387 1.43874,-0.48964 2.15625,-0.72071 a 0.16603545,0.16603545 0 0 0 0.002,0 c 0.71708,-0.24307 1.43597,-0.47475 2.16797,-0.71875 0.71891,-0.23152 1.44993,-0.46451 2.16797,-0.68359 a 0.16603545,0.16603545 0 0 0 0.002,0 c 0.72918,-0.2309 1.46032,-0.45044 2.17969,-0.66992 0.73153,-0.21946 1.46191,-0.43877 2.19336,-0.65821 l -0.002,0.002 c 0.73324,-0.20776 1.46551,-0.4281 2.20703,-0.63477 0.72921,-0.20661 1.46081,-0.40197 2.20508,-0.60937 0.73093,-0.19489 1.47488,-0.38888 2.21875,-0.58399 0.74427,-0.19522 1.47338,-0.38994 2.21484,-0.57226 0.7433,-0.18279 1.50004,-0.36586 2.24414,-0.54883 0.74198,-0.18246 1.48464,-0.35285 2.24023,-0.52344 a 0.16603545,0.16603545 0 0 0 0.002,0 c 0.73928,-0.18181 1.49497,-0.3408 2.25195,-0.51172 0.74517,-0.15881 1.4996,-0.33095 2.25195,-0.47656 a 0.16603545,0.16603545 0 0 0 0.002,0 c 0.75586,-0.15849 1.51119,-0.315 2.27734,-0.46094 a 0.16603545,0.16603545 0 0 0 0,-0.002 c 0.75571,-0.14628 1.51134,-0.28927 2.2793,-0.43555 a 0.16603545,0.16603545 0 0 0 0,-0.002 c 0.75405,-0.14594 1.52312,-0.28001 2.29101,-0.41406 0.75537,-0.13402 1.52246,-0.267 2.28907,-0.38868 0.76763,-0.12186 1.5353,-0.24544 2.31445,-0.36718 0.76985,-0.10997 1.53809,-0.23236 2.3164,-0.3418 0.77813,-0.10944 1.54507,-0.20657 2.32618,-0.31641 0.78013,-0.0976 1.55722,-0.1941 2.33593,-0.27929 a 0.16603545,0.16603545 0 0 0 0.004,0 c 0.77875,-0.0974 1.55749,-0.18227 2.34961,-0.26758 a 0.16603545,0.16603545 0 0 0 0,-0.002 c 0.7782,-0.0852 1.57095,-0.15533 2.35156,-0.22852 0.79199,-0.0731 1.58336,-0.14762 2.375,-0.2207 0.79093,-0.061 1.58362,-0.12077 2.375,-0.18164 0.7924,-0.0488 1.59614,-0.0978 2.38867,-0.14649 0.7906,-0.0486 1.59585,-0.085 2.38672,-0.10937 a 0.16603545,0.16603545 0 0 0 0.002,0 c 0.79083,-0.0365 1.59219,-0.0622 2.38281,-0.0742 a 0.16603545,0.16603545 0 0 0 0.004,0 c 0.78898,-0.0242 1.57852,-0.0234 2.3711,-0.0234 z" />
  <path
     d="m 938.96154,127.70004 c -9.55833,0.59741 -18.84844,2.70658 -28.01663,4.65726 -9.1682,1.95069 -18.16571,4.30369 -27.00472,7.05902 -8.83902,2.75533 -17.44638,6.07149 -26.02937,9.44861 -8.58299,3.3771 -17.09283,6.9127 -25.46857,10.77749 -8.37572,3.8648 -16.62955,8.03437 -24.79801,12.4234 -8.1563,4.37683 -15.84927,11.53339 -24.18843,13.86201 -8.33915,2.31643 -17.06844,1.29233 -25.8587,0.0732 -8.80243,-1.21916 -17.90966,-4.97423 -26.89499,-7.36381 -8.98531,-2.40178 -17.97062,-4.79137 -27.02907,-7.02244 -9.05849,-2.2189 -18.12914,-4.41342 -27.30954,-6.32754 -9.19257,-1.9019 -18.59241,-3.29176 -27.80938,-5.13272 -9.21695,-1.84095 -18.22664,-4.18177 -27.49238,-5.9008 -9.26572,-1.71901 -18.71433,-3.01136 -28.11416,-4.41342 -9.38764,-1.40203 -18.82406,-2.73094 -28.26048,-4.02326 -9.4486,-1.28015 -18.93377,-2.46273 -28.41895,-3.68192 -9.47298,-1.21917 -18.88502,-2.59682 -28.43116,-3.60874 -9.55831,-1.02412 -19.26296,-1.70685 -28.89444,-2.5237 -9.64366,-0.81686 -19.21418,-1.78 -28.94319,-2.38959 -9.72903,-0.60959 -19.53119,-1.04849 -29.41868,-1.25575 -9.89971,-0.21945 -20.1042,-0.34135 -29.94294,-0.0243 -9.85094,0.31697 -19.49461,1.12163 -29.13828,1.92629 -9.65585,0.80466 -19.31172,1.57272 -28.73593,2.90164 -9.42422,1.34108 -18.73873,2.93819 -27.82158,5.12053 -9.07065,2.18232 -17.90966,4.94985 -26.62677,7.98558 -8.71709,3.04793 -17.40979,6.15684 -25.67582,10.27766 -8.2782,4.1208 -16.43447,8.82682 -23.94458,14.4716 -7.51011,5.64478 -15.3494,12.11859 -21.14049,19.39707 -5.77889,7.29066 -11.11888,15.53227 -13.58159,24.31033 -2.46275,8.79025 -3.25521,19.61653 -1.207,28.39459 2.0604,8.79025 11.60653,21.72568 13.55722,24.31034 1.95068,2.58466 -0.86562,-2.68218 -1.86534,-8.81464 -0.98752,-6.13243 -5.4619,-19.16543 -4.08424,-27.95567 1.37768,-8.80245 6.71767,-17.51954 12.32588,-24.84677 5.62038,-7.32724 13.81323,-13.52065 21.35993,-19.11666 7.55888,-5.59601 15.71515,-10.24106 23.94458,-14.47161 8.22944,-4.21835 16.7149,-7.82711 25.44417,-10.86284 8.71711,-3.02355 17.83654,-5.10834 26.89499,-7.32725 9.05849,-2.21889 18.10475,-4.46217 27.45582,-5.98615 9.35108,-1.52397 18.99476,-2.31643 28.62623,-3.16986 9.63147,-0.84122 19.37267,-1.40203 29.13827,-1.91409 9.76558,-0.52425 19.6287,-1.19478 29.44307,-1.19478 9.81436,0.0121 19.61651,0.80464 29.43086,1.21918 9.81436,0.40231 19.71408,0.59738 29.43087,1.21916 9.72904,0.6096 19.29955,1.59711 28.91884,2.46274 9.61929,0.86561 19.32392,1.53615 28.79691,2.73095 9.48517,1.19479 18.68994,3.0723 28.10197,4.43778 9.41203,1.36548 18.99474,2.31643 28.38238,3.74288 9.38764,1.42643 18.65337,3.15765 27.94348,4.84011 9.27792,1.68247 18.53146,3.4259 27.7484,5.25466 9.22917,1.82876 18.43393,3.6819 27.57775,5.71791 9.13163,2.02385 18.20227,4.21835 27.24855,6.46163 9.04628,2.25549 18.28762,4.37684 27.0169,7.04684 8.7415,2.68218 25.35885,6.97368 25.38324,8.98531 0.0244,2.02383 -16.38572,3.48684 -25.21254,3.12109 -8.82685,-0.35357 -18.44612,-3.65753 -27.74843,-5.27903 -9.31449,-1.6215 -18.60459,-3.26738 -28.08977,-4.44998 -9.49737,-1.1826 -19.202,-1.82878 -28.84569,-2.63344 -9.65585,-0.80463 -19.20197,-1.84093 -29.02854,-2.21888 -9.82654,-0.36577 -19.95788,0 -29.93073,0.0123 -9.98504,0 -20.12857,-0.41451 -29.93073,0.0123 -9.80217,0.42669 -19.38489,1.38987 -28.89444,2.52368 -9.50957,1.14604 -18.82406,2.73096 -28.13855,4.34027 -9.31449,1.6093 -18.59241,3.27958 -27.73622,5.31559 -9.13162,2.03604 -18.11693,4.44999 -27.07788,6.90054 -8.96093,2.46272 -17.93405,4.87669 -26.69991,7.8149 -8.75368,2.95041 -17.33668,6.31533 -25.85871,9.85094 -8.50983,3.53561 -16.90994,7.33943 -25.21252,11.38709 -8.30258,4.04766 -16.45886,8.46107 -24.57856,12.93543 -8.13189,4.46219 -16.33695,8.75369 -24.18843,13.8864 -7.85149,5.13273 -15.39819,10.99696 -22.93268,16.88558 -7.54669,5.90081 -15.12995,11.96011 -22.2865,18.48268 -7.15655,6.53478 -14.22778,13.50846 -20.65283,20.71377 -6.42505,7.21752 -12.48434,14.7886 -17.88528,22.53036 -5.38875,7.74175 -10.39957,15.6542 -14.4716,23.94458 -4.05987,8.29039 -7.26629,16.94653 -9.9119,25.83432 -2.63341,8.88778 -5.35217,18.09255 -5.91299,27.50456 -0.57302,9.39986 0.39012,19.79941 2.4993,28.90665 2.09699,9.10722 5.29123,17.88529 10.10696,25.74896 4.82794,7.86368 11.69189,15.49571 18.82406,21.44529 7.14436,5.96175 15.56886,10.59462 24.01773,14.28872 8.44889,3.6941 17.32447,6.36408 26.67555,7.88806 9.35107,1.52396 19.77501,1.65809 29.41869,1.25574 9.63147,-0.40231 19.23856,-1.73123 28.40676,-3.6819 9.156,-1.96288 17.94626,-4.85231 26.59019,-8.07092 8.64397,-3.23083 17.14159,-6.81521 25.27351,-11.26519 8.13188,-4.44999 15.89804,-9.78998 23.53006,-15.45912 7.63204,-5.66917 15.30064,-11.82599 22.23774,-18.56803 6.94931,-6.75423 13.36216,-14.45942 19.39708,-21.94516 6.03489,-7.48573 11.69187,-15.10556 16.8246,-22.96923 5.13273,-7.8515 9.88752,-15.86147 13.93516,-24.16405 4.04767,-8.30259 7.52232,-16.8368 10.3508,-25.63925 2.82848,-8.81463 5.10834,-17.84871 6.63231,-27.18759 1.53616,-9.35107 2.92602,-19.40926 2.56028,-28.88225 -0.37795,-9.47298 -1.92631,-19.16542 -4.79137,-27.95566 -2.86507,-8.80244 -10.37518,-22.27433 -12.4112,-24.79802 -2.02382,-2.52371 -0.82904,3.46245 0.20727,9.64367 1.0363,6.18122 5.21806,17.95844 6.02271,27.43142 0.79248,9.48519 -0.10973,19.92133 -1.23136,29.44307 -1.10945,9.52176 -2.99917,18.71434 -5.46191,27.67527 -2.46273,8.96093 -5.69354,17.59268 -9.32668,26.06595 -3.63315,8.47326 -7.82709,16.72708 -12.47215,24.77363 -4.64506,8.05874 -9.81438,15.89804 -15.41038,23.55445 -5.60819,7.65642 -11.60654,15.20312 -18.19009,22.39624 -6.58352,7.19313 -13.94735,14.49598 -21.32335,20.78694 -7.37602,6.27873 -15.04463,11.85036 -22.93267,16.90994 -7.88805,5.04739 -15.9468,9.69244 -24.3835,13.39874 -8.44889,3.70628 -17.16598,6.75423 -26.28539,8.82682 -9.11943,2.0726 -18.98256,3.62096 -28.45556,3.59655 -9.47296,-0.0243 -19.73843,-0.53643 -28.38238,-3.73066 -8.65614,-3.20644 -17.11722,-8.92435 -23.53007,-15.45914 -6.40067,-6.53477 -11.99668,-14.97147 -14.91051,-23.74953 -2.90162,-8.77805 -2.76751,-19.3483 -2.53588,-28.88224 0.23164,-9.53394 1.69465,-19.26297 3.92576,-28.32143 2.23108,-9.05846 5.7545,-17.5805 9.48516,-26.00497 3.71848,-8.4367 8.07095,-16.61736 12.89888,-24.60296 4.82792,-7.97341 10.28984,-15.69076 16.06871,-23.27404 5.7667,-7.58328 11.93572,-15.00805 18.55585,-22.24993 6.6201,-7.22971 13.89859,-14.64228 21.17706,-21.16488 7.26629,-6.52258 14.88612,-12.22832 22.48158,-17.98284 7.60764,-5.74231 15.22749,-11.43585 23.10335,-16.50761 7.87589,-5.05959 15.98338,-9.58271 24.18843,-13.8864 8.19285,-4.30367 16.5442,-8.22945 24.98088,-11.93571 8.44889,-3.70631 16.98311,-7.19315 25.67583,-10.30204 8.69271,-3.1089 17.56829,-5.75451 26.46827,-8.36354 8.89997,-2.60902 17.77557,-5.26683 26.93159,-7.27848 9.14379,-1.99945 18.55583,-3.36492 27.95565,-4.76696 9.39984,-1.40207 18.78749,-2.82848 28.41897,-3.64534 9.64367,-0.80464 19.54337,-1.0241 29.43087,-1.23135 9.89969,-0.19507 20.04322,-0.19507 29.93073,0 9.89972,0.19507 19.71407,0.59739 29.4431,1.19478 9.729,0.59739 19.47019,1.18258 28.94319,2.40177 9.47298,1.21918 18.73872,2.91384 27.90689,4.91329 9.15603,1.98724 26.11474,2.85286 27.07788,7.03463 0.96315,4.18178 -14.03271,11.9601 -21.28678,18.06817 -7.26628,6.09587 -14.97148,12.04545 -22.26213,18.53146 -7.29066,6.49819 -14.52039,13.4231 -21.48186,20.40897 -6.94931,6.98587 -13.64257,14.30093 -20.26268,21.53062 -6.62013,7.24192 -13.10614,14.53257 -19.45804,21.88419 -6.3397,7.35164 -12.5453,14.7642 -18.6046,22.22557 -6.0593,7.47352 -12.00887,14.98364 -17.75119,22.57909 -5.75448,7.59546 -11.28954,15.28845 -16.75145,23.00584 -5.47409,7.70517 -10.74094,15.50789 -16.08091,23.27404 -5.35219,7.76614 -10.70436,15.52008 -15.99559,23.31061 -5.29121,7.77835 -10.59462,15.56887 -15.7761,23.39597 -5.1815,7.8393 -10.26545,15.71516 -15.31284,23.60322 -5.0352,7.88806 -9.89969,15.84927 -14.95927,23.73732 -5.07176,7.87588 -10.2045,15.72737 -15.42257,23.54226 -5.21805,7.81492 -10.55804,15.58105 -15.88583,23.35938 -5.3278,7.77834 -10.57025,15.58106 -16.05653,23.28625 -5.49848,7.70519 -11.27736,15.27626 -16.88558,22.93268 -5.60818,7.6564 -10.96038,15.42255 -16.77584,22.99362 -5.81545,7.57109 -11.91134,15.02023 -18.11692,22.43283 -6.19343,7.41258 -12.59408,14.73982 -19.08009,22.03048 -6.49821,7.29066 -13.1427,14.73982 -19.88474,21.68912 -6.74204,6.9371 -13.56942,13.25243 -20.57967,19.97006 -7.01026,6.72986 -14.14243,14.04491 -21.50624,20.37241 -7.35162,6.32753 -14.97147,12.02107 -22.62788,17.62927 -7.65642,5.60822 -15.36161,11.09449 -23.29842,16.03216 -7.93684,4.92545 -16.06873,9.38763 -24.31036,13.5694 -8.2538,4.18179 -16.51982,8.31477 -25.16375,11.5212 -8.65613,3.19426 -17.67804,5.51068 -26.76089,7.68081 -9.08286,2.17012 -18.23885,4.13299 -27.72403,5.33999 -9.47299,1.20698 -19.54336,2.17012 -29.13827,1.87752 -9.58271,-0.30479 -19.22637,-1.74342 -28.40677,-3.66972 -9.16819,-1.93854 -18.202277,-4.23058 -26.651157,-7.9125 C 77.565902,781.50709 69.104829,776.95958 61.960467,771.01001 54.828296,765.04825 48.0253,757.35525 43.19737,749.49157 38.369437,741.61571 34.687529,732.8986 32.980685,723.77918 c -1.706844,-9.10724 -1.450816,-19.73844 -0.03658,-28.96759 1.414244,-9.22917 4.803549,-17.97063 8.522031,-26.40731 3.730673,-8.43669 8.302579,-16.50763 13.825441,-24.20063 5.535053,-7.70517 12.374622,-15.30064 19.3483,-21.96952 6.961487,-6.68107 14.678863,-12.72818 22.445004,-18.05598 7.778339,-5.32778 15.849279,-9.93627 24.176239,-13.91078 8.33916,-3.97451 16.9953,-7.14436 25.83432,-9.92407 8.82682,-2.77972 17.79995,-5.20589 27.151,-6.72985 9.35108,-1.51178 19.21419,-2.15793 28.9554,-2.35301 9.72902,-0.20727 19.97009,-0.0488 29.45526,1.15822 9.47299,1.21916 22.77419,5.48629 27.40706,6.10806 4.63287,0.62178 4.7182,-0.56083 0.37794,-2.36521 -4.34027,-1.81656 -17.28791,-6.46162 -26.41952,-8.49763 -9.1316,-2.03603 -18.66556,-3.1089 -28.38238,-3.73067 -9.72901,-0.62178 -20.31145,-0.80466 -29.96731,-0.0123 -9.65588,0.78027 -18.83625,2.66999 -27.98007,4.7182 -9.13162,2.03604 -18.12912,4.4134 -26.82184,7.51012 -8.69272,3.10889 -17.15378,6.76642 -25.33445,11.09449 -8.192853,4.32808 -16.105296,9.31448 -23.773905,14.88611 -7.668608,5.57163 -15.593244,11.6797 -22.27432,18.53147 -6.668886,6.83957 -12.728183,14.65446 -17.775565,22.54253 -5.035193,7.87587 -9.229152,16.12969 -12.472157,24.76144 -3.243004,8.63177 -6.242175,17.70241 -6.998062,27.0413 -0.755889,9.33887 0.316984,19.86034 2.438349,28.96757 2.133555,9.09504 5.449709,17.82434 10.314216,25.66364 4.864508,7.83928 11.813804,15.17871 18.860632,21.37212 7.046829,6.19341 15.190916,11.49681 23.395962,15.78832 8.192852,4.30367 16.934334,7.30285 25.797735,9.99723 8.863395,2.69437 18.068175,4.54752 27.370475,6.16903 9.3145,1.63369 18.7387,2.97477 28.46772,3.57218 9.72903,0.5974 20.1042,0.41451 29.91855,0.0244 9.81435,-0.39015 19.48241,-1.15822 28.96761,-2.3652 9.47297,-1.20699 18.77527,-2.84067 27.9069,-4.8767 9.13161,-2.03602 18.09253,-4.51094 26.89499,-7.35163 8.80243,-2.84067 17.37323,-6.22997 25.91964,-9.68024 8.54642,-3.45025 17.08064,-6.94931 25.38322,-11.00914 8.29039,-4.07206 16.34912,-8.69272 24.38349,-13.41093 8.02216,-4.70601 16.03215,-9.47298 23.7739,-14.87393 7.74175,-5.38874 15.12996,-11.63093 22.68885,-17.49516 7.54669,-5.86421 15.25186,-11.33832 22.60349,-17.67802 7.36382,-6.33971 14.55695,-13.36216 21.53063,-20.33584 6.97368,-6.97368 13.83761,-14.22777 20.31144,-21.51843 6.47381,-7.29066 12.37463,-14.82517 18.55584,-22.24993 6.16904,-7.42478 12.59408,-14.73982 18.49488,-22.27433 5.90082,-7.53448 11.44805,-15.21529 16.92215,-22.92047 5.47409,-7.71738 10.72874,-15.52011 15.92241,-23.34722 5.1937,-7.82708 10.1801,-15.73952 15.2275,-23.62759 5.04738,-7.88805 10.046,-15.8005 15.04462,-23.70075 5.0108,-7.91246 10.1801,-15.75173 14.98365,-23.73733 4.80354,-7.98559 9.13162,-16.16626 13.84981,-24.20062 4.70604,-8.02217 9.55834,-15.99556 14.42284,-23.95679 4.86451,-7.96121 9.88751,-15.86145 14.7886,-23.81046 4.88888,-7.94902 9.68024,-15.94681 14.58133,-23.89582 4.90108,-7.94901 9.85094,-15.88586 14.82517,-23.79831 4.97422,-7.91244 9.97283,-15.82488 15.04462,-23.70075 5.07174,-7.87586 10.1801,-15.73955 15.39816,-23.55445 5.23026,-7.81492 10.4971,-15.61764 15.93461,-23.34719 5.43753,-7.71739 10.96036,-15.41036 16.70269,-23.01803 5.73012,-7.59546 11.48462,-15.19091 17.69022,-22.60349 6.20561,-7.41257 12.67942,-14.81298 19.50681,-21.8476 6.83955,-7.03464 13.83761,-18.89722 21.48185,-20.38461 7.64421,-1.48739 16.67831,6.32753 24.39568,11.47243 7.71737,5.14492 15.64201,12.24053 21.90857,19.37268 6.25436,7.14436 11.58217,15.14217 15.6542,23.43255 4.07204,8.2904 7.02246,17.12939 8.77805,26.3098 1.74342,9.18038 2.36521,19.34829 1.73125,28.74812 -0.63399,9.39983 -2.75534,18.82408 -5.54725,27.6387 -2.79191,8.82683 -6.70547,17.17817 -11.20422,25.29787 -4.48656,8.11969 -9.82654,15.99555 -15.75173,23.40815 -5.9252,7.41257 -12.77696,14.48379 -19.77502,21.07954 -7.01025,6.59572 -14.55695,13.03296 -22.26212,18.51925 -7.70518,5.47409 -15.73955,10.18012 -23.98117,14.37406 -8.24163,4.19398 -16.78803,7.63204 -25.45637,10.7897 -8.66833,3.16986 -17.45891,6.03354 -26.54143,8.21724 -9.07099,2.18092 -18.36077,3.82821 -27.91911,4.85231 -9.55832,1.02413 -19.61649,1.26184 -29.40649,1.30453 -9.78994,0.0427 -35.46221,-5.87476 -38.74004,-3.7872 -3.26915,2.08203 14.55161,10.52923 19.12353,16.28373 5.20814,6.55529 14.22993,12.70288 17.69023,20.96982 3.46462,8.27728 2.75513,18.97035 3.06012,28.66279 0.3046,9.68024 -0.81685,19.61651 -1.21918,29.43086 -0.41451,9.80216 -1.01191,19.53118 -1.20697,29.43089 -0.20725,9.8997 -0.49987,20.16513 0,29.94292 0.48766,9.76559 1.54835,19.31174 2.97477,28.69937 1.43864,9.38764 3.42588,18.53145 5.60821,27.6143 2.18232,9.07066 4.44999,18.11693 7.47354,26.83405 3.03574,8.72928 6.72984,17.17816 10.71655,25.50513 3.98669,8.32696 8.47325,16.44666 13.22803,24.45662 4.74261,8.00999 9.60711,15.9712 15.25189,23.61543 5.63258,7.64422 11.88695,15.15434 18.56802,22.24993 6.69328,7.09561 14.13024,14.15462 21.5672,20.29926 7.43697,6.15685 15.19093,11.52121 23.06679,16.59297 7.87587,5.07176 15.91023,9.7534 24.20061,13.84981 8.2782,4.08425 16.78804,7.64424 25.50514,10.66779 8.72928,3.02354 17.81214,5.20586 26.85841,7.46134 9.03409,2.25549 17.93405,4.8889 27.40706,6.08369 9.48517,1.19479 19.70185,1.21918 29.47963,1.09726 9.77778,-0.12193 19.76282,-0.4511 29.17486,-1.82875 9.41203,-1.36548 18.50705,-3.48687 27.28514,-6.3885 8.77803,-2.90162 19.25074,-7.6564 25.3832,-11.00914 6.12026,-3.35272 13.69133,-9.44861 11.37489,-9.09503 -2.31643,0.35355 -16.51981,8.30256 -25.28568,11.2286 -8.76587,2.93822 -17.92187,4.93765 -27.30951,6.36407 -9.38765,1.41425 -19.43364,2.40179 -29.01636,2.19452 -9.58271,-0.21945 -19.25076,-1.69465 -28.47992,-3.49902 -9.22915,-1.80439 -18.21446,-4.23054 -26.89499,-7.33944 -8.69271,-3.12109 -17.06844,-6.99806 -25.22473,-11.37489 -8.16847,-4.37684 -16.15405,-9.18039 -23.76171,-14.91051 -7.60764,-5.73013 -15.14212,-12.50874 -21.88417,-19.45803 -6.72985,-6.94929 -12.94764,-14.58133 -18.53146,-22.24993 -5.58383,-7.66863 -10.50929,-15.60544 -14.97146,-23.73735 -4.44999,-8.13188 -8.11971,-16.59297 -11.74066,-25.06622 -3.62095,-8.47326 -7.04682,-17.04405 -9.99723,-25.79774 -2.9504,-8.75368 -5.6082,-17.62926 -7.71737,-26.73648 -2.09699,-9.10725 -3.27959,-18.59243 -4.90109,-27.90692 -1.62148,-9.31449 -3.53562,-18.49487 -4.79136,-27.95567 -1.26793,-9.44861 -1.76779,-19.22639 -2.77971,-28.78473 -1.02411,-9.5583 -2.37739,-18.97033 -3.32834,-28.55307 -0.96316,-9.5827 -0.7559,-19.64089 -2.38958,-28.9432 -1.63371,-9.3023 -3.46248,-18.53145 -7.41259,-26.87059 -3.95014,-8.33917 -13.49627,-17.33668 -16.32475,-23.15214 -2.82849,-5.81547 -5.37655,-9.36327 -0.65836,-11.71626 4.70601,-2.35301 19.37269,-1.38987 28.93102,-2.40177 9.55833,-1.02412 19.09229,-2.097 28.39457,-3.73069 9.30232,-1.62149 18.4461,-3.64532 27.43144,-6.0349 8.98532,-2.40179 17.82432,-5.14493 26.48047,-8.36355 8.64396,-3.20642 17.1294,-6.82738 25.40759,-10.92379 8.2782,-4.09644 16.4101,-8.55862 24.28597,-13.65477 7.86367,-5.08395 15.54447,-10.66777 22.94487,-16.86118 7.40039,-6.1934 15.23967,-13.04516 21.48185,-20.31146 6.24219,-7.27844 11.53339,-15.1909 15.99557,-23.3106 4.47437,-8.1319 8.30258,-16.51982 10.82626,-25.45637 2.53589,-8.93655 4.19397,-18.71433 4.34027,-28.15074 0.14631,-9.44861 -1.15822,-19.48242 -3.46245,-28.5043 -2.30423,-9.03409 -5.85205,-17.54392 -10.35079,-25.65145 -4.49876,-8.1197 -10.26547,-15.91022 -16.65392,-23.0302 -6.40067,-7.13218 -14.1912,-13.86202 -21.73789,-19.72626 -7.53451,-5.8642 -15.47134,-10.81407 -23.51789,-15.47132 -8.04654,-4.66943 -19.76281,-7.91244 -24.76144,-12.50873 -4.99861,-4.59628 -8.81462,-13.64255 -5.26684,-15.06899 3.56002,-1.42643 17.5927,4.42562 26.59022,6.52259 8.99749,2.10918 18.10474,4.47438 27.40704,6.09586 9.30229,1.63369 18.77529,2.86508 28.41896,3.68191 9.63147,0.81685 19.72624,1.53617 29.40649,1.23137 9.68025,-0.29259 19.37269,-1.41424 28.66278,-3.06012 9.30233,-1.64589 18.39737,-3.76726 27.11446,-6.80301 8.7171,-3.04792 17.22694,-6.58353 25.20034,-11.43585 7.97342,-4.84014 17.04404,-10.47272 22.64007,-17.65365 5.60816,-7.16875 11.76496,-17.50735 10.98476,-25.4076 -0.7802,-7.90025 -8.583,-17.09283 -15.66638,-21.99391 -7.08342,-4.91327 -17.50736,-6.01053 -26.85843,-7.42478 -9.36325,-1.41423 -19.76282,-1.67024 -29.30895,-1.07287 z m 8.31478,6.59574 c 0.79245,-0.0611 1.58491,-0.12191 2.37737,-0.18287 0.79247,-0.0488 1.59713,-0.0976 2.3896,-0.14631 0.79244,-0.0487 1.59711,-0.0853 2.38958,-0.10972 0.79245,-0.0366 1.5971,-0.0611 2.38957,-0.0732 0.79248,-0.0243 1.58494,-0.0243 2.3774,-0.0243 0.79246,0 1.58491,0 2.37738,0.0243 0.78028,0.0123 1.57275,0.0366 2.35301,0.0732 0.78028,0.0488 1.57275,0.0854 2.34083,0.14631 0.78025,0.0611 1.54834,0.1341 2.31643,0.20725 0.76807,0.0854 1.53616,0.18288 2.29203,0.28041 0.76809,0.10974 1.52397,0.23164 2.26767,0.36576 0.74369,0.1219 1.48739,0.26823 2.2311,0.42672 0.73151,0.17066 1.463,0.34136 2.1945,0.53643 0.73152,0.18288 1.45083,0.39013 2.17014,0.60959 0.73151,0.23164 1.43862,0.47547 2.15792,0.73149 0.71934,0.25604 1.43865,0.53644 2.15796,0.84125 0.7193,0.29258 1.42644,0.60956 2.14576,0.95095 0.71931,0.34137 1.4508,0.70711 2.17011,1.08507 0.70713,0.39012 1.43862,0.79246 2.14578,1.21917 0.70708,0.42671 1.42646,0.87779 2.10919,1.35328 0.68274,0.46329 1.36548,0.95096 2.02375,1.463 0.64621,0.51207 1.28013,1.0363 1.8898,1.58495 0.59742,0.5486 1.17024,1.12163 1.70687,1.70682 0.53633,0.58522 1.0484,1.1826 1.49951,1.8044 0.46332,0.62176 0.87782,1.25574 1.25572,1.91409 0.3657,0.64617 0.6829,1.31671 0.951,1.99945 0.2682,0.68274 0.4998,1.38986 0.6827,2.09698 0.1829,0.70712 0.3169,1.42644 0.4145,2.14575 0.097,0.7315 0.1464,1.4752 0.1708,2.2067 0.012,0.74371 -0.013,1.4996 -0.062,2.24328 -0.062,0.74369 -0.1584,1.49958 -0.2803,2.25548 -0.122,0.7559 -0.2804,1.51177 -0.4755,2.26765 -0.1829,0.74371 -0.4023,1.4996 -0.6583,2.24328 -0.2438,0.74372 -0.5244,1.48741 -0.8169,2.21891 -0.3048,0.7315 -0.6339,1.46301 -0.97536,2.17013 -0.35355,0.71931 -0.71932,1.42645 -1.10937,2.10918 -0.39024,0.69493 -0.80475,1.37766 -1.23148,2.03602 -0.42674,0.67054 -0.87775,1.3167 -1.34109,1.95066 -0.45107,0.6218 -0.92659,1.24358 -1.42635,1.84096 -0.4877,0.59742 -0.98758,1.1948 -1.51181,1.75561 -0.51204,0.57302 -1.04855,1.13383 -1.58496,1.68247 -0.54857,0.53644 -1.10944,1.07288 -1.6703,1.58493 -0.57297,0.52424 -1.15818,1.02411 -1.74337,1.52396 -0.58521,0.48767 -1.18261,0.97533 -1.79221,1.45082 -0.60957,0.4633 -1.23135,0.92659 -1.85312,1.37767 -0.63398,0.4511 -1.26795,0.89 -1.91412,1.31671 -0.63397,0.42671 -1.28013,0.84123 -1.93848,1.25575 -0.65835,0.41453 -1.31672,0.81685 -1.98727,1.20698 -0.65833,0.40234 -1.32889,0.78026 -2.01163,1.15821 -0.67055,0.37796 -1.35329,0.75589 -2.03602,1.12164 -0.68273,0.36574 -1.36548,0.71932 -2.04821,1.07289 -0.68274,0.35355 -1.37767,0.70711 -2.0604,1.0485 -0.69494,0.34134 -1.37767,0.67052 -2.0726,1.01191 -0.69494,0.32916 -1.38986,0.65833 -2.08477,0.97533 -0.69495,0.31698 -1.38988,0.63396 -2.08481,0.95096 -0.69492,0.30479 -1.38985,0.60959 -2.09699,0.91438 -0.69491,0.29259 -1.40203,0.58519 -2.09698,0.8778 -0.7071,0.2926 -1.41424,0.57301 -2.12136,0.85342 -0.70712,0.28042 -1.41423,0.54864 -2.12136,0.81685 -0.70712,0.26823 -1.41425,0.53644 -2.13357,0.79247 -0.7071,0.25601 -1.42642,0.51205 -2.14573,0.75588 -0.70711,0.24384 -1.42643,0.48768 -2.14574,0.71929 -0.71933,0.24386 -1.43865,0.47549 -2.17014,0.69495 -0.71931,0.23164 -1.45082,0.4511 -2.17013,0.67055 -0.73151,0.20725 -1.463,0.42672 -2.19452,0.62178 -0.7315,0.20726 -1.46301,0.41453 -2.1945,0.6096 -0.7315,0.19505 -1.47521,0.37795 -2.20673,0.56081 -0.74368,0.18287 -1.48738,0.36574 -2.23107,0.53644 -0.74369,0.18288 -1.48738,0.34136 -2.23107,0.51205 -0.7559,0.15849 -1.49961,0.31699 -2.25549,0.47547 -0.7437,0.1463 -1.49959,0.30481 -2.25548,0.4389 -0.75589,0.14632 -1.52398,0.28041 -2.27985,0.41452 -0.76809,0.13412 -1.52396,0.25604 -2.29205,0.39014 -0.76806,0.12192 -1.53617,0.23163 -2.30424,0.34137 -0.76809,0.12192 -1.54836,0.21945 -2.31645,0.32918 -0.78025,0.0976 -1.56053,0.19506 -2.3408,0.28041 -0.78028,0.0976 -1.56055,0.18287 -2.353,0.26823 -0.78028,0.0732 -1.57275,0.15848 -2.36522,0.23163 -0.78025,0.0611 -1.57273,0.13411 -2.37737,0.19508 -0.79247,0.0611 -1.58494,0.12189 -2.3774,0.17067 -0.80465,0.0488 -1.59712,0.0976 -2.40177,0.13411 -0.80466,0.0488 -1.59712,0.0853 -2.40177,0.10972 -0.80465,0.0366 -1.60932,0.0611 -2.41397,0.0853 -0.80465,0.0243 -1.60931,0.0366 -2.41397,0.0611 -0.81685,0.0123 -1.6215,0.0123 -2.42615,0.0243 h -2.42616 c -0.80465,-0.0122 -1.60932,-0.0243 -2.42617,-0.0366 -0.80465,-0.0122 -1.60931,-0.0366 -2.42613,-0.0611 -0.80466,-0.0123 -1.60931,-0.0487 -2.41399,-0.0732 -0.80465,-0.0366 -1.62149,-0.0732 -2.42615,-0.10972 -0.80466,-0.0488 -1.60931,-0.0854 -2.41397,-0.14631 -0.80465,-0.0487 -1.60931,-0.0976 -2.40176,-0.15848 -0.80465,-0.0611 -1.60933,-0.12193 -2.40179,-0.18288 -0.80465,-0.0732 -1.5971,-0.1463 -2.38958,-0.21947 -0.80465,-0.0732 -1.59711,-0.14629 -2.38957,-0.23164 -0.79247,-0.0853 -1.57273,-0.17067 -2.3652,-0.26821 -0.79246,-0.0853 -1.57274,-0.18288 -2.35301,-0.2804 -0.79246,-0.0976 -1.57274,-0.20727 -2.34081,-0.31699 -0.78027,-0.0976 -1.56055,-0.21945 -2.32863,-0.32917 -0.76809,-0.12194 -1.54835,-0.23166 -2.31643,-0.35358 -0.75588,-0.1219 -1.52398,-0.25601 -2.29205,-0.37795 -0.75591,-0.1341 -1.52398,-0.26821 -2.27986,-0.40231 -0.7559,-0.13413 -1.51179,-0.28043 -2.26768,-0.41452 -0.75586,-0.14632 -1.51175,-0.29262 -2.25544,-0.43891 -0.7559,-0.1463 -1.4996,-0.30478 -2.25549,-0.4511 -0.7437,-0.1585 -1.48738,-0.31698 -2.23109,-0.47547 -0.75588,-0.15849 -1.49959,-0.31698 -2.24328,-0.48768 -0.74371,-0.15848 -1.48739,-0.32918 -2.23109,-0.48768 -0.7315,-0.17066 -1.4752,-0.34135 -2.21889,-0.51202 -0.74371,-0.1707 -1.4874,-0.35358 -2.21892,-0.52425 -0.74369,-0.17069 -1.48738,-0.35358 -2.23107,-0.52424 -0.73152,-0.18289 -1.47519,-0.36578 -2.21891,-0.54865 -0.74368,-0.17067 -1.4752,-0.35356 -2.21889,-0.53643 -0.7437,-0.18288 -1.4874,-0.37794 -2.23109,-0.56082 -0.74369,-0.18288 -1.48739,-0.36575 -2.2311,-0.54864 -0.74368,-0.19506 -1.48739,-0.37793 -2.23108,-0.5608 -0.7437,-0.19508 -1.49958,-0.37796 -2.24329,-0.57301 -0.75589,-0.18288 -1.49957,-0.37796 -2.25548,-0.56084 -0.75588,-0.19505 -1.49957,-0.37794 -2.25545,-0.57301 -0.75589,-0.18286 -1.52397,-0.37793 -2.27986,-0.56082 -0.75589,-0.18287 -1.52398,-0.37793 -2.27986,-0.56081 -0.76809,-0.18288 -1.53616,-0.37795 -2.30424,-0.56083 -0.76808,-0.18287 -1.53617,-0.36576 -2.31644,-0.56081 -0.76806,-0.18288 -1.54835,-0.36575 -2.30425,-0.56081 -0.75588,-0.19508 -1.52395,-0.40234 -2.23106,-0.634 -0.71931,-0.23163 -1.43863,-0.47547 -2.07261,-0.75587 -0.64617,-0.28042 -1.31671,-0.59741 -1.79218,-0.95097 -0.46329,-0.34136 -0.87781,-0.73149 -1.0241,-1.14602 -0.14631,-0.42669 -0.0244,-0.88999 0.13409,-1.35328 0.1707,-0.4511 0.49986,-0.92658 0.82905,-1.37766 0.34137,-0.46329 0.75588,-0.91437 1.19479,-1.36549 0.45109,-0.45108 0.96315,-0.90218 1.51177,-1.34108 0.53646,-0.43891 1.13383,-0.8778 1.74342,-1.3167 0.6096,-0.43892 1.25575,-0.86563 1.91411,-1.29235 0.67054,-0.43888 1.35327,-0.8656 2.04822,-1.28013 0.69491,-0.4267 1.40204,-0.84122 2.09698,-1.25575 0.69492,-0.41452 1.40205,-0.82903 2.09697,-1.24356 0.69493,-0.4145 1.38986,-0.81684 2.0726,-1.21917 0.69492,-0.40233 1.37766,-0.80465 2.0604,-1.20698 0.68274,-0.40233 1.36547,-0.79246 2.04823,-1.19479 0.67053,-0.39013 1.35326,-0.78028 2.02382,-1.17039 0.67054,-0.39015 1.35328,-0.78029 2.02382,-1.17041 0.67055,-0.37795 1.32891,-0.75589 1.99945,-1.14605 0.67055,-0.37794 1.32889,-0.75587 1.99946,-1.13382 0.65834,-0.37794 1.32889,-0.74368 1.98724,-1.12164 0.67054,-0.36575 1.32891,-0.74371 1.98725,-1.10946 0.65837,-0.36574 1.3289,-0.73148 1.98728,-1.09724 0.65834,-0.36576 1.31668,-0.7315 1.97506,-1.09725 0.67052,-0.36575 1.3289,-0.71932 1.98723,-1.08509 0.65837,-0.35356 1.32891,-0.71929 1.98727,-1.07287 0.67054,-0.35355 1.3289,-0.7071 1.99944,-1.06068 0.65836,-0.35355 1.32892,-0.70713 1.98725,-1.06068 0.67055,-0.35355 1.34109,-0.70712 2.01165,-1.04848 0.65833,-0.35356 1.32889,-0.69493 1.99944,-1.03631 0.67056,-0.35356 1.34108,-0.69492 2.01164,-1.03631 0.68274,-0.34134 1.35329,-0.68273 2.02383,-1.02409 0.67055,-0.32916 1.35328,-0.67055 2.02382,-1.01192 0.67056,-0.32917 1.35329,-0.65835 2.02384,-0.99973 0.68274,-0.32918 1.36547,-0.65834 2.03602,-0.98751 0.68273,-0.32917 1.36547,-0.64617 2.04823,-0.97534 0.68272,-0.3292 1.36546,-0.64616 2.04819,-0.96316 0.68274,-0.32916 1.36549,-0.64615 2.04822,-0.96314 0.69492,-0.31699 1.37766,-0.62177 2.06039,-0.93877 0.69494,-0.3048 1.37769,-0.62179 2.07261,-0.92657 0.68273,-0.30478 1.37768,-0.60958 2.07259,-0.91438 0.69495,-0.3048 1.37769,-0.6096 2.0726,-0.90219 0.69492,-0.30478 1.38987,-0.59739 2.08479,-0.89 0.70713,-0.29261 1.40205,-0.58521 2.09699,-0.87781 0.69491,-0.28041 1.40205,-0.57301 2.09698,-0.85341 0.70711,-0.28041 1.41424,-0.57301 2.10917,-0.84123 0.70712,-0.28041 1.41424,-0.56082 2.12135,-0.82906 0.70713,-0.28041 1.41425,-0.54861 2.12139,-0.81685 0.7071,-0.26821 1.41422,-0.53642 2.12134,-0.79245 0.71931,-0.26821 1.42645,-0.52424 2.14577,-0.78027 0.70711,-0.25603 1.42641,-0.51206 2.13353,-0.76808 0.71932,-0.24384 1.43863,-0.49986 2.15795,-0.7437 0.71933,-0.24381 1.43864,-0.48767 2.15794,-0.71931 0.71932,-0.24383 1.43863,-0.47547 2.17013,-0.71931 0.71931,-0.23165 1.45082,-0.46329 2.17012,-0.68275 0.73151,-0.23164 1.46303,-0.45107 2.18234,-0.67054 0.7315,-0.21945 1.46301,-0.43891 2.19449,-0.65835 0.73151,-0.20727 1.46304,-0.4267 2.20672,-0.63397 0.7315,-0.20726 1.46301,-0.40233 2.2067,-0.60959 0.73153,-0.19505 1.4752,-0.39014 2.21891,-0.58521 0.74368,-0.19507 1.47519,-0.39013 2.21889,-0.573 0.74371,-0.18289 1.4996,-0.36575 2.24329,-0.54862 0.74371,-0.18289 1.48739,-0.35359 2.24328,-0.52425 0.74369,-0.18289 1.49958,-0.34137 2.25547,-0.51206 0.7437,-0.1585 1.49959,-0.32918 2.25546,-0.47547 0.7559,-0.1585 1.51179,-0.31698 2.27988,-0.46329 0.75589,-0.14631 1.51175,-0.29262 2.27985,-0.43892 0.75588,-0.14629 1.52396,-0.28041 2.29204,-0.4145 0.7559,-0.13411 1.52397,-0.26823 2.29205,-0.39014 0.76807,-0.12193 1.53616,-0.24384 2.31643,-0.36575 0.76808,-0.10971 1.53615,-0.23166 2.31644,-0.34138 0.78028,-0.10974 1.54835,-0.20726 2.32861,-0.31699 0.78029,-0.0976 1.56055,-0.19505 2.34081,-0.28041 0.78028,-0.0976 1.56056,-0.18286 2.35302,-0.26821 0.78027,-0.0854 1.57274,-0.15849 2.35301,-0.23164 0.79247,-0.0732 1.58493,-0.1463 2.37739,-0.21946 z"
     fill="currentColor"
     fill-rule="evenodd"
     id="path1"
     style="stroke-width:1.21917"
     sodipodi:nodetypes="cssssccccccsscccccscccccccscccsccccccsscccccscsscccccsccccccccsccccscsccccccccccsscccsscscscccccsccssccscccsscccsscccccccccsscscccsscscccccccccccccsscsscccccscccscccccccscccccccccscscccccsccsscsscscsscssscccccsscscsscscscssscccscsscscsccsccscsssssssccccccsccccsccccscscscccsccscscsscscccssscccccscscccscccccscccccccccsccccccsccscccccccccscscsccccccsscccscccccccccccccccsccssccscccssccccccsccccccccccccccccscccscccccccsccccccsccccccscccsscccccscscsccccccccsccsscscsccccssccccccccccccsccccsccccccscccscccccccsssccccccscscccccc" />
</svg>
