<?xml version="1.0" encoding="UTF-8" standalone="no"?>
<svg
   viewBox="0 0 1024 1024"
   version="1.1"
   id="svg1"
   sodipodi:docname="R_monogram.watch.svg"
   inkscape:version="1.4.3 (0d15f75, 2025-12-25)"
   xmlns:inkscape="http://www.inkscape.org/namespaces/inkscape"
   xmlns:sodipodi="http://sodipodi.sourceforge.net/DTD/sodipodi-0.dtd"
   xmlns:xlink="http://www.w3.org/1999/xlink"
   xmlns="http://www.w3.org/2000/svg"
   xmlns:svg="http://www.w3.org/2000/svg">
  <defs
     id="defs1" />
  <sodipodi:namedview
     id="namedview1"
     pagecolor="#ffffff"
     bordercolor="#000000"
     borderopacity="0.25"
     inkscape:showpageshadow="2"
     inkscape:pageopacity="0.0"
     inkscape:pagecheckerboard="0"
     inkscape:deskcolor="#d1d1d1"
     inkscape:zoom="1.3535156"
     inkscape:cx="512"
     inkscape:cy="512"
     inkscape:window-width="3840"
     inkscape:window-height="1620"
     inkscape:window-x="288"
     inkscape:window-y="288"
     inkscape:window-maximized="0"
     inkscape:current-layer="svg1" />
  <path
     sodipodi:type="inkscape:offset"
     inkscape:radius="1.4776366"
     inkscape:original="M 871.15625 192.00195 C 867.085 191.8657 862.99508 191.93469 859.08008 192.17969 C 851.24008 192.66969 843.61961 194.4 836.09961 196 C 828.57961 197.6 821.19922 199.52906 813.94922 201.78906 C 806.69922 204.04906 799.63961 206.76906 792.59961 209.53906 C 785.55961 212.30906 778.58094 215.21086 771.71094 218.38086 C 764.84094 221.55086 758.06914 224.97031 751.36914 228.57031 C 744.67914 232.16031 738.3693 238.02945 731.5293 239.93945 C 724.6893 241.83945 717.53031 241 710.32031 240 C 703.10031 239 695.62977 235.92094 688.25977 233.96094 C 680.88977 231.99094 673.51984 230.02922 666.08984 228.19922 C 658.65984 226.37922 651.21945 224.57977 643.68945 223.00977 C 636.14945 221.44977 628.44086 220.31078 620.88086 218.80078 C 613.32086 217.29078 605.93008 215.37094 598.33008 213.96094 C 590.73008 212.55094 582.97953 211.48984 575.26953 210.33984 C 567.56953 209.18984 559.82984 208.09906 552.08984 207.03906 C 544.33984 205.98906 536.5593 205.01953 528.7793 204.01953 C 521.0093 203.01953 513.29094 201.89055 505.46094 201.06055 C 497.62094 200.22055 489.65977 199.66023 481.75977 198.99023 C 473.84977 198.32023 465.99953 197.5293 458.01953 197.0293 C 450.03953 196.5293 442.00063 196.17 433.89062 196 C 425.77062 195.82 417.40008 195.72047 409.33008 195.98047 C 401.25008 196.24047 393.33969 196.90055 385.42969 197.56055 C 377.50969 198.22055 369.58937 198.84945 361.85938 199.93945 C 354.12937 201.03945 346.48906 202.35063 339.03906 204.14062 C 331.59906 205.93062 324.34922 208.19945 317.19922 210.68945 C 310.04922 213.18945 302.92062 215.73914 296.14062 219.11914 C 289.35062 222.49914 282.66 226.36023 276.5 230.99023 C 270.34 235.62023 263.91016 240.93039 259.16016 246.90039 C 254.42016 252.88039 250.03953 259.63984 248.01953 266.83984 C 245.99953 274.04984 245.3493 282.93086 247.0293 290.13086 C 248.7193 297.34086 256.55039 307.95031 258.15039 310.07031 C 259.75039 312.19031 257.43914 307.86984 256.61914 302.83984 C 255.80914 297.80984 252.13953 287.12016 253.26953 279.91016 C 254.39953 272.69016 258.78086 265.5393 263.38086 259.5293 C 267.99086 253.5193 274.71039 248.43961 280.90039 243.84961 C 287.10039 239.25961 293.78906 235.45047 300.53906 231.98047 C 307.28906 228.52047 314.25016 225.56031 321.41016 223.07031 C 328.56016 220.59031 336.0407 218.88055 343.4707 217.06055 C 350.9007 215.24055 358.32023 213.40039 365.99023 212.15039 C 373.66023 210.90039 381.5707 210.25078 389.4707 209.55078 C 397.3707 208.86078 405.35914 208.40047 413.36914 207.98047 C 421.37914 207.55047 429.46953 207 437.51953 207 C 445.56953 207.01 453.61016 207.66 461.66016 208 C 469.71016 208.33 477.83078 208.49 485.80078 209 C 493.78078 209.5 501.62953 210.30953 509.51953 211.01953 C 517.40953 211.72953 525.37062 212.27977 533.14062 213.25977 C 540.92062 214.23977 548.46945 215.78039 556.18945 216.90039 C 563.90945 218.02039 571.7707 218.8007 579.4707 219.9707 C 587.1707 221.1407 594.77063 222.55945 602.39062 223.93945 C 610.00063 225.31945 617.59039 226.75 625.15039 228.25 C 632.72039 229.75 640.26953 231.26945 647.76953 232.93945 C 655.25953 234.59945 662.69914 236.40023 670.11914 238.24023 C 677.53914 240.09023 685.1193 241.82953 692.2793 244.01953 C 699.4493 246.21953 713.07961 249.74063 713.09961 251.39062 C 713.11961 253.05062 699.65992 254.24922 692.41992 253.94922 C 685.17992 253.65922 677.29016 250.94914 669.66016 249.61914 C 662.02016 248.28914 654.39914 246.9407 646.61914 245.9707 C 638.82914 245.0007 630.87094 244.47055 622.96094 243.81055 C 615.04094 243.15055 607.21039 242.30023 599.15039 241.99023 C 591.09039 241.69023 582.77961 241.99 574.59961 242 C 566.40961 242 558.09078 241.65977 550.05078 242.00977 C 542.01078 242.35977 534.14961 243.15008 526.34961 244.08008 C 518.54961 245.02008 510.90953 246.32063 503.26953 247.64062 C 495.62953 248.96062 488.01953 250.33 480.51953 252 C 473.02953 253.67 465.66055 255.65016 458.31055 257.66016 C 450.96055 259.68016 443.60016 261.66031 436.41016 264.07031 C 429.23016 266.49031 422.18922 269.25039 415.19922 272.15039 C 408.21922 275.05039 401.32953 278.17023 394.51953 281.49023 C 387.70953 284.81023 381.01938 288.42961 374.35938 292.09961 C 367.68937 295.75961 360.95953 299.28023 354.51953 303.49023 C 348.07953 307.70023 341.89094 312.50984 335.71094 317.33984 C 329.52094 322.17984 323.29969 327.15 317.42969 332.5 C 311.55969 337.86 305.76023 343.58023 300.49023 349.49023 C 295.22023 355.41023 290.25031 361.6207 285.82031 367.9707 C 281.40031 374.3207 277.28922 380.80938 273.94922 387.60938 C 270.61922 394.40938 267.99031 401.51078 265.82031 408.80078 C 263.66031 416.09078 261.4307 423.63938 260.9707 431.35938 C 260.5007 439.06937 261.28953 447.60031 263.01953 455.07031 C 264.73953 462.54031 267.36055 469.73945 271.31055 476.18945 C 275.27055 482.63945 280.9 488.8993 286.75 493.7793 C 292.61 498.6693 299.51922 502.47 306.44922 505.5 C 313.37922 508.53 320.66008 510.7207 328.33008 511.9707 C 336.00008 513.2207 344.55094 513.33 352.46094 513 C 360.36094 512.67 368.23977 511.58047 375.75977 509.98047 C 383.26977 508.37047 390.48031 505.99937 397.57031 503.35938 C 404.66031 500.70938 411.63078 497.76914 418.30078 494.11914 C 424.97078 490.46914 431.33961 486.08945 437.59961 481.43945 C 443.85961 476.78945 450.14984 471.74094 455.83984 466.21094 C 461.53984 460.67094 466.8 454.35094 471.75 448.21094 C 476.7 442.07094 481.34078 435.81914 485.55078 429.36914 C 489.76078 422.92914 493.66047 416.36078 496.98047 409.55078 C 500.30047 402.74078 503.1507 395.73953 505.4707 388.51953 C 507.7907 381.28953 509.66016 373.8807 510.91016 366.2207 C 512.17016 358.5507 513.30977 350.2993 513.00977 342.5293 C 512.69977 334.7593 511.43008 326.80961 509.08008 319.59961 C 506.73008 312.37961 500.57039 301.32977 498.90039 299.25977 C 497.24039 297.18977 498.22031 302.09992 499.07031 307.16992 C 499.92031 312.23992 503.34977 321.89992 504.00977 329.66992 C 504.65977 337.44992 503.92 346.01031 503 353.82031 C 502.09 361.63031 500.53953 369.16953 498.51953 376.51953 C 496.49953 383.86953 493.84914 390.95039 490.86914 397.90039 C 487.88914 404.85039 484.45063 411.6207 480.64062 418.2207 C 476.83062 424.8307 472.59 431.25906 468 437.53906 C 463.4 443.81906 458.48008 450.01016 453.08008 455.91016 C 447.68008 461.81016 441.63984 467.80094 435.58984 472.96094 C 429.53984 478.11094 423.2493 482.68008 416.7793 486.83008 C 410.3093 490.97008 403.6993 494.78031 396.7793 497.82031 C 389.8493 500.86031 382.7007 503.36055 375.2207 505.06055 C 367.7407 506.76055 359.65086 508.02977 351.88086 508.00977 C 344.11086 507.98977 335.68961 507.56922 328.59961 504.94922 C 321.49961 502.31922 314.56078 497.62953 309.30078 492.26953 C 304.05078 486.90953 299.46031 479.98906 297.07031 472.78906 C 294.69031 465.58906 294.80023 456.91961 294.99023 449.09961 C 295.18023 441.27961 296.38094 433.29914 298.21094 425.86914 C 300.04094 418.43914 302.93023 411.44906 305.99023 404.53906 C 309.04023 397.61906 312.61031 390.90937 316.57031 384.35938 C 320.53031 377.81937 325.01 371.48953 329.75 365.26953 C 334.48 359.04953 339.5407 352.95953 344.9707 347.01953 C 350.4007 341.08953 356.36984 335.01016 362.33984 329.66016 C 368.29984 324.31016 374.5493 319.63016 380.7793 314.91016 C 387.0193 310.20016 393.27047 305.52914 399.73047 301.36914 C 406.19047 297.21914 412.84031 293.51047 419.57031 289.98047 C 426.29031 286.45047 433.14055 283.22945 440.06055 280.18945 C 446.99055 277.14945 453.98914 274.29023 461.11914 271.74023 C 468.24914 269.19023 475.53008 267.02086 482.83008 264.88086 C 490.13008 262.74086 497.40992 260.56016 504.91992 258.91016 C 512.41992 257.27016 520.13961 256.15 527.84961 255 C 535.55961 253.85 543.26016 252.67977 551.16016 252.00977 C 559.07016 251.34977 567.19078 251.17 575.30078 251 C 583.42078 250.84 591.73961 250.84 599.84961 251 C 607.96961 251.16 616.02 251.49047 624 251.98047 C 631.98 252.47047 639.97023 252.94922 647.74023 253.94922 C 655.51023 254.94922 663.11086 256.34047 670.63086 257.98047 C 678.14086 259.61047 692.04984 260.32 692.83984 263.75 C 693.62984 267.18 681.33086 273.56031 675.38086 278.57031 C 669.42086 283.57031 663.09914 288.44953 657.11914 293.76953 C 651.13914 299.09953 645.21 304.77977 639.5 310.50977 C 633.8 316.23977 628.31086 322.23992 622.88086 328.16992 C 617.45086 334.10992 612.12992 340.08914 606.91992 346.11914 C 601.71992 352.14914 596.63016 358.22961 591.66016 364.34961 C 586.69016 370.47961 581.80961 376.63914 577.09961 382.86914 C 572.37961 389.09914 567.83938 395.41023 563.35938 401.74023 C 558.86937 408.06023 554.54992 414.46008 550.16992 420.83008 C 545.77992 427.20008 541.39078 433.55922 537.05078 439.94922 C 532.71078 446.32922 528.35938 452.72062 524.10938 459.14062 C 519.85938 465.57063 515.69078 472.03 511.55078 478.5 C 507.42078 484.97 503.4293 491.5007 499.2793 497.9707 C 495.1193 504.4307 490.91086 510.8693 486.63086 517.2793 C 482.35086 523.6893 477.96961 530.05945 473.59961 536.43945 C 469.22961 542.81945 464.92969 549.21906 460.42969 555.53906 C 455.91969 561.85906 451.18008 568.06961 446.58008 574.34961 C 441.98008 580.62961 437.59031 587.00094 432.82031 593.21094 C 428.05031 599.42094 423.05094 605.52937 417.96094 611.60938 C 412.88094 617.68938 407.63055 623.69969 402.31055 629.67969 C 396.98055 635.65969 391.53 641.7707 386 647.4707 C 380.47 653.1607 374.86914 658.33961 369.11914 663.84961 C 363.36914 669.36961 357.52047 675.37055 351.48047 680.56055 C 345.45047 685.75055 339.19992 690.41953 332.91992 695.01953 C 326.63992 699.61953 320.32055 704.11992 313.81055 708.16992 C 307.30055 712.20992 300.62914 715.87078 293.86914 719.30078 C 287.09914 722.73078 280.32047 726.12 273.23047 728.75 C 266.13047 731.37 258.7293 733.27078 251.2793 735.05078 C 243.8293 736.83078 236.31906 738.43969 228.53906 739.42969 C 220.76906 740.41969 212.51062 741.2107 204.64062 740.9707 C 196.78062 740.7207 188.86984 739.54094 181.33984 737.96094 C 173.81984 736.37094 166.41047 734.4907 159.48047 731.4707 C 152.54047 728.4507 145.60023 724.71984 139.74023 719.83984 C 133.89023 714.94984 128.30961 708.63945 124.34961 702.18945 C 120.38961 695.72945 117.3707 688.57961 115.9707 681.09961 C 114.5707 673.62961 114.77945 664.90984 115.93945 657.33984 C 117.09945 649.76984 119.87969 642.59969 122.92969 635.67969 C 125.98969 628.75969 129.73953 622.14008 134.26953 615.83008 C 138.80953 609.51008 144.42062 603.28055 150.14062 597.81055 C 155.85063 592.33055 162.18078 587.37 168.55078 583 C 174.93078 578.63 181.55086 574.84984 188.38086 571.58984 C 195.22086 568.32984 202.32031 565.72922 209.57031 563.44922 C 216.81031 561.16922 224.16984 559.17969 231.83984 557.92969 C 239.50984 556.68969 247.59984 556.16 255.58984 556 C 263.56984 555.83 271.97 555.95922 279.75 556.94922 C 287.52 557.94922 298.43047 561.45094 302.23047 561.96094 C 306.03047 562.47094 306.09906 561.49953 302.53906 560.01953 C 298.97906 558.52953 288.35914 554.72078 280.86914 553.05078 C 273.37914 551.38078 265.55984 550.50023 257.58984 549.99023 C 249.60984 549.48023 240.92977 549.33047 233.00977 549.98047 C 225.08977 550.62047 217.56055 552.16961 210.06055 553.84961 C 202.57055 555.51961 195.19055 557.46977 188.06055 560.00977 C 180.93055 562.55977 173.9893 565.55937 167.2793 569.10938 C 160.5593 572.65937 154.0693 576.75031 147.7793 581.32031 C 141.4893 585.89031 134.98977 590.89953 129.50977 596.51953 C 124.03977 602.12953 119.06969 608.53977 114.92969 615.00977 C 110.79969 621.46977 107.35922 628.24031 104.69922 635.32031 C 102.03922 642.40031 99.580938 649.84 98.960938 657.5 C 98.340937 665.16 99.220937 673.78977 100.96094 681.25977 C 102.71094 688.71977 105.42992 695.88055 109.41992 702.31055 C 113.40992 708.74055 119.11062 714.75984 124.89062 719.83984 C 130.67063 724.91984 137.35008 729.26906 144.08008 732.78906 C 150.80008 736.31906 157.97023 738.78023 165.24023 740.99023 C 172.51023 743.20023 180.05945 744.72078 187.68945 746.05078 C 195.32945 747.39078 203.05906 748.49047 211.03906 748.98047 C 219.01906 749.47047 227.53008 749.32 235.58008 749 C 243.63008 748.68 251.55984 748.05055 259.33984 747.06055 C 267.10984 746.07055 274.74047 744.73055 282.23047 743.06055 C 289.72047 741.39055 297.06906 739.3593 304.28906 737.0293 C 311.50906 734.6993 318.54078 731.91984 325.55078 729.08984 C 332.56078 726.25984 339.55914 723.39055 346.36914 720.06055 C 353.16914 716.72055 359.77914 712.93055 366.36914 709.06055 C 372.94914 705.20055 379.51914 701.28938 385.86914 696.85938 C 392.21914 692.43938 398.28047 687.31977 404.48047 682.50977 C 410.67047 677.69977 416.98953 673.20977 423.01953 668.00977 C 429.05953 662.80977 434.95969 657.05008 440.67969 651.33008 C 446.39969 645.61008 452.02984 639.65969 457.33984 633.67969 C 462.64984 627.69969 467.49055 621.51969 472.56055 615.42969 C 477.62055 609.33969 482.89047 603.34016 487.73047 597.16016 C 492.57047 590.98016 497.11937 584.67938 501.60938 578.35938 C 506.09938 572.02937 510.40992 565.63094 514.66992 559.21094 C 518.92992 552.79094 523.02016 546.30008 527.16016 539.83008 C 531.30016 533.36008 535.4 526.87063 539.5 520.39062 C 543.61 513.90062 547.84906 507.46992 551.78906 500.91992 C 555.72906 494.36992 559.28039 487.66031 563.15039 481.07031 C 567.01039 474.49031 570.99047 467.94992 574.98047 461.41992 C 578.97047 454.88992 583.08937 448.41062 587.10938 441.89062 C 591.11937 435.37063 595.05031 428.80906 599.07031 422.28906 C 603.09031 415.76906 607.15047 409.25953 611.23047 402.76953 C 615.31047 396.27953 619.41031 389.79008 623.57031 383.33008 C 627.73031 376.87008 631.91922 370.41977 636.19922 364.00977 C 640.48922 357.59977 644.80953 351.19938 649.26953 344.85938 C 653.72953 338.52938 658.2607 332.22047 662.9707 325.98047 C 667.6707 319.75047 672.39047 313.51945 677.48047 307.43945 C 682.57047 301.35945 687.88047 295.28953 693.48047 289.51953 C 699.09047 283.74953 704.82961 274.02078 711.09961 272.80078 C 717.36961 271.58078 724.77938 277.99094 731.10938 282.21094 C 737.43938 286.43094 743.94008 292.24961 749.08008 298.09961 C 754.21008 303.95961 758.57992 310.52031 761.91992 317.32031 C 765.25992 324.12031 767.67914 331.37039 769.11914 338.90039 C 770.54914 346.43039 771.05906 354.77047 770.53906 362.48047 C 770.01906 370.19047 768.28023 377.92039 765.99023 385.15039 C 763.70023 392.39039 760.49078 399.24039 756.80078 405.90039 C 753.12078 412.56039 748.74086 419.01961 743.88086 425.09961 C 739.02086 431.17961 733.40016 436.98062 727.66016 442.39062 C 721.91016 447.80063 715.72039 453.08008 709.40039 457.58008 C 703.08039 462.07008 696.49047 465.92914 689.73047 469.36914 C 682.97047 472.80914 675.95961 475.6307 668.84961 478.2207 C 661.73961 480.8207 654.53008 483.17094 647.08008 484.96094 C 639.64008 486.75094 632.01969 488.09945 624.17969 488.93945 C 616.33969 489.77945 608.09055 489.96977 600.06055 490.00977 C 592.03055 490.03977 574.24664 484.50484 571.55664 486.21484 C 568.87664 487.92484 580.2207 495.53977 583.9707 500.25977 C 587.7207 504.96977 595.64047 510.68094 598.48047 517.46094 C 601.32047 524.25094 600.74023 533.0207 600.99023 540.9707 C 601.24023 548.9107 600.32023 557.05938 599.99023 565.10938 C 599.65023 573.14937 599.16 581.13 599 589.25 C 598.83 597.37 598.59 605.79055 599 613.81055 C 599.4 621.82055 600.26945 629.64961 601.43945 637.34961 C 602.61945 645.04961 604.24906 652.55 606.03906 660 C 607.82906 667.44 609.68992 674.85977 612.16992 682.00977 C 614.65992 689.16977 617.69094 696.09969 620.96094 702.92969 C 624.23094 709.75969 627.91055 716.42023 631.81055 722.99023 C 635.70055 729.56023 639.69031 736.08937 644.32031 742.35938 C 648.94031 748.62937 654.07078 754.78937 659.55078 760.60938 C 665.04078 766.42938 671.14023 772.21977 677.24023 777.25977 C 683.34023 782.30977 689.70016 786.70914 696.16016 790.86914 C 702.62016 795.02914 709.20977 798.87047 716.00977 802.23047 C 722.79977 805.58047 729.77969 808.50047 736.92969 810.98047 C 744.08969 813.46047 751.54094 815.24961 758.96094 817.09961 C 766.37094 818.94961 773.66945 821.10984 781.43945 822.08984 C 789.21945 823.06984 797.59914 823.09023 805.61914 822.99023 C 813.63914 822.89023 821.83078 822.62023 829.55078 821.49023 C 837.27078 820.37023 844.72969 818.63 851.92969 816.25 C 859.12969 813.87 867.72 809.9707 872.75 807.2207 C 877.77 804.4707 883.98008 799.46977 882.08008 799.75977 C 880.18008 800.04977 868.52984 806.5707 861.33984 808.9707 C 854.14984 811.3807 846.63945 813.01945 838.93945 814.18945 C 831.23945 815.34945 823.00063 816.16023 815.14062 815.99023 C 807.28062 815.81023 799.3493 814.59914 791.7793 813.11914 C 784.2093 811.63914 776.8407 809.64961 769.7207 807.09961 C 762.5907 804.53961 755.7193 801.35953 749.0293 797.76953 C 742.3293 794.17953 735.77906 790.23906 729.53906 785.53906 C 723.29906 780.83906 717.11984 775.28008 711.58984 769.58008 C 706.06984 763.88008 700.97063 757.62008 696.39062 751.33008 C 691.81062 745.04008 687.76937 738.52937 684.10938 731.85938 C 680.45938 725.18938 677.45047 718.25078 674.48047 711.30078 C 671.51047 704.35078 668.6993 697.32062 666.2793 690.14062 C 663.8593 682.96063 661.67922 675.68094 659.94922 668.21094 C 658.22922 660.74094 657.25969 652.96031 655.92969 645.32031 C 654.59969 637.68031 653.03 630.15063 652 622.39062 C 650.96 614.64062 650.5507 606.6193 649.7207 598.7793 C 648.8807 590.9393 647.77023 583.21937 646.99023 575.35938 C 646.20023 567.49937 646.3693 559.24914 645.0293 551.61914 C 643.6893 543.98914 642.18922 536.42008 638.94922 529.58008 C 635.70922 522.74008 627.88055 515.35984 625.56055 510.58984 C 623.24055 505.81984 621.14953 502.91047 625.01953 500.98047 C 628.87953 499.05047 640.91 499.83977 648.75 499.00977 C 656.59 498.16977 664.40906 497.28922 672.03906 495.94922 C 679.66906 494.61922 687.16906 492.96 694.53906 491 C 701.90906 489.03 709.15977 486.78062 716.25977 484.14062 C 723.34977 481.51063 730.30961 478.53969 737.09961 475.17969 C 743.88961 471.81969 750.55953 468.16047 757.01953 463.98047 C 763.46953 459.81047 769.76984 455.23039 775.83984 450.15039 C 781.90984 445.07039 788.34094 439.45023 793.46094 433.49023 C 798.58094 427.52023 802.92008 421.02914 806.58008 414.36914 C 810.25008 407.69914 813.39094 400.82023 815.46094 393.49023 C 817.54094 386.16023 818.89953 378.14039 819.01953 370.40039 C 819.13953 362.65039 818.06969 354.41953 816.17969 347.01953 C 814.28969 339.60953 811.37945 332.63047 807.68945 325.98047 C 803.99945 319.32047 799.2693 312.92984 794.0293 307.08984 C 788.7793 301.23984 782.38922 295.72016 776.19922 290.91016 C 770.01922 286.10016 763.51016 282.0407 756.91016 278.2207 C 750.31016 274.3907 740.69961 271.73094 736.59961 267.96094 C 732.49961 264.19094 729.3693 256.76961 732.2793 255.59961 C 735.1993 254.42961 746.70984 259.22922 754.08984 260.94922 C 761.46984 262.67922 768.94031 264.61922 776.57031 265.94922 C 784.20031 267.28922 791.97086 268.3007 799.88086 268.9707 C 807.78086 269.6407 816.06 270.23047 824 269.98047 C 831.94 269.74047 839.88977 268.8207 847.50977 267.4707 C 855.13977 266.1207 862.6 264.38062 869.75 261.89062 C 876.9 259.39062 883.87992 256.48977 890.41992 252.50977 C 896.95992 248.53977 904.40023 243.9193 908.99023 238.0293 C 913.59023 232.1493 918.64 223.66945 918 217.18945 C 917.36 210.70945 910.96039 203.17039 905.15039 199.15039 C 899.34039 195.12039 890.78914 194.22055 883.11914 193.06055 C 879.27914 192.48055 875.2275 192.1382 871.15625 192.00195 z M 875.67969 197.15039 C 876.32969 197.15039 876.98086 197.14992 877.63086 197.16992 C 878.27086 197.17992 878.92055 197.20047 879.56055 197.23047 C 880.20055 197.27047 880.85047 197.29961 881.48047 197.34961 C 882.12047 197.39961 882.75086 197.45953 883.38086 197.51953 C 884.01086 197.58953 884.63977 197.67 885.25977 197.75 C 885.88977 197.84 886.50914 197.94078 887.11914 198.05078 C 887.72914 198.15078 888.33922 198.27039 888.94922 198.40039 C 889.54922 198.54039 890.15 198.67984 890.75 198.83984 C 891.35 198.98984 891.9393 199.15984 892.5293 199.33984 C 893.1293 199.52984 893.71078 199.72945 894.30078 199.93945 C 894.89078 200.14945 895.48031 200.38086 896.07031 200.63086 C 896.66031 200.87086 897.24008 201.13016 897.83008 201.41016 C 898.42008 201.69016 899.01938 201.99078 899.60938 202.30078 C 900.18938 202.62078 900.78914 202.95078 901.36914 203.30078 C 901.94914 203.65078 902.53961 204.02016 903.09961 204.41016 C 903.65961 204.79016 904.21977 205.18937 904.75977 205.60938 C 905.28977 206.02937 905.81055 206.46016 906.31055 206.91016 C 906.80055 207.36016 907.27094 207.83055 907.71094 208.31055 C 908.15094 208.79055 908.56945 209.27906 908.93945 209.78906 C 909.31945 210.29906 909.6607 210.81937 909.9707 211.35938 C 910.2707 211.88938 910.53 212.44 910.75 213 C 910.97 213.56 911.16055 214.1407 911.31055 214.7207 C 911.46055 215.3007 911.57039 215.89047 911.65039 216.48047 C 911.73039 217.08047 911.76906 217.68906 911.78906 218.28906 C 911.79906 218.89906 911.78023 219.52086 911.74023 220.13086 C 911.69023 220.74086 911.60977 221.36047 911.50977 221.98047 C 911.40977 222.60047 911.27914 223.21984 911.11914 223.83984 C 910.96914 224.44984 910.79008 225.06969 910.58008 225.67969 C 910.38008 226.28969 910.15016 226.9 909.91016 227.5 C 909.66016 228.1 909.38938 228.6993 909.10938 229.2793 C 908.81938 229.8693 908.51922 230.44977 908.19922 231.00977 C 907.87922 231.57977 907.53945 232.13969 907.18945 232.67969 C 906.83945 233.22969 906.46984 233.7593 906.08984 234.2793 C 905.71984 234.7893 905.32992 235.29906 904.91992 235.78906 C 904.51992 236.27906 904.10969 236.77047 903.67969 237.23047 C 903.25969 237.70047 902.82086 238.15937 902.38086 238.60938 C 901.93086 239.04937 901.46977 239.49016 901.00977 239.91016 C 900.53977 240.34016 900.06008 240.75016 899.58008 241.16016 C 899.10008 241.56016 898.60937 241.95961 898.10938 242.34961 C 897.60938 242.72961 897.09984 243.11047 896.58984 243.48047 C 896.06984 243.85047 895.54953 244.21055 895.01953 244.56055 C 894.49953 244.91055 893.96969 245.24984 893.42969 245.58984 C 892.88969 245.92984 892.35078 246.26008 891.80078 246.58008 C 891.26078 246.91008 890.71039 247.2193 890.15039 247.5293 C 889.60039 247.8393 889.04047 248.14922 888.48047 248.44922 C 887.92047 248.74922 887.36078 249.04008 886.80078 249.33008 C 886.24078 249.62008 885.66937 249.90945 885.10938 250.18945 C 884.53937 250.46945 883.98016 250.73953 883.41016 251.01953 C 882.84016 251.28953 882.26922 251.56031 881.69922 251.82031 L 879.99023 252.59961 C 879.42023 252.84961 878.84953 253.09961 878.26953 253.34961 C 877.69953 253.58961 877.12078 253.83031 876.55078 254.07031 C 875.97078 254.31031 875.39055 254.53953 874.81055 254.76953 C 874.23055 254.99953 873.65031 255.21945 873.07031 255.43945 C 872.49031 255.65945 871.91031 255.87984 871.32031 256.08984 C 870.74031 256.29984 870.15055 256.51094 869.56055 256.71094 C 868.98055 256.91094 868.39078 257.11078 867.80078 257.30078 C 867.21078 257.50078 866.61953 257.68914 866.01953 257.86914 C 865.42953 258.05914 864.83023 258.23992 864.24023 258.41992 C 863.64023 258.58992 863.03945 258.76969 862.43945 258.92969 C 861.83945 259.09969 861.24062 259.26969 860.64062 259.42969 C 860.04062 259.58969 859.43008 259.74063 858.83008 259.89062 C 858.22008 260.04062 857.61 260.19008 857 260.33008 C 856.39 260.48008 855.77992 260.61 855.16992 260.75 C 854.54992 260.88 853.94031 261.01063 853.32031 261.14062 C 852.71031 261.26063 852.0907 261.39 851.4707 261.5 C 850.8507 261.62 850.21961 261.72984 849.59961 261.83984 C 848.96961 261.94984 848.3507 262.05016 847.7207 262.16016 C 847.0907 262.26016 846.46008 262.34945 845.83008 262.43945 C 845.20008 262.53945 844.55969 262.62094 843.92969 262.71094 C 843.28969 262.79094 842.64977 262.86945 842.00977 262.93945 C 841.36977 263.01945 840.73008 263.09016 840.08008 263.16016 C 839.44008 263.22016 838.79062 263.28961 838.14062 263.34961 C 837.50063 263.39961 836.84945 263.45977 836.18945 263.50977 C 835.53945 263.55977 834.89023 263.61039 834.24023 263.65039 C 833.58023 263.69039 832.92953 263.72977 832.26953 263.75977 C 831.60953 263.79977 830.96078 263.82961 830.30078 263.84961 C 829.64078 263.87961 828.98031 263.89992 828.32031 263.91992 C 827.66031 263.93992 826.99984 263.9507 826.33984 263.9707 C 825.66984 263.9807 825.00961 263.98023 824.34961 263.99023 L 822.35938 263.99023 C 821.69938 263.98023 821.03914 263.97094 820.36914 263.96094 C 819.70914 263.95094 819.05086 263.93016 818.38086 263.91016 C 817.72086 263.90016 817.06039 263.86961 816.40039 263.84961 C 815.74039 263.81961 815.07016 263.78977 814.41016 263.75977 C 813.75016 263.71977 813.08969 263.69063 812.42969 263.64062 C 811.76969 263.60062 811.11094 263.55977 810.46094 263.50977 C 809.80094 263.45977 809.14023 263.40937 808.49023 263.35938 C 807.83023 263.29937 807.1793 263.23969 806.5293 263.17969 C 805.8693 263.11969 805.22031 263.06023 804.57031 262.99023 C 803.92031 262.92023 803.28086 262.84953 802.63086 262.76953 C 801.98086 262.69953 801.33922 262.61906 800.69922 262.53906 C 800.04922 262.45906 799.4093 262.3693 798.7793 262.2793 C 798.1393 262.1993 797.49914 262.09977 796.86914 262.00977 C 796.23914 261.90977 795.6007 261.8207 794.9707 261.7207 C 794.3507 261.6207 793.71984 261.51016 793.08984 261.41016 C 792.46984 261.30016 791.8407 261.19008 791.2207 261.08008 C 790.6007 260.97008 789.97938 260.85023 789.35938 260.74023 C 788.73937 260.62023 788.11977 260.50086 787.50977 260.38086 C 786.88977 260.26086 786.28016 260.12977 785.66016 260.00977 L 783.83008 259.61914 C 783.21008 259.48914 782.60023 259.3607 781.99023 259.2207 C 781.38023 259.0907 780.77016 258.95031 780.16016 258.82031 C 779.56016 258.68031 778.94984 258.54039 778.33984 258.40039 C 777.72984 258.26039 777.11953 258.1107 776.51953 257.9707 C 775.90953 257.8307 775.29945 257.67906 774.68945 257.53906 C 774.08945 257.38906 773.47914 257.23984 772.86914 257.08984 C 772.25914 256.94984 771.66078 256.80039 771.05078 256.65039 C 770.44078 256.50039 769.8307 256.33945 769.2207 256.18945 L 767.39062 255.74023 C 766.78062 255.58023 766.17055 255.4293 765.56055 255.2793 C 764.95055 255.1193 764.3307 254.97055 763.7207 254.81055 C 763.1007 254.66055 762.48914 254.49961 761.86914 254.34961 C 761.24914 254.18961 760.63953 254.04086 760.01953 253.88086 C 759.39953 253.73086 758.77039 253.56992 758.15039 253.41992 C 757.53039 253.26992 756.8993 253.11094 756.2793 252.96094 C 755.6493 252.81094 755.02063 252.65 754.39062 252.5 C 753.76063 252.35 753.13023 252.19906 752.49023 252.03906 C 751.86023 251.88906 751.21961 251.74008 750.59961 251.58008 C 749.97961 251.42008 749.34953 251.25055 748.76953 251.06055 C 748.17953 250.87055 747.59031 250.66945 747.07031 250.43945 C 746.54031 250.20945 745.98961 249.95016 745.59961 249.66016 C 745.21961 249.38016 744.87977 249.0607 744.75977 248.7207 C 744.63977 248.3707 744.73914 247.98937 744.86914 247.60938 C 745.00914 247.23937 745.28078 246.85047 745.55078 246.48047 C 745.83078 246.10047 746.1693 245.72938 746.5293 245.35938 C 746.8993 244.98937 747.31953 244.61977 747.76953 244.25977 C 748.20953 243.89977 748.69922 243.53969 749.19922 243.17969 C 749.69922 242.81969 750.22953 242.46914 750.76953 242.11914 C 751.31953 241.75914 751.87922 241.41031 752.44922 241.07031 C 753.01922 240.72031 753.59992 240.37906 754.16992 240.03906 C 754.73992 239.69906 755.32062 239.35953 755.89062 239.01953 C 756.46063 238.67953 757.02984 238.34953 757.58984 238.01953 C 758.15984 237.68953 758.7193 237.3593 759.2793 237.0293 C 759.8393 236.6993 760.40094 236.38078 760.96094 236.05078 C 761.51094 235.73078 762.06914 235.40984 762.61914 235.08984 C 763.16914 234.76984 763.7293 234.45086 764.2793 234.13086 C 764.8293 233.82086 765.36992 233.50945 765.91992 233.18945 C 766.46992 232.87945 767.01055 232.56977 767.56055 232.25977 C 768.10055 231.94977 768.64945 231.64984 769.18945 231.33984 C 769.73945 231.03984 770.28031 230.72969 770.82031 230.42969 C 771.36031 230.12969 771.90922 229.8293 772.44922 229.5293 L 774.07031 228.63086 C 774.62031 228.33086 775.15922 228.04023 775.69922 227.74023 C 776.23922 227.45023 776.79008 227.14938 777.33008 226.85938 C 777.88008 226.56938 778.4207 226.28023 778.9707 225.99023 C 779.5107 225.70023 780.05961 225.40914 780.59961 225.11914 C 781.14961 224.82914 781.7 224.53977 782.25 224.25977 C 782.79 223.96977 783.34062 223.69016 783.89062 223.41016 C 784.44062 223.12016 784.98906 222.84055 785.53906 222.56055 C 786.09906 222.28055 786.64922 222.0007 787.19922 221.7207 C 787.74922 221.4507 788.30937 221.17063 788.85938 220.89062 C 789.40937 220.62062 789.96953 220.35031 790.51953 220.07031 C 791.07953 219.80031 791.63945 219.52977 792.18945 219.25977 C 792.74945 218.98977 793.30914 218.73094 793.86914 218.46094 C 794.42914 218.19094 794.99078 217.92992 795.55078 217.66992 C 796.11078 217.39992 796.67047 217.14086 797.23047 216.88086 C 797.80047 216.62086 798.35992 216.36937 798.91992 216.10938 C 799.48992 215.85938 800.04914 215.59961 800.61914 215.34961 C 801.17914 215.09961 801.75031 214.84961 802.32031 214.59961 C 802.89031 214.34961 803.44953 214.09938 804.01953 213.85938 C 804.58953 213.60938 805.16047 213.37086 805.73047 213.13086 C 806.31047 212.89086 806.87922 212.65016 807.44922 212.41016 C 808.01922 212.18016 808.59992 211.94094 809.16992 211.71094 C 809.74992 211.48094 810.33039 211.23953 810.90039 211.01953 C 811.48039 210.78953 812.06062 210.55984 812.64062 210.33984 C 813.22063 210.10984 813.80086 209.88992 814.38086 209.66992 C 814.96086 209.44992 815.53914 209.22953 816.11914 209.01953 C 816.70914 208.79953 817.29086 208.59086 817.88086 208.38086 C 818.46086 208.17086 819.05086 207.96 819.63086 207.75 C 820.22086 207.55 820.81039 207.34063 821.40039 207.14062 C 821.99039 206.94063 822.57992 206.74078 823.16992 206.55078 C 823.75992 206.35078 824.34922 206.16094 824.94922 205.96094 C 825.53922 205.77094 826.14047 205.58039 826.73047 205.40039 C 827.33047 205.21039 827.92953 205.02961 828.51953 204.84961 L 830.32031 204.31055 C 830.92031 204.14055 831.52086 203.95906 832.13086 203.78906 C 832.73086 203.61906 833.32945 203.45906 833.93945 203.28906 C 834.53945 203.12906 835.14977 202.97055 835.75977 202.81055 C 836.36977 202.65055 836.97008 202.48984 837.58008 202.33984 C 838.19008 202.18984 838.80992 202.04062 839.41992 201.89062 C 840.02992 201.74062 840.63977 201.60094 841.25977 201.46094 C 841.86977 201.31094 842.48937 201.17906 843.10938 201.03906 C 843.71938 200.90906 844.34094 200.77039 844.96094 200.65039 C 845.58094 200.52039 846.20008 200.38953 846.83008 200.26953 C 847.45008 200.14953 848.06922 200.03016 848.69922 199.91016 C 849.31922 199.79016 849.95008 199.68031 850.58008 199.57031 C 851.20008 199.46031 851.83094 199.35 852.46094 199.25 C 853.09094 199.15 853.71937 199.04922 854.35938 198.94922 C 854.98937 198.85922 855.61977 198.75992 856.25977 198.66992 C 856.89977 198.57992 857.52992 198.50016 858.16992 198.41016 C 858.80992 198.33016 859.44984 198.24969 860.08984 198.17969 C 860.72984 198.09969 861.36953 198.03094 862.01953 197.96094 C 862.65953 197.89094 863.30922 197.82953 863.94922 197.76953 L 865.90039 197.58984 L 867.84961 197.43945 C 868.49961 197.39945 869.16055 197.36031 869.81055 197.32031 C 870.46055 197.28031 871.11953 197.25047 871.76953 197.23047 C 872.41953 197.20047 873.08047 197.17992 873.73047 197.16992 C 874.38047 197.14992 875.02969 197.15039 875.67969 197.15039 z "
     xlink:href="#path1"
     id="path2"
     inkscape:href="#path1"
     d="m 871.20508,190.52539 c -4.12098,-0.13791 -8.25503,-0.0682 -12.2168,0.17969 -7.99665,0.49979 -15.68866,2.25245 -23.19531,3.84961 -7.56398,1.60935 -14.98927,3.55052 -22.2832,5.82422 -7.31141,2.27914 -14.40467,5.01259 -21.45118,7.78515 -7.05758,2.77692 -14.06262,5.68923 -20.96679,8.875 -6.90164,3.1846 -13.69986,6.61864 -20.42188,10.23047 v -0.002 c -6.94015,3.72423 -13.22562,9.48563 -19.53711,11.24804 -6.47514,1.79814 -13.42044,1.01857 -20.60937,0.0215 -6.94835,-0.96238 -14.38165,-4.00885 -21.88282,-6.00391 h -0.002 c -7.37039,-1.9701 -14.74814,-3.9353 -22.19531,-5.76953 a 1.4777843,1.4777843 0 0 0 -0.002,0 c -7.43281,-1.82069 -14.89072,-3.62482 -22.45118,-5.20117 a 1.4777843,1.4777843 0 0 0 -0.002,0 c -7.59593,-1.57157 -15.30759,-2.71077 -22.81836,-4.21094 -7.50549,-1.49911 -14.90272,-3.42121 -22.57031,-4.84375 -7.64643,-1.41861 -15.41307,-2.48065 -23.11133,-3.6289 -7.70806,-1.15121 -15.45345,-2.24417 -23.19726,-3.30469 a 1.4777843,1.4777843 0 0 0 -0.002,0 c -7.75982,-1.05133 -15.54472,-2.0201 -23.32031,-3.01953 h -0.002 c -7.75195,-0.9977 -15.48052,-2.12891 -23.34766,-2.96289 h -0.002 c -7.87552,-0.84376 -15.84724,-1.40548 -23.73242,-2.07422 -7.89448,-0.66869 -15.75674,-1.46059 -23.77344,-1.96289 -7.99708,-0.50107 -16.055,-0.86075 -24.1875,-1.03125 h -0.002 c -8.12982,-0.18021 -16.52431,-0.28096 -24.63867,-0.0195 -8.12936,0.26158 -16.06657,0.92398 -23.97656,1.58398 -7.91617,0.65968 -15.86393,1.29016 -23.6543,2.38867 a 1.4777843,1.4777843 0 0 0 -0.002,0 c -7.7577,1.10394 -15.44327,2.42126 -22.95703,4.22656 -7.50384,1.80536 -14.80077,4.09146 -21.98047,6.5918 a 1.4777843,1.4777843 0 0 0 -0.002,0 c -7.15663,2.50232 -14.3459,5.06982 -21.23047,8.50195 -6.84471,3.40732 -13.61422,7.31038 -19.86914,12.01172 -6.19899,4.65931 -12.71872,10.02755 -17.60742,16.17188 a 1.4777843,1.4777843 0 0 0 -0.002,0.002 c -4.80141,6.05748 -9.29918,12.95561 -11.40429,20.45899 -2.08282,7.4342 -2.76809,16.48138 -1.00782,24.02539 a 1.4777843,1.4777843 0 0 0 0,0.002 c 1.84796,7.88389 9.74947,18.33059 11.38086,20.49219 0.22117,0.29304 0.33186,0.47001 0.65039,0.74023 0.0796,0.0676 0.17476,0.14787 0.36914,0.24219 0.19439,0.0943 0.55994,0.2524 1.09375,0.0977 0.53381,-0.15475 0.90659,-0.66807 1.00782,-0.95899 0.10122,-0.29092 0.0889,-0.45187 0.0859,-0.57617 -0.012,-0.49719 -0.0959,-0.62089 -0.17773,-0.89258 -0.0818,-0.27169 -0.18436,-0.58164 -0.30469,-0.94336 -0.48103,-1.44602 -1.23164,-3.70228 -1.61719,-6.06445 v -0.004 c -0.43488,-2.69846 -1.5507,-6.57578 -2.41406,-10.71094 -0.86366,-4.13658 -1.44536,-8.49903 -0.93554,-11.75195 1.06282,-6.79078 5.29476,-13.79055 9.82617,-19.71094 h -0.002 c 4.43241,-5.77846 11.04492,-10.8068 17.22657,-15.39062 6.10528,-4.51988 12.72216,-8.29196 19.43359,-11.74219 6.68692,-3.42766 13.58477,-6.35999 20.68164,-8.82812 7.04719,-2.44434 14.48284,-4.14706 21.92774,-5.97071 7.43276,-1.82067 14.81416,-3.64941 22.40625,-4.88672 7.5904,-1.23702 15.46542,-1.88544 23.37109,-2.58593 7.87073,-0.68745 15.84273,-1.14667 23.84766,-1.56641 a 1.4777843,1.4777843 0 0 0 0.002,-0.002 c 8.02357,-0.43073 16.08635,-0.97648 24.06836,-0.97656 7.97168,0.01 15.99219,0.65644 24.08008,0.99804 a 1.4777843,1.4777843 0 0 0 0.002,0 c 8.0711,0.33087 16.1816,0.49088 24.10742,0.99805 a 1.4777843,1.4777843 0 0 0 0.002,0 c 7.94101,0.49756 15.775,1.30643 23.67774,2.01758 7.91049,0.71184 15.85455,1.26146 23.56836,2.23437 7.70707,0.97082 15.24639,2.50873 23.02148,3.63672 7.76455,1.12646 15.62269,1.90614 23.27149,3.06836 7.66736,1.16504 15.25369,2.57999 22.8789,3.96094 7.60333,1.37879 15.1856,2.80848 22.73633,4.30664 7.5671,1.49942 15.10566,3.01603 22.58594,4.68164 a 1.4777843,1.4777843 0 0 0 0,0.002 c 7.47078,1.65574 14.89846,3.4525 22.3125,5.29102 7.43765,1.8544 14.99418,3.58938 22.08398,5.75781 3.62469,1.11218 8.81615,2.54055 13.08008,3.88867 2.07963,0.65752 3.9073,1.29456 5.20703,1.84375 -1.24344,0.28504 -2.88089,0.5589 -4.8125,0.77149 -4.18923,0.46104 -9.33902,0.68217 -12.83984,0.53711 a 1.4777843,1.4777843 0 0 0 -0.002,0 c -6.91505,-0.27699 -14.76969,-2.94988 -22.56446,-4.3086 -7.63732,-1.32953 -15.28205,-2.68401 -23.11133,-3.66015 a 1.4777843,1.4777843 0 0 0 -0.002,0 c -7.84694,-0.97709 -15.8233,-1.5074 -23.7168,-2.16602 -7.89565,-0.65797 -15.74998,-1.51164 -23.87695,-1.82422 a 1.4777843,1.4777843 0 0 0 -0.002,0 c -8.13365,-0.30274 -16.46096,-0.002 -24.60547,0.008 -8.14908,0 -16.48747,-0.34201 -24.61328,0.0117 -8.09475,0.35239 -15.99433,1.14791 -23.8125,2.08008 a 1.4777843,1.4777843 0 0 0 -0.002,0 c -7.84694,0.94566 -15.51189,2.24991 -23.15429,3.57031 -7.64673,1.32117 -15.27865,2.69616 -22.81836,4.375 a 1.4777843,1.4777843 0 0 0 -0.002,0 c -7.53123,1.6792 -14.92313,3.66463 -22.27735,5.67578 a 1.4777843,1.4777843 0 0 0 0,0.002 c -7.34487,2.01859 -14.73164,4.00453 -21.97851,6.43359 a 1.4777843,1.4777843 0 0 0 -0.004,0 c -7.22518,2.43523 -14.2968,5.20782 -21.30469,8.11524 -7.0086,2.91188 -13.92661,6.04471 -20.76172,9.37695 -6.84759,3.33833 -13.55792,6.9689 -20.22461,10.64258 -6.65239,3.6503 -13.4172,7.188 -19.93554,11.44922 -6.50853,4.25479 -12.72805,9.09022 -18.91016,13.92187 -6.19822,4.84643 -12.44976,9.8392 -18.36719,15.23242 -5.89869,5.38621 -11.7337,11.13924 -17.04687,17.09766 a 1.4777843,1.4777843 0 0 0 0,0.002 c -5.30448,5.95874 -10.3093,12.21265 -14.77735,18.61719 a 1.4777843,1.4777843 0 0 0 -0.002,0.002 c -4.4442,6.38478 -8.59683,12.93329 -11.98437,19.83008 a 1.4777843,1.4777843 0 0 0 0,0.002 c -3.37362,6.88906 -6.03051,14.06865 -8.21875,21.41993 a 1.4777843,1.4777843 0 0 0 0,0.002 c -2.16007,7.29024 -4.43449,14.94346 -4.90821,22.88867 -0.48013,7.8763 0.32047,16.52005 2.08399,24.13477 1.74708,7.58692 4.41732,14.93783 8.4707,21.55664 a 1.4777843,1.4777843 0 0 0 0,0.002 c 4.06366,6.61884 9.78271,12.9717 15.75195,17.95117 6.0095,5.01475 13.03943,8.87218 20.05469,11.93946 7.03855,3.07745 14.44039,5.30596 22.23438,6.57617 7.82858,1.27584 16.46375,1.37929 24.43164,1.04687 7.99457,-0.33395 15.95103,-1.43547 23.54297,-3.05078 a 1.4777843,1.4777843 0 0 0 0.004,0 c 7.6112,-1.63169 14.88975,-4.02829 22.01563,-6.68164 a 1.4777843,1.4777843 0 0 0 0.002,0 c 7.12825,-2.66429 14.16472,-5.63043 20.92188,-9.32812 6.75918,-3.69881 13.18211,-8.11979 19.4707,-12.79102 6.29061,-4.67274 12.63068,-9.75744 18.38867,-15.35352 5.77695,-5.61479 11.07118,-11.98031 16.03125,-18.13281 4.97437,-6.17023 9.64588,-12.4607 13.88867,-18.96094 h -0.002 c 4.23312,-6.47536 8.16576,-13.09524 11.52148,-19.97851 3.34884,-6.86915 6.22564,-13.93781 8.56836,-21.22852 2.33898,-7.28914 4.22887,-14.76879 5.49219,-22.50976 v -0.002 c 1.26426,-7.69612 2.42429,-16.0325 2.11719,-23.98632 a 1.4777843,1.4777843 0 0 0 0,-0.002 c -0.31481,-7.89047 -1.60138,-15.96295 -4.00196,-23.32812 -1.22393,-3.76034 -3.37226,-8.35864 -5.4375,-12.32617 -2.06431,-3.96578 -3.90962,-7.13541 -4.99414,-8.48047 -0.27449,-0.34229 -0.47906,-0.65086 -1.09179,-0.9043 -0.30637,-0.12672 -0.81497,-0.20342 -1.28321,-0.0156 -0.46823,0.18779 -0.74591,0.55128 -0.88281,0.8164 -0.27379,0.53025 -0.25973,0.86356 -0.27148,1.23633 -0.0118,0.37277 0.01,0.76505 0.0488,1.20117 0.15646,1.74448 0.61846,4.22375 1.04101,6.74414 0.90656,5.40735 4.29162,14.93808 4.92383,22.38086 0.63449,7.59721 -0.0879,16.07539 -1.00391,23.85156 a 1.4777843,1.4777843 0 0 0 0,0.002 c -0.90032,7.72693 -2.43667,15.19313 -4.43945,22.48047 -1.99674,7.26536 -4.62023,14.28189 -7.58203,21.18945 -2.95473,6.89107 -6.36668,13.60961 -10.15039,20.16406 -3.7801,6.55812 -7.99231,12.94334 -12.55469,19.18555 -4.57631,6.24753 -9.46283,12.39486 -14.81641,18.24414 -5.36582,5.86266 -11.36955,11.81515 -17.35937,16.92383 -5.99316,5.10151 -12.22737,9.63138 -18.64844,13.75 -6.43184,4.11558 -12.9759,7.88436 -19.79687,10.88086 -6.86061,3.00956 -13.91989,5.47664 -21.29297,7.15234 -7.41047,1.6842 -15.40137,2.93169 -23.00781,2.91211 -7.71944,-0.0199 -15.99206,-0.46279 -22.77344,-2.96875 -6.85672,-2.54036 -13.64968,-7.12486 -18.75586,-12.32813 -5.10556,-5.21282 -9.58183,-11.97747 -11.88281,-18.9082 v -0.002 c -2.26422,-6.85123 -2.19554,-15.3828 -2.00586,-23.18945 0.18692,-7.69329 1.37255,-15.57495 3.17968,-22.91211 1.7951,-7.28828 4.64527,-14.19841 7.69532,-21.08594 a 1.4777843,1.4777843 0 0 0 0,-0.002 c 3.02031,-6.85265 6.56026,-13.5061 10.49218,-20.00977 v -0.002 c 3.92287,-6.47853 8.37303,-12.76489 13.0918,-18.95703 a 1.4777843,1.4777843 0 0 0 0,-0.002 c 4.70362,-6.1853 9.73602,-12.2406 15.13477,-18.14648 v -0.002 c 5.40519,-5.90286 11.34572,-11.95075 17.26562,-17.25585 5.89598,-5.29253 12.1101,-9.94717 18.34375,-14.66993 l 0.002,-0.002 c 6.23473,-4.70601 12.45747,-9.35312 18.85743,-13.47461 l 0.002,-0.002 c 6.40814,-4.11655 13.01784,-7.80445 19.72461,-11.32227 a 1.4777843,1.4777843 0 0 0 0.002,0 c 6.68162,-3.50983 13.49961,-6.71625 20.39649,-9.74609 6.90698,-3.0299 13.87397,-5.8768 20.96289,-8.41211 7.07987,-2.53207 14.33307,-4.69325 21.6289,-6.83203 7.30556,-2.14163 14.55128,-4.31092 21.99024,-5.94531 7.43046,-1.6248 15.11816,-2.74201 22.83203,-3.89258 7.71204,-1.15031 15.37932,-2.3139 23.21484,-2.97852 7.84801,-0.65483 15.9387,-0.83589 24.04688,-1.00586 8.10012,-0.15961 16.40016,-0.1596 24.49023,0 8.09917,0.15959 16.12996,0.48975 24.08985,0.97852 7.98145,0.49009 15.9386,0.96773 23.64062,1.95898 7.71891,0.99343 15.27817,2.37686 22.76563,4.00977 a 1.4777843,1.4777843 0 0 0 0.002,0 c 3.89635,0.84568 9.2392,1.42484 13.67578,2.2207 2.21829,0.39793 4.20926,0.85537 5.58008,1.36914 0.68541,0.25689 1.21154,0.53352 1.50976,0.75586 0.29823,0.22234 0.32284,0.3404 0.31641,0.3125 -0.007,-0.0287 0.0247,0.0721 -0.14453,0.39063 -0.16925,0.31853 -0.52255,0.78337 -1.0293,1.30078 -1.0135,1.03482 -2.61425,2.28533 -4.44531,3.58984 -3.66213,2.60903 -8.22925,5.44714 -11.35156,8.07617 -5.92788,4.97296 -12.2625,9.86166 -18.29297,15.22657 -6.00711,5.35416 -11.95723,11.05436 -17.6836,16.80078 -5.72922,5.75938 -11.23242,11.77541 -16.6621,17.70507 a 1.4777843,1.4777843 0 0 0 0,0.002 c -5.43884,5.94966 -10.76882,11.93756 -15.98829,17.97851 a 1.4777843,1.4777843 0 0 0 -0.002,0.002 c -5.20941,6.04091 -10.30782,12.13223 -15.28711,18.26367 a 1.4777843,1.4777843 0 0 0 -0.002,0.002 c -4.97693,6.13854 -9.86626,12.31063 -14.58985,18.5586 -4.73428,6.2489 -9.28542,12.5724 -13.76953,18.9082 -4.50307,6.33847 -8.82455,12.74323 -13.19922,19.10547 -4.3896,6.36943 -8.78084,12.73083 -13.125,19.12695 -4.33948,6.37924 -8.69438,12.77482 -12.95117,19.20508 a 1.4777843,1.4777843 0 0 0 0,0.002 c -4.25592,6.43898 -8.42825,12.90373 -12.57031,19.37695 a 1.4777843,1.4777843 0 0 0 -0.002,0.002 c -4.14032,6.48616 -8.13103,13.01668 -12.26953,19.46875 -4.15561,6.45314 -8.35897,12.88437 -12.63282,19.28515 -4.27245,6.3987 -8.65041,12.76298 -13.02148,19.14454 -4.37496,6.38724 -8.6697,12.77975 -13.1543,19.07812 -4.49154,6.29413 -9.2264,12.49923 -13.83789,18.79492 -4.61672,6.30283 -9.00087,12.66388 -13.74023,18.83399 -4.75132,6.18568 -9.73731,12.27795 -14.82032,18.34961 a 1.4777843,1.4777843 0 0 0 -0.002,0.002 c -5.06601,6.06326 -10.30504,12.06179 -15.61914,18.03516 -5.32977,5.97974 -10.76722,12.07469 -16.26758,17.74414 -5.49478,5.65376 -11.07966,10.82017 -16.84179,16.34179 a 1.4777843,1.4777843 0 0 0 -0.002,0 c -5.77484,5.54385 -11.60753,11.52589 -17.57812,16.65625 a 1.4777843,1.4777843 0 0 0 -0.002,0.002 c -5.97943,5.14648 -12.1962,9.79218 -18.46875,14.38671 -6.26942,4.59226 -12.56028,9.07069 -19.01757,13.0879 -6.46479,4.01183 -13.09742,7.65127 -19.82813,11.0664 -6.76456,3.42725 -13.49344,6.78814 -20.48242,9.38086 -7.00487,2.5849 -14.34932,4.47385 -21.7832,6.25 -7.42744,1.77461 -14.88473,3.37184 -22.58399,4.35156 -7.73703,0.9858 -15.92498,1.76514 -23.66406,1.5293 -7.74257,-0.24626 -15.57102,-1.41126 -23.04102,-2.97852 h -0.004 c -7.48022,-1.58169 -14.7911,-3.44524 -21.57227,-6.40039 -6.86138,-2.98578 -13.67951,-6.65918 -19.38281,-11.4082 l -0.002,-0.002 c -5.72372,-4.78483 -11.2157,-10.99959 -15.07617,-17.28711 v -0.002 c -3.88054,-6.33072 -6.825,-13.31866 -8.18555,-20.5879 -1.35675,-7.23922 -1.16173,-15.83536 -0.0234,-23.26367 1.12753,-7.35807 3.84942,-14.40908 6.88086,-21.28711 v -0.002 c 3.02026,-6.82983 6.72003,-13.35836 11.18945,-19.58398 h -0.002 c 4.47185,-6.22514 10.02951,-12.3962 15.69336,-17.8125 a 1.4777843,1.4777843 0 0 0 0.002,-0.002 c 5.63779,-5.41069 11.90624,-10.32496 18.22266,-14.6582 6.31411,-4.32487 12.86522,-8.06648 19.6289,-11.29492 6.75705,-3.22046 13.79145,-5.7981 20.99805,-8.06446 7.20066,-2.26761 14.49075,-4.23658 22.0625,-5.4707 7.57385,-1.22445 15.59828,-1.75301 23.54297,-1.91211 a 1.4777843,1.4777843 0 0 0 0.002,0 c 7.94134,-0.16917 16.27612,-0.0375 23.93946,0.9375 3.75527,0.48331 8.39288,1.59565 12.55273,2.65625 4.15985,1.06061 7.76282,2.06596 9.91992,2.35547 1.01188,0.13581 1.7973,0.18659 2.47852,0.12695 0.34061,-0.0298 0.65634,-0.0731 1.03906,-0.24804 0.38272,-0.1749 0.96546,-0.65969 1.05859,-1.37891 0.0931,-0.71922 -0.23529,-1.1849 -0.47851,-1.46875 -0.24322,-0.28385 -0.49498,-0.47428 -0.78125,-0.66601 -0.57154,-0.3828 -1.29817,-0.74292 -2.24024,-1.13477 -3.69816,-1.54783 -14.25176,-5.33759 -21.91796,-7.04688 -7.59552,-1.69352 -15.49111,-2.58076 -23.50782,-3.09375 -8.02968,-0.51317 -16.76876,-0.66652 -24.79492,-0.008 -8.03514,0.64946 -15.63423,2.21677 -23.15039,3.90039 -7.52726,1.67831 -14.96542,3.64106 -22.17383,6.20899 a 1.4777843,1.4777843 0 0 0 -0.002,0.002 c -7.18964,2.57133 -14.1964,5.5975 -20.97461,9.18359 -6.7866,3.58527 -13.33642,7.71499 -19.67773,12.32227 -6.3138,4.58729 -12.87768,9.63938 -18.45899,15.36328 -5.55045,5.69251 -10.57507,12.1756 -14.76562,18.72461 -4.18178,6.54099 -7.67069,13.40554 -10.36914,20.58789 -2.67445,7.11845 -5.188997,14.68371 -5.828129,22.58008 -0.636271,7.86102 0.26113,16.60716 2.033203,24.21484 a 1.4777843,1.4777843 0 0 0 0,0.002 c 1.779706,7.58662 4.552006,14.90011 8.642576,21.49218 4.10464,6.61474 9.89908,12.71533 15.75196,17.85938 5.88946,5.1762 12.65991,9.58299 19.47656,13.14844 6.85276,3.59974 14.11456,6.08648 21.41797,8.30664 7.36128,2.23775 14.96842,3.76723 22.62304,5.10156 7.67155,1.34553 15.4589,2.45451 23.51563,2.94922 8.06262,0.49507 16.61652,0.34239 24.68945,0.0215 8.08836,-0.32152 16.0598,-0.9552 23.88672,-1.95117 a 1.4777843,1.4777843 0 0 0 0.002,0 c 7.81552,-0.9958 15.4912,-2.34358 23.02539,-4.02344 7.53804,-1.68071 14.92945,-3.72349 22.18946,-6.0664 7.28,-2.34937 14.34468,-5.14193 21.36133,-7.97461 7.01492,-2.83199 14.04608,-5.71392 20.91406,-9.07227 a 1.4777843,1.4777843 0 0 0 0.004,-0.002 c 6.85692,-3.36796 13.49691,-7.17757 20.09571,-11.05274 v 0.002 c 6.58471,-3.86277 13.18886,-7.79418 19.5957,-12.26367 l 0.002,-0.002 c 6.42642,-4.4734 12.50529,-9.60849 18.67188,-14.39258 a 1.4777843,1.4777843 0 0 0 0,-0.002 c 6.15707,-4.78441 12.49959,-9.28818 18.59765,-14.54687 6.08828,-5.24157 12.01169,-11.02536 17.74024,-16.75391 5.7395,-5.7395 11.38952,-11.71098 16.7207,-17.71484 5.34956,-6.02456 10.1986,-12.2175 15.25,-18.28516 a 1.4777843,1.4777843 0 0 0 0.002,-0.002 c 5.04256,-6.06902 10.32246,-12.0783 15.19726,-18.30274 4.8635,-6.21 9.42556,-12.52934 13.91992,-18.85547 4.50366,-6.34926 8.82212,-12.76174 13.08594,-19.1875 4.27277,-6.43924 8.36758,-12.93613 12.50391,-19.40039 4.14306,-6.47478 8.2441,-12.96586 12.34375,-19.44531 4.10034,-6.47475 8.34553,-12.91491 12.30664,-19.5 3.96759,-6.59587 7.52103,-13.31056 11.36914,-19.86328 a 1.4777843,1.4777843 0 0 0 0.002,0 c 3.85192,-6.56623 7.82734,-13.10043 11.81641,-19.62891 3.98084,-6.51501 8.09786,-12.99188 12.125,-19.52343 a 1.4777843,1.4777843 0 0 0 0,-0.002 c 4.016,-6.52976 7.94752,-13.09029 11.96093,-19.59961 4.01733,-6.51565 8.07421,-13.02077 12.15235,-19.50781 4.07883,-6.48814 8.17665,-12.97295 12.33203,-19.42578 4.15765,-6.45636 8.34252,-12.89971 12.61523,-19.29883 v -0.002 c 4.28704,-6.40556 8.60059,-12.7958 13.04883,-19.11914 l 0.002,-0.002 c 4.45434,-6.32193 8.97641,-12.61715 13.67187,-18.83789 4.69885,-6.22847 9.40326,-12.4387 14.46289,-18.48242 5.07603,-6.06331 10.36331,-12.1065 15.92774,-17.83984 h -0.002 c 2.91879,-3.00204 5.75635,-6.88463 8.61133,-10.11719 2.85498,-3.23256 5.73532,-5.69419 8.23047,-6.17969 2.55163,-0.49649 5.66164,0.58942 8.96289,2.49414 3.30125,1.90473 6.71441,4.53943 9.94531,6.69336 6.19689,4.13126 12.62872,9.88387 17.68164,15.63477 5.04312,5.76112 9.34248,12.21943 12.62305,18.89844 3.28125,6.68038 5.6587,13.80309 7.07422,21.20507 1.40443,7.39631 1.90726,15.62985 1.39648,23.20313 -0.50958,7.5555 -2.21895,15.17797 -4.48242,22.32422 -2.2511,7.11702 -5.41635,13.87651 -9.07422,20.47851 a 1.4777843,1.4777843 0 0 0 0,0.002 c -3.63556,6.57957 -7.96959,12.97266 -12.78125,18.99218 -4.79928,6.00404 -10.37337,11.75811 -16.08008,17.13672 -5.71367,5.37577 -11.85738,10.6151 -18.10351,15.0625 -6.24985,4.43997 -12.77538,8.26273 -19.48242,11.67578 -6.68304,3.40084 -13.63756,6.20051 -20.7168,8.7793 a 1.4777843,1.4777843 0 0 0 -0.002,0 c -7.07716,2.58799 -14.23255,4.91946 -21.60743,6.69141 -7.38099,1.7758 -14.9386,3.1143 -22.71289,3.94726 -7.75371,0.83076 -15.95572,1.02062 -23.96679,1.06055 -3.67143,0.0137 -10.15895,-1.32938 -15.95703,-2.49805 -2.89904,-0.58433 -5.64314,-1.11994 -7.89454,-1.4082 -1.12569,-0.14413 -2.12425,-0.22914 -3.00195,-0.21484 -0.8777,0.0143 -1.63793,0.0503 -2.4375,0.55859 a 1.4777843,1.4777843 0 0 0 -0.002,0 c -0.74386,0.47463 -1.18143,1.58945 -1.05469,2.38086 0.12674,0.79141 0.49458,1.37601 0.93555,1.98437 0.88194,1.21674 2.2061,2.4917 3.71484,3.86719 3.01749,2.75099 6.79271,5.88369 8.45703,7.97852 2.00946,2.52387 4.93867,5.11952 7.69727,7.9375 2.75859,2.81797 5.31745,5.83915 6.60547,8.91406 2.63758,6.30605 2.14315,14.93042 2.39648,22.98633 0.24541,7.79424 -0.66707,15.90972 -1,24.03125 -0.33921,8.02067 -0.82945,16.01216 -0.99023,24.17187 -0.16984,8.11169 -0.41416,16.56463 0,24.66602 0.40297,8.06794 1.27916,15.94659 2.45508,23.68555 a 1.4777843,1.4777843 0 0 0 0,0.002 c 1.18909,7.75933 2.828,15.30052 4.62304,22.77148 1.79222,7.44922 3.66315,14.91563 6.17188,22.14844 a 1.4777843,1.4777843 0 0 0 0,0.002 c 2.51504,7.232 5.57093,14.21192 8.85547,21.07227 3.29486,6.88193 6.99464,13.57965 10.91015,20.17578 3.89675,6.58136 7.91191,13.15462 12.5918,19.49219 4.65573,6.31848 9.82256,12.52297 15.34375,18.38672 a 1.4777843,1.4777843 0 0 0 0.002,0 c 5.52917,5.86152 11.66672,11.68949 17.82227,16.77539 6.1639,5.1029 12.57301,9.53516 19.06054,13.71289 6.49645,4.18347 13.135,8.05317 19.9961,11.44336 6.8448,3.37703 13.88187,6.32215 21.08984,8.82226 7.25191,2.51184 14.74653,4.30833 22.15821,6.15625 7.36895,1.83976 14.72689,4.02408 22.65039,5.02344 7.90801,0.99613 16.34747,1.01035 24.38281,0.91016 8.03996,-0.10025 16.29268,-0.3671 24.12695,-1.51368 7.80139,-1.1318 15.34396,-2.8927 22.62891,-5.30078 7.3241,-2.42102 15.93094,-6.3271 21.0664,-9.13476 2.61584,-1.43298 5.45657,-3.39538 7.47461,-5.01367 1.00903,-0.80915 1.7915,-1.49585 2.33008,-2.14063 0.13465,-0.16119 0.25717,-0.32057 0.375,-0.52734 0.11784,-0.20678 0.27984,-0.45033 0.26953,-0.98047 -0.0103,-0.53015 -0.57443,-1.29808 -1.05078,-1.47461 -0.47635,-0.17654 -0.75437,-0.11952 -1,-0.082 -0.53443,0.0816 -0.92447,0.24764 -1.47851,0.47461 -0.55404,0.22697 -1.20969,0.52286 -1.95704,0.87304 -1.49469,0.70038 -3.35372,1.61689 -5.37304,2.59766 -4.03864,1.96154 -8.73662,4.17559 -12.17774,5.32422 a 1.4777843,1.4777843 0 0 0 0,0.002 c -7.08738,2.37561 -14.51581,3.99755 -22.15429,5.15821 -7.64559,1.15173 -15.80803,1.95229 -23.54297,1.78515 -7.73108,-0.17705 -15.5831,-1.37191 -23.11133,-2.84375 -7.50186,-1.46668 -14.79732,-3.43809 -21.8418,-5.96094 h -0.002 c -7.04727,-2.53041 -13.85187,-5.67989 -20.49023,-9.24218 a 1.4777843,1.4777843 0 0 0 -0.002,0 c -6.65663,-3.56677 -13.13873,-7.46761 -19.29883,-12.10743 -6.1672,-4.64517 -12.29607,-10.15881 -17.77734,-15.80859 -5.45986,-5.63802 -10.51732,-11.84499 -15.06445,-18.08984 -4.53733,-6.2314 -8.54563,-12.68802 -12.17969,-19.31055 l -0.002,-0.002 c -3.60644,-6.59073 -6.59686,-13.48337 -9.56446,-20.42774 -2.9609,-6.92872 -5.75753,-13.9243 -8.16015,-21.05273 -2.40904,-7.14746 -4.57504,-14.37996 -6.29102,-21.78906 v -0.002 c -1.69664,-7.36913 -2.66575,-15.12372 -4.0039,-22.81054 -1.33556,-7.67192 -2.89929,-15.18161 -3.91993,-22.8711 a 1.4777843,1.4777843 0 0 0 0,-0.002 c -1.02892,-7.66745 -1.43963,-15.67596 -2.27539,-23.57031 a 1.4777843,1.4777843 0 0 0 0,-0.002 c -0.84375,-7.87499 -1.95273,-15.59074 -2.72851,-23.4082 a 1.4777843,1.4777843 0 0 0 0,-0.002 c -0.77762,-7.73677 -0.60151,-16.01807 -1.97657,-23.84766 -1.34369,-7.65107 -2.85421,-15.35434 -6.19921,-22.41601 -1.72909,-3.6503 -4.56185,-7.25498 -7.22461,-10.56446 -2.66277,-3.30948 -5.16671,-6.37278 -6.17188,-8.43945 -1.18469,-2.43576 -2.23232,-4.37495 -2.47461,-5.52734 -0.12114,-0.5762 -0.0778,-0.86997 0.0508,-1.125 0.12859,-0.25504 0.42759,-0.59567 1.21485,-0.98829 1.30871,-0.65435 5.32547,-1.09758 9.76172,-1.24414 4.43625,-0.14655 9.41739,-0.15158 13.46484,-0.58007 a 1.4777843,1.4777843 0 0 0 0.002,0 c 7.84464,-0.8405 15.6946,-1.72374 23.38477,-3.07422 7.67343,-1.33757 15.21454,-3.00581 22.625,-4.97657 a 1.4777843,1.4777843 0 0 0 0.002,0 c 7.40692,-1.97986 14.70304,-4.24364 21.85352,-6.90234 7.13457,-2.64652 14.143,-5.63703 20.98242,-9.02148 6.82746,-3.37854 13.54715,-7.06487 20.06641,-11.28321 6.49584,-4.19964 12.8461,-8.81507 18.96679,-13.9375 6.08742,-5.09457 12.57363,-10.75444 17.79297,-16.83008 5.19562,-6.05817 9.5909,-12.63474 13.29297,-19.37109 v -0.002 c 3.70455,-6.73297 6.89744,-13.71326 9.00781,-21.18555 v -0.002 c 2.11086,-7.43926 3.49086,-15.57236 3.61328,-23.46875 0.12236,-7.90213 -0.96284,-16.24453 -2.88476,-23.76953 -1.92487,-7.54669 -4.88602,-14.64532 -8.62891,-21.39063 -3.75523,-6.77774 -8.55086,-13.25033 -13.85351,-19.16015 -5.33916,-5.94935 -11.78842,-11.51585 -18.02149,-16.35938 h -0.002 c -6.25775,-4.87037 -12.8261,-8.96507 -19.45313,-12.80078 l -0.002,-0.002 c -3.44041,-1.99617 -7.53467,-3.62709 -11.24805,-5.23047 -3.71416,-1.60373 -7.04873,-3.22507 -8.80273,-4.83789 -1.83231,-1.68484 -3.56762,-4.36119 -4.40625,-6.58789 -0.41932,-1.11336 -0.60136,-2.12017 -0.56836,-2.70704 0.033,-0.58686 0.0643,-0.55081 0.20508,-0.60742 0.0965,-0.0381 1.26184,-0.11367 2.76953,0.17969 1.50874,0.29357 3.41967,0.82484 5.48242,1.45313 4.12492,1.2564 8.8497,2.89465 12.66992,3.78515 7.35614,1.72441 14.85444,3.67191 22.5625,5.01563 7.67357,1.34765 15.48788,2.36537 23.44141,3.03906 7.91386,0.67118 16.24566,1.26699 24.29101,1.01367 8.02354,-0.24263 16.04102,-1.17067 23.72071,-2.53125 7.68179,-1.35916 15.21919,-3.11595 22.46875,-5.64062 a 1.4777843,1.4777843 0 0 0 0.002,0 c 7.20335,-2.51866 14.28275,-5.45671 20.94922,-9.51368 v 0.002 c 6.54903,-3.97548 14.13113,-8.62991 18.9668,-14.83399 l 0.002,-0.002 c 4.70106,-6.00956 10.04149,-14.53136 9.31445,-21.89258 -0.72363,-7.32678 -7.37549,-14.88625 -13.47851,-19.10937 h -0.002 c -6.28317,-4.35743 -15.0298,-5.18341 -22.65039,-6.33594 -3.90686,-0.5901 -8.01357,-0.9363 -12.13476,-1.07422 z m 4.47461,8.10352 c 3.71901,0.0565 -0.0442,-0.0832 3.8125,0.0781 0.64904,0.0403 1.28323,0.0686 1.87109,0.11524 a 1.4777843,1.4777843 0 0 0 0.002,0 c 0.62373,0.0487 1.24519,0.10798 1.875,0.16796 0.59973,0.0669 1.20587,0.14465 1.81055,0.22266 0.61134,0.0873 1.21343,0.186 1.80664,0.29297 a 1.4777843,1.4777843 0 0 0 0.0234,0.004 c 0.57054,0.0935 1.14763,0.20576 1.73242,0.33007 0.009,0.002 0.0181,0.004 0.0273,0.006 0.59134,0.13797 1.16807,0.27242 1.72852,0.42188 a 1.4777843,1.4777843 0 0 0 0.0234,0.006 c 0.56601,0.1415 1.12937,0.30483 1.70508,0.48047 0.57305,0.1817 1.13203,0.37346 1.70703,0.57812 0.55987,0.19928 1.12342,0.42031 1.68945,0.66016 a 1.4777843,1.4777843 0 0 0 0.0195,0.008 c 0.55887,0.22734 1.1131,0.4734 1.6836,0.74414 0.57004,0.27053 1.15113,0.56392 1.7246,0.86523 0.57228,0.31574 1.1459,0.63256 1.6836,0.95704 0.56607,0.34159 1.13106,0.69496 1.65039,1.05664 a 1.4777843,1.4777843 0 0 0 0.0137,0.01 c 0.53706,0.36444 1.06826,0.74325 1.57227,1.13477 0.51379,0.40715 1.01114,0.81784 1.48047,1.24023 0.45509,0.41853 0.89173,0.85668 1.29882,1.30078 0.41793,0.45592 0.80069,0.90332 1.12305,1.34766 a 1.4777843,1.4777843 0 0 0 0.01,0.0156 c 0.34554,0.46376 0.65461,0.93447 0.93554,1.42383 0.26189,0.46356 0.49057,0.94899 0.68555,1.44532 0.19906,0.50669 0.37195,1.03104 0.50586,1.54882 0.13298,0.51421 0.23127,1.04838 0.30469,1.58985 0.0704,0.5291 0.10794,1.08587 0.12695,1.65234 7e-5,0.002 -7e-5,0.004 0,0.006 0.008,0.55222 -0.0102,1.1224 -0.0469,1.68555 -2.1e-4,0.003 2.2e-4,0.007 0,0.01 -0.0463,0.55553 -0.12092,1.1306 -0.21484,1.71289 -0.0924,0.57302 -0.21415,1.14674 -0.36328,1.72461 a 1.4777843,1.4777843 0 0 0 -0.004,0.0156 c -0.14031,0.57061 -0.30613,1.14976 -0.5,1.71289 a 1.4777843,1.4777843 0 0 0 -0.008,0.0195 c -0.18645,0.56868 -0.40418,1.15109 -0.63672,1.73242 -0.23645,0.56641 -0.49389,1.1348 -0.75976,1.68555 -0.27968,0.56866 -0.56571,1.11987 -0.86328,1.64062 a 1.4777843,1.4777843 0 0 0 -0.006,0.01 c -0.30365,0.54086 -0.62711,1.07479 -0.96094,1.58984 a 1.4777843,1.4777843 0 0 0 -0.006,0.01 c -0.3277,0.51495 -0.67956,1.01884 -1.04688,1.52148 a 1.4777843,1.4777843 0 0 0 -0.002,0.004 c -0.35507,0.48942 -0.7252,0.97289 -1.10742,1.42969 a 1.4777843,1.4777843 0 0 0 -0.0117,0.0137 c -0.39307,0.48151 -0.78412,0.94625 -1.17578,1.36523 a 1.4777843,1.4777843 0 0 0 -0.0215,0.0254 c -0.39767,0.44502 -0.82162,0.88796 -1.2539,1.33008 -0.43426,0.42425 -0.8756,0.84506 -1.31055,1.24219 a 1.4777843,1.4777843 0 0 0 -0.002,0.002 c -0.4457,0.40777 -0.91087,0.807 -1.39063,1.2168 -0.46672,0.38875 -0.94077,0.77274 -1.41992,1.14648 -0.48932,0.37177 -0.98448,0.74315 -1.47851,1.10157 -0.50614,0.36 -1.00883,0.70699 -1.51758,1.04296 a 1.4777843,1.4777843 0 0 0 -0.01,0.006 c -0.50125,0.33739 -1.01902,0.66982 -1.55273,1.00586 -0.52997,0.33369 -1.05329,0.65413 -1.58399,0.96289 a 1.4777843,1.4777843 0 0 0 -0.0293,0.0156 c -0.50926,0.31121 -1.0391,0.61093 -1.59375,0.91797 a 1.4777843,1.4777843 0 0 0 -0.01,0.006 c -0.54328,0.30621 -1.09458,0.61072 -1.64258,0.90429 -0.54918,0.29421 -1.10336,0.58175 -1.66211,0.8711 -0.55194,0.28583 -1.11649,0.57191 -1.67187,0.84961 -0.56159,0.27582 -1.11829,0.54464 -1.69141,0.82617 -0.56363,0.26699 -1.12185,0.53231 -1.67187,0.7832 l -1.70899,0.7793 c -0.56289,0.24688 -1.12339,0.49149 -1.6914,0.73633 -0.56292,0.23698 -1.13819,0.47646 -1.70899,0.71679 -0.56231,0.23256 -1.13304,0.45834 -1.71094,0.6875 -0.56611,0.2245 -1.13851,0.44202 -1.71875,0.66211 -0.58054,0.22021 -1.15213,0.43561 -1.72265,0.63868 a 1.4777843,1.4777843 0 0 0 -0.008,0.004 c -0.57657,0.20876 -1.15633,0.41475 -1.73047,0.60938 a 1.4777843,1.4777843 0 0 0 -0.008,0.004 c -0.57493,0.19826 -1.15474,0.39468 -1.73046,0.58008 a 1.4777843,1.4777843 0 0 0 -0.0215,0.006 c -0.57289,0.1942 -1.14632,0.37749 -1.73047,0.55273 a 1.4777843,1.4777843 0 0 0 -0.0293,0.01 c -0.57242,0.18434 -1.16481,0.36205 -1.75782,0.54297 -0.60324,0.17121 -1.18833,0.34632 -1.75,0.49609 a 1.4777843,1.4777843 0 0 0 -0.0215,0.006 c -0.60049,0.17014 -1.19262,0.33822 -1.77734,0.49414 -0.58242,0.15531 -1.18459,0.30446 -1.78711,0.45508 -0.60775,0.14944 -1.20822,0.29715 -1.80274,0.43359 a 1.4777843,1.4777843 0 0 0 -0.0234,0.004 c -0.58027,0.14269 -1.18154,0.27255 -1.80664,0.41602 -0.61453,0.12893 -1.21557,0.25756 -1.82226,0.38476 -0.61516,0.12116 -1.2199,0.24586 -1.80469,0.34961 a 1.4777843,1.4777843 0 0 0 -0.0234,0.004 c -0.60149,0.11642 -1.22443,0.22536 -1.84765,0.33594 -0.61718,0.10773 -1.23472,0.20851 -1.875,0.32031 -0.60684,0.0961 -1.22179,0.18235 -1.84571,0.27148 a 1.4777843,1.4777843 0 0 0 -0.0234,0.004 c -0.59964,0.0952 -1.2318,0.17541 -1.87696,0.26758 -0.62906,0.0786 -1.2524,0.15498 -1.87109,0.22265 a 1.4777843,1.4777843 0 0 0 -0.0234,0.002 c -0.62609,0.0783 -1.25701,0.14904 -1.9043,0.21875 -0.63909,0.0601 -1.27387,0.12787 -1.89648,0.18554 -0.003,2.6e-4 -0.007,-2.5e-4 -0.01,0 -0.004,3.6e-4 -0.008,0.002 -0.0117,0.002 -0.64683,0.0507 -1.28892,0.10995 -1.92579,0.1582 a 1.4777843,1.4777843 0 0 0 -0.002,0 c -0.65102,0.0501 -1.29186,0.0997 -1.92578,0.13867 -0.65992,0.04 -1.30185,0.0781 -1.94727,0.10742 a 1.4777843,1.4777843 0 0 0 -0.0234,0.002 c -0.64593,0.0391 -1.27901,0.0684 -1.92383,0.0879 a 1.4777843,1.4777843 0 0 0 -0.0215,0 c -0.64554,0.0293 -1.29942,0.0503 -1.95898,0.0703 -0.64624,0.0196 -1.3067,0.0304 -1.98047,0.0508 -0.64724,0.009 -1.29912,0.009 -1.9668,0.0195 l 0.0215,-0.002 h -1.99024 l 0.0215,0.002 c -0.66107,-0.01 -1.32106,-0.0193 -1.99024,-0.0293 -0.64387,-0.01 -1.29318,-0.0307 -1.96484,-0.0508 a 1.4777843,1.4777843 0 0 0 -0.0234,0 c -0.62244,-0.009 -1.26774,-0.0401 -1.93554,-0.0605 h -0.0215 c -0.6462,-0.0294 -1.30086,-0.0586 -1.94531,-0.0879 l -0.0234,-0.002 c -0.66751,-0.0402 -1.31402,-0.0681 -1.93554,-0.11523 a 1.4777843,1.4777843 0 0 0 -0.0215,-0.002 c -0.65862,-0.0399 -1.31007,-0.0801 -1.94531,-0.12891 a 1.4777843,1.4777843 0 0 0 -0.002,0 c -0.65229,-0.0494 -1.30475,-0.099 -1.94727,-0.14844 l -0.0215,-0.002 c -0.65185,-0.0593 -1.29523,-0.11845 -1.9375,-0.17774 a 1.4777843,1.4777843 0 0 0 -0.004,0 c -0.65932,-0.0599 -1.29913,-0.11917 -1.93359,-0.1875 -0.64727,-0.0697 -1.27983,-0.1402 -1.91797,-0.21875 a 1.4777843,1.4777843 0 0 0 -0.0215,-0.002 c -0.63306,-0.0682 -1.26585,-0.14846 -1.90625,-0.22851 a 1.4777843,1.4777843 0 0 0 -0.004,0 c -0.6337,-0.078 -1.26314,-0.16622 -1.89063,-0.25586 a 1.4777843,1.4777843 0 0 0 -0.0254,-0.004 c -0.60304,-0.0754 -1.22735,-0.17096 -1.86133,-0.26172 l -0.0234,-0.004 c -0.63955,-0.10122 -1.26965,-0.1894 -1.87304,-0.28515 h -0.002 c -0.59783,-0.0964 -1.21949,-0.20542 -1.85546,-0.30664 l -0.0254,-0.004 c -0.6141,-0.10891 -1.23445,-0.21807 -1.84375,-0.32617 -0.59782,-0.10606 -1.21161,-0.22459 -1.8379,-0.33594 l -0.0234,-0.004 c -0.61293,-0.11862 -1.22377,-0.23578 -1.82227,-0.35352 a 1.4777843,1.4777843 0 0 0 -0.004,-0.002 c -0.59141,-0.11447 -1.19293,-0.24305 -1.82227,-0.36524 l -0.0273,-0.006 -1.80274,-0.38476 a 1.4777843,1.4777843 0 0 0 -0.006,0 c -0.61915,-0.12982 -1.21973,-0.25654 -1.8125,-0.39258 a 1.4777843,1.4777843 0 0 0 -0.0215,-0.006 c -0.58546,-0.12477 -1.18686,-0.26298 -1.80274,-0.39453 l -0.0273,-0.006 c -0.595,-0.13876 -1.19816,-0.2762 -1.79883,-0.41406 -0.59562,-0.1367 -1.20341,-0.28711 -1.81445,-0.42969 a 1.4777843,1.4777843 0 0 0 -0.006,0 c -0.58381,-0.13399 -1.18519,-0.28372 -1.80274,-0.42578 l -0.0273,-0.006 c -0.59624,-0.14896 -1.19719,-0.29785 -1.79687,-0.44531 a 1.4777843,1.4777843 0 0 0 -0.0234,-0.004 c -0.59188,-0.13584 -1.1815,-0.28471 -1.79492,-0.43555 -0.59385,-0.14603 -1.20393,-0.30696 -1.83008,-0.46093 a 1.4777843,1.4777843 0 0 0 -0.002,0 l -1.80665,-0.44336 -0.0156,-0.004 -0.008,-0.002 c -0.60799,-0.15925 -1.21002,-0.30835 -1.80664,-0.45508 l -0.0215,-0.006 c -0.62258,-0.16298 -1.23549,-0.31001 -1.81836,-0.46289 a 1.4777843,1.4777843 0 0 0 -0.0273,-0.006 c -0.60106,-0.14542 -1.21262,-0.30636 -1.85156,-0.46094 l 0.0215,0.004 c -0.63236,-0.16319 -1.24197,-0.31194 -1.84961,-0.46875 a 1.4777843,1.4777843 0 0 0 -0.0215,-0.004 c -0.60727,-0.14692 -1.23641,-0.30785 -1.86914,-0.46094 -0.61082,-0.14777 -1.24191,-0.30676 -1.8711,-0.45898 a 1.4777843,1.4777843 0 0 0 -0.006,-0.002 c -0.61379,-0.14614 -1.24245,-0.30708 -1.88867,-0.46094 -0.62878,-0.14971 -1.25412,-0.29937 -1.88476,-0.45703 a 1.4777843,1.4777843 0 0 0 -0.0156,-0.004 c -0.63511,-0.15121 -1.26685,-0.29921 -1.86328,-0.45312 -0.61001,-0.15742 -1.21203,-0.3198 -1.73828,-0.49219 a 1.4777843,1.4777843 0 0 0 -0.008,-0.002 c -0.57366,-0.18474 -1.12093,-0.37455 -1.55469,-0.56641 a 1.4777843,1.4777843 0 0 0 -0.01,-0.004 c -0.50086,-0.21735 -0.98378,-0.46515 -1.17773,-0.60937 a 1.4777843,1.4777843 0 0 0 -0.004,-0.004 c -0.27775,-0.20465 -0.37575,-0.41282 -0.31445,-0.23437 0.0563,0.1737 0.003,0.15168 0.10547,-0.14844 l -0.0156,0.0449 c 0.0374,-0.0988 0.23464,-0.4283 0.49219,-0.78125 0.21158,-0.28637 0.4998,-0.60708 0.83008,-0.94726 l 0.008,-0.006 c 0.003,-0.003 0.003,-0.005 0.006,-0.008 0.31966,-0.31852 0.69566,-0.64871 1.10547,-0.97656 a 1.4777843,1.4777843 0 0 0 0.0117,-0.01 c 0.39788,-0.32555 0.86532,-0.67108 1.35742,-1.02539 0.46707,-0.33629 0.97713,-0.67431 1.50977,-1.01954 a 1.4777843,1.4777843 0 0 0 0.006,-0.004 c 0.53163,-0.34798 1.07531,-0.68541 1.62891,-1.01563 a 1.4777843,1.4777843 0 0 0 0.0156,-0.01 c 0.55361,-0.33994 1.12946,-0.67813 1.70507,-1.02149 0.5625,-0.33552 1.14321,-0.67505 1.72071,-1.01953 0.55634,-0.33184 1.11881,-0.65863 1.68164,-0.99023 l 0.01,-0.006 c 0.5736,-0.33215 1.13331,-0.6625 1.68946,-0.99024 0.54355,-0.3203 1.10251,-0.63805 1.67382,-0.97461 l 0.008,-0.004 c 0.5432,-0.31601 1.09848,-0.63592 1.65039,-0.95703 0.5363,-0.31203 1.09037,-0.62808 1.64258,-0.94922 l 0.0176,-0.01 c 0.54597,-0.30786 1.08122,-0.61645 1.62305,-0.93164 l 0.0176,-0.01 c 0.54963,-0.3099 1.08472,-0.61651 1.62305,-0.91993 a 1.4777843,1.4777843 0 0 0 0.0117,-0.006 c 0.51268,-0.29432 1.05178,-0.59032 1.59961,-0.9043 l 0.0293,-0.0156 c 0.55747,-0.30459 1.09245,-0.61212 1.61133,-0.90039 0.53444,-0.29691 1.08335,-0.5973 1.62891,-0.90039 v 0.002 l 1.61132,-0.89454 0.01,-0.004 c 0.54288,-0.29608 1.0813,-0.58836 1.62891,-0.89258 l -0.0176,0.0117 c 0.54318,-0.29171 1.09017,-0.59177 1.62109,-0.87695 l 0.01,-0.004 c 0.55179,-0.29099 1.089,-0.57953 1.63086,-0.86524 a 1.4777843,1.4777843 0 0 0 0.01,-0.004 c 0.53236,-0.2859 1.07757,-0.57638 1.61914,-0.86719 l 0.01,-0.004 c 0.54578,-0.28776 1.08578,-0.57318 1.62109,-0.8457 a 1.4777843,1.4777843 0 0 0 0.0293,-0.0137 c 0.51992,-0.27922 1.06043,-0.55548 1.61133,-0.83594 a 1.4777843,1.4777843 0 0 0 0.0195,-0.01 c 0.5348,-0.28199 1.07315,-0.55602 1.61914,-0.83399 l 0.01,-0.006 c 0.55582,-0.27796 1.10002,-0.55486 1.64063,-0.83008 l 0.0195,-0.01 c 0.54387,-0.26711 1.09687,-0.5436 1.64063,-0.82031 l 0.0195,-0.01 c 0.52922,-0.2597 1.07996,-0.52566 1.63281,-0.80664 l 0.0273,-0.0137 c 0.549,-0.26471 1.09861,-0.52988 1.64258,-0.79688 l 0.008,-0.004 c 0.5434,-0.2619 1.10041,-0.51939 1.67188,-0.79492 0.54744,-0.26395 1.10245,-0.52141 1.66211,-0.78125 a 1.4777843,1.4777843 0 0 0 0.0195,-0.01 c 0.543,-0.2618 1.09265,-0.51645 1.65039,-0.77539 l 0.01,-0.004 c 0.55219,-0.25183 1.1027,-0.49928 1.66015,-0.75781 l 0.0293,-0.0137 c 0.57799,-0.25399 1.12873,-0.50873 1.66992,-0.7461 a 1.4777843,1.4777843 0 0 0 0.008,-0.004 c 0.55332,-0.24702 1.12268,-0.4958 1.69336,-0.7461 0.57658,-0.25288 1.12967,-0.50083 1.67969,-0.73242 a 1.4777843,1.4777843 0 0 0 0.0195,-0.008 c 0.55105,-0.24169 1.11247,-0.47717 1.68164,-0.7168 l 0.01,-0.004 c 0.57632,-0.23854 1.13918,-0.47593 1.69726,-0.71094 l 0.0215,-0.01 c 0.56705,-0.22893 1.13758,-0.46398 1.6914,-0.6875 l 0.008,-0.002 c 0.59258,-0.23508 1.16571,-0.47391 1.70898,-0.68359 a 1.4777843,1.4777843 0 0 0 0.0137,-0.006 c 0.57946,-0.22978 1.15208,-0.45693 1.71875,-0.67188 a 1.4777843,1.4777843 0 0 0 0.0215,-0.008 c 0.56614,-0.2245 1.13851,-0.44202 1.71875,-0.66211 0.58144,-0.22055 1.1543,-0.43821 1.71875,-0.64258 a 1.4777843,1.4777843 0 0 0 0.0117,-0.004 c 0.57867,-0.21578 1.15444,-0.42167 1.74218,-0.63086 a 1.4777843,1.4777843 0 0 0 0.008,-0.004 c 0.56633,-0.20505 1.1465,-0.41133 1.7207,-0.61914 0.60351,-0.20458 1.19303,-0.41589 1.76953,-0.61133 v 0.002 c 0.59003,-0.2 1.17245,-0.39863 1.74805,-0.58399 a 1.4777843,1.4777843 0 0 0 0.0215,-0.006 c 0.57154,-0.19374 1.15354,-0.38266 1.75781,-0.58398 l 0.0137,-0.004 c 0.58119,-0.18712 1.17095,-0.37336 1.74609,-0.54883 a 1.4777843,1.4777843 0 0 0 0.0137,-0.006 c 0.58477,-0.18517 1.17724,-0.36288 1.76758,-0.54297 l 0.008,-0.002 1.77149,-0.53125 0.0215,-0.006 c 0.60884,-0.17276 1.20058,-0.3513 1.7832,-0.51367 a 1.4777843,1.4777843 0 0 0 0.006,-0.002 c 0.58092,-0.1646 1.173,-0.32311 1.78711,-0.49414 l 0.0156,-0.004 c 0.58887,-0.15696 1.19178,-0.31343 1.79883,-0.47266 0.61475,-0.16124 1.20818,-0.3196 1.79882,-0.46484 0.60527,-0.14884 1.22512,-0.29805 1.83985,-0.44922 0.59479,-0.14626 1.19541,-0.28448 1.8125,-0.42383 a 1.4777843,1.4777843 0 0 0 0.0273,-0.006 c 0.57413,-0.14117 1.17933,-0.27104 1.80469,-0.41211 l 0.006,-0.002 c 0.004,-9e-4 0.008,-0.001 0.0117,-0.002 0.61326,-0.13081 1.21998,-0.26536 1.80664,-0.37891 a 1.4777843,1.4777843 0 0 0 0.0215,-0.006 c 0.62155,-0.13032 1.23292,-0.25865 1.84375,-0.375 a 1.4777843,1.4777843 0 0 0 0.004,0 c 0.6193,-0.11986 1.23736,-0.23978 1.86523,-0.35937 a 1.4777843,1.4777843 0 0 0 0.004,0 c 0.60158,-0.11644 1.22307,-0.22586 1.85351,-0.33594 a 1.4777843,1.4777843 0 0 0 0.004,0 c 0.61755,-0.10956 1.24079,-0.21884 1.85547,-0.31641 0.625,-0.0992 1.24562,-0.19848 1.875,-0.29687 l 0.0195,-0.004 c 0.63702,-0.0912 1.25935,-0.18854 1.87695,-0.27539 0.61968,-0.0871 1.24335,-0.1653 1.88868,-0.25586 0.64072,-0.0801 1.27232,-0.16025 1.89648,-0.22851 a 1.4777843,1.4777843 0 0 0 0.0234,-0.002 c 0.62314,-0.0779 1.25409,-0.14677 1.90429,-0.21679 a 1.4777843,1.4777843 0 0 0 0.002,0 c 0.62414,-0.0683 1.26634,-0.12965 1.90429,-0.18946 l 1.94141,-0.17773 1.91406,-0.14844 0.0234,-0.002 c 0.64025,-0.0394 1.293,-0.0775 1.9375,-0.11719 0.63386,-0.039 1.27854,-0.0683 1.91406,-0.0879 a 1.4777843,1.4777843 0 0 0 0.0234,0 c 0.63496,-0.0293 1.28174,-0.0508 1.91602,-0.0606 a 1.4777843,1.4777843 0 0 0 0.0215,0 c 0.61906,-0.019 1.25359,-0.0176 1.9043,-0.0176 z" />
  <path
     d="m 859.08,192.18 c -7.84,0.49 -15.46,2.22 -22.98,3.82 -7.52,1.6 -14.9,3.53 -22.15,5.79 -7.25,2.26 -14.31,4.98 -21.35,7.75 -7.04,2.77 -14.02,5.67 -20.89,8.84 -6.87,3.17 -13.64,6.59 -20.34,10.19 -6.69,3.59 -13,9.46 -19.84,11.37 -6.84,1.9 -14,1.06 -21.21,0.06 -7.22,-1 -14.69,-4.08 -22.06,-6.04 -7.37,-1.97 -14.74,-3.93 -22.17,-5.76 -7.43,-1.82 -14.87,-3.62 -22.4,-5.19 -7.54,-1.56 -15.25,-2.7 -22.81,-4.21 -7.56,-1.51 -14.95,-3.43 -22.55,-4.84 -7.6,-1.41 -15.35,-2.47 -23.06,-3.62 -7.7,-1.15 -15.44,-2.24 -23.18,-3.3 -7.75,-1.05 -15.53,-2.02 -23.31,-3.02 -7.77,-1 -15.49,-2.13 -23.32,-2.96 -7.84,-0.84 -15.8,-1.4 -23.7,-2.07 -7.91,-0.67 -15.76,-1.46 -23.74,-1.96 -7.98,-0.5 -16.02,-0.86 -24.13,-1.03 -8.12,-0.18 -16.49,-0.28 -24.56,-0.02 -8.08,0.26 -15.99,0.92 -23.9,1.58 -7.92,0.66 -15.84,1.29 -23.57,2.38 -7.73,1.1 -15.37,2.41 -22.82,4.2 -7.44,1.79 -14.69,4.06 -21.84,6.55 -7.15,2.5 -14.28,5.05 -21.06,8.43 -6.79,3.38 -13.48,7.24 -19.64,11.87 -6.16,4.63 -12.59,9.94 -17.34,15.91 -4.74,5.98 -9.12,12.74 -11.14,19.94 -2.02,7.21 -2.67,16.09 -0.99,23.29 1.69,7.21 9.52,17.82 11.12,19.94 1.6,2.12 -0.71,-2.2 -1.53,-7.23 -0.81,-5.03 -4.48,-15.72 -3.35,-22.93 1.13,-7.22 5.51,-14.37 10.11,-20.38 4.61,-6.01 11.33,-11.09 17.52,-15.68 6.2,-4.59 12.89,-8.4 19.64,-11.87 6.75,-3.46 13.71,-6.42 20.87,-8.91 7.15,-2.48 14.63,-4.19 22.06,-6.01 7.43,-1.82 14.85,-3.66 22.52,-4.91 7.67,-1.25 15.58,-1.9 23.48,-2.6 7.9,-0.69 15.89,-1.15 23.9,-1.57 8.01,-0.43 16.1,-0.98 24.15,-0.98 8.05,0.01 16.09,0.66 24.14,1 8.05,0.33 16.17,0.49 24.14,1 7.98,0.5 15.83,1.31 23.72,2.02 7.89,0.71 15.85,1.26 23.62,2.24 7.78,0.98 15.33,2.52 23.05,3.64 7.72,1.12 15.58,1.9 23.28,3.07 7.7,1.17 15.3,2.59 22.92,3.97 7.61,1.38 15.2,2.81 22.76,4.31 7.57,1.5 15.12,3.02 22.62,4.69 7.49,1.66 14.93,3.46 22.35,5.3 7.42,1.85 15,3.59 22.16,5.78 7.17,2.2 20.8,5.72 20.82,7.37 0.02,1.66 -13.44,2.86 -20.68,2.56 -7.24,-0.29 -15.13,-3 -22.76,-4.33 -7.64,-1.33 -15.26,-2.68 -23.04,-3.65 -7.79,-0.97 -15.75,-1.5 -23.66,-2.16 -7.92,-0.66 -15.75,-1.51 -23.81,-1.82 -8.06,-0.3 -16.37,0 -24.55,0.01 -8.19,0 -16.51,-0.34 -24.55,0.01 -8.04,0.35 -15.9,1.14 -23.7,2.07 -7.8,0.94 -15.44,2.24 -23.08,3.56 -7.64,1.32 -15.25,2.69 -22.75,4.36 -7.49,1.67 -14.86,3.65 -22.21,5.66 -7.35,2.02 -14.71,4 -21.9,6.41 -7.18,2.42 -14.22,5.18 -21.21,8.08 -6.98,2.9 -13.87,6.02 -20.68,9.34 -6.81,3.32 -13.5,6.94 -20.16,10.61 -6.67,3.66 -13.4,7.18 -19.84,11.39 -6.44,4.21 -12.63,9.02 -18.81,13.85 -6.19,4.84 -12.41,9.81 -18.28,15.16 -5.87,5.36 -11.67,11.08 -16.94,16.99 -5.27,5.92 -10.24,12.13 -14.67,18.48 -4.42,6.35 -8.53,12.84 -11.87,19.64 -3.33,6.8 -5.96,13.9 -8.13,21.19 -2.16,7.29 -4.39,14.84 -4.85,22.56 -0.47,7.71 0.32,16.24 2.05,23.71 1.72,7.47 4.34,14.67 8.29,21.12 3.96,6.45 9.59,12.71 15.44,17.59 5.86,4.89 12.77,8.69 19.7,11.72 6.93,3.03 14.21,5.22 21.88,6.47 7.67,1.25 16.22,1.36 24.13,1.03 7.9,-0.33 15.78,-1.42 23.3,-3.02 7.51,-1.61 14.72,-3.98 21.81,-6.62 7.09,-2.65 14.06,-5.59 20.73,-9.24 6.67,-3.65 13.04,-8.03 19.3,-12.68 6.26,-4.65 12.55,-9.7 18.24,-15.23 5.7,-5.54 10.96,-11.86 15.91,-18 4.95,-6.14 9.59,-12.39 13.8,-18.84 4.21,-6.44 8.11,-13.01 11.43,-19.82 3.32,-6.81 6.17,-13.81 8.49,-21.03 2.32,-7.23 4.19,-14.64 5.44,-22.3 1.26,-7.67 2.4,-15.92 2.1,-23.69 -0.31,-7.77 -1.58,-15.72 -3.93,-22.93 -2.35,-7.22 -8.51,-18.27 -10.18,-20.34 -1.66,-2.07 -0.68,2.84 0.17,7.91 0.85,5.07 4.28,14.73 4.94,22.5 0.65,7.78 -0.09,16.34 -1.01,24.15 -0.91,7.81 -2.46,15.35 -4.48,22.7 -2.02,7.35 -4.67,14.43 -7.65,21.38 -2.98,6.95 -6.42,13.72 -10.23,20.32 -3.81,6.61 -8.05,13.04 -12.64,19.32 -4.6,6.28 -9.52,12.47 -14.92,18.37 -5.4,5.9 -11.44,11.89 -17.49,17.05 -6.05,5.15 -12.34,9.72 -18.81,13.87 -6.47,4.14 -13.08,7.95 -20,10.99 -6.93,3.04 -14.08,5.54 -21.56,7.24 -7.48,1.7 -15.57,2.97 -23.34,2.95 -7.77,-0.02 -16.19,-0.44 -23.28,-3.06 -7.1,-2.63 -14.04,-7.32 -19.3,-12.68 -5.25,-5.36 -9.84,-12.28 -12.23,-19.48 -2.38,-7.2 -2.27,-15.87 -2.08,-23.69 0.19,-7.82 1.39,-15.8 3.22,-23.23 1.83,-7.43 4.72,-14.42 7.78,-21.33 3.05,-6.92 6.62,-13.63 10.58,-20.18 3.96,-6.54 8.44,-12.87 13.18,-19.09 4.73,-6.22 9.79,-12.31 15.22,-18.25 5.43,-5.93 11.4,-12.01 17.37,-17.36 5.96,-5.35 12.21,-10.03 18.44,-14.75 6.24,-4.71 12.49,-9.38 18.95,-13.54 6.46,-4.15 13.11,-7.86 19.84,-11.39 6.72,-3.53 13.57,-6.75 20.49,-9.79 6.93,-3.04 13.93,-5.9 21.06,-8.45 7.13,-2.55 14.41,-4.72 21.71,-6.86 7.3,-2.14 14.58,-4.32 22.09,-5.97 7.5,-1.64 15.22,-2.76 22.93,-3.91 7.71,-1.15 15.41,-2.32 23.31,-2.99 7.91,-0.66 16.03,-0.84 24.14,-1.01 8.12,-0.16 16.44,-0.16 24.55,0 8.12,0.16 16.17,0.49 24.15,0.98 7.98,0.49 15.97,0.97 23.74,1.97 7.77,1 15.37,2.39 22.89,4.03 7.51,1.63 21.42,2.34 22.21,5.77 0.79,3.43 -11.51,9.81 -17.46,14.82 -5.96,5 -12.28,9.88 -18.26,15.2 -5.98,5.33 -11.91,11.01 -17.62,16.74 -5.7,5.73 -11.19,11.73 -16.62,17.66 -5.43,5.94 -10.75,11.92 -15.96,17.95 -5.2,6.03 -10.29,12.11 -15.26,18.23 -4.97,6.13 -9.85,12.29 -14.56,18.52 -4.72,6.23 -9.26,12.54 -13.74,18.87 -4.49,6.32 -8.81,12.72 -13.19,19.09 -4.39,6.37 -8.78,12.73 -13.12,19.12 -4.34,6.38 -8.69,12.77 -12.94,19.19 -4.25,6.43 -8.42,12.89 -12.56,19.36 -4.13,6.47 -8.12,13 -12.27,19.47 -4.16,6.46 -8.37,12.9 -12.65,19.31 -4.28,6.41 -8.66,12.78 -13.03,19.16 -4.37,6.38 -8.67,12.78 -13.17,19.1 -4.51,6.32 -9.25,12.53 -13.85,18.81 -4.6,6.28 -8.99,12.65 -13.76,18.86 -4.77,6.21 -9.77,12.32 -14.86,18.4 -5.08,6.08 -10.33,12.09 -15.65,18.07 -5.33,5.98 -10.78,12.09 -16.31,17.79 -5.53,5.69 -11.13,10.87 -16.88,16.38 -5.75,5.52 -11.6,11.52 -17.64,16.71 -6.03,5.19 -12.28,9.86 -18.56,14.46 -6.28,4.6 -12.6,9.1 -19.11,13.15 -6.51,4.04 -13.18,7.7 -19.94,11.13 -6.77,3.43 -13.55,6.82 -20.64,9.45 -7.1,2.62 -14.5,4.52 -21.95,6.3 -7.45,1.78 -14.96,3.39 -22.74,4.38 -7.77,0.99 -16.03,1.78 -23.9,1.54 -7.86,-0.25 -15.77,-1.43 -23.3,-3.01 -7.52,-1.59 -14.93,-3.47 -21.86,-6.49 -6.94,-3.02 -13.88,-6.75 -19.74,-11.63 -5.85,-4.89 -11.43,-11.2 -15.39,-17.65 -3.96,-6.46 -6.98,-13.61 -8.38,-21.09 -1.4,-7.47 -1.19,-16.19 -0.03,-23.76 1.16,-7.57 3.94,-14.74 6.99,-21.66 3.06,-6.92 6.81,-13.54 11.34,-19.85 4.54,-6.32 10.15,-12.55 15.87,-18.02 5.71,-5.48 12.04,-10.44 18.41,-14.81 6.38,-4.37 13,-8.15 19.83,-11.41 6.84,-3.26 13.94,-5.86 21.19,-8.14 7.24,-2.28 14.6,-4.27 22.27,-5.52 7.67,-1.24 15.76,-1.77 23.75,-1.93 7.98,-0.17 16.38,-0.04 24.16,0.95 7.77,1 18.68,4.5 22.48,5.01 3.8,0.51 3.87,-0.46 0.31,-1.94 -3.56,-1.49 -14.18,-5.3 -21.67,-6.97 -7.49,-1.67 -15.31,-2.55 -23.28,-3.06 -7.98,-0.51 -16.66,-0.66 -24.58,-0.01 -7.92,0.64 -15.45,2.19 -22.95,3.87 -7.49,1.67 -14.87,3.62 -22,6.16 -7.13,2.55 -14.07,5.55 -20.78,9.1 -6.72,3.55 -13.21,7.64 -19.5,12.21 -6.29,4.57 -12.79,9.58 -18.27,15.2 -5.47,5.61 -10.44,12.02 -14.58,18.49 -4.13,6.46 -7.57,13.23 -10.23,20.31 -2.66,7.08 -5.12,14.52 -5.74,22.18 -0.62,7.66 0.26,16.29 2,23.76 1.75,7.46 4.47,14.62 8.46,21.05 3.99,6.43 9.69,12.45 15.47,17.53 5.78,5.08 12.46,9.43 19.19,12.95 6.72,3.53 13.89,5.99 21.16,8.2 7.27,2.21 14.82,3.73 22.45,5.06 7.64,1.34 15.37,2.44 23.35,2.93 7.98,0.49 16.49,0.34 24.54,0.02 8.05,-0.32 15.98,-0.95 23.76,-1.94 7.77,-0.99 15.4,-2.33 22.89,-4 7.49,-1.67 14.84,-3.7 22.06,-6.03 7.22,-2.33 14.25,-5.11 21.26,-7.94 7.01,-2.83 14.01,-5.7 20.82,-9.03 6.8,-3.34 13.41,-7.13 20,-11 6.58,-3.86 13.15,-7.77 19.5,-12.2 6.35,-4.42 12.41,-9.54 18.61,-14.35 6.19,-4.81 12.51,-9.3 18.54,-14.5 6.04,-5.2 11.94,-10.96 17.66,-16.68 5.72,-5.72 11.35,-11.67 16.66,-17.65 5.31,-5.98 10.15,-12.16 15.22,-18.25 5.06,-6.09 10.33,-12.09 15.17,-18.27 4.84,-6.18 9.39,-12.48 13.88,-18.8 4.49,-6.33 8.8,-12.73 13.06,-19.15 4.26,-6.42 8.35,-12.91 12.49,-19.38 4.14,-6.47 8.24,-12.96 12.34,-19.44 4.11,-6.49 8.35,-12.92 12.29,-19.47 3.94,-6.55 7.49,-13.26 11.36,-19.85 3.86,-6.58 7.84,-13.12 11.83,-19.65 3.99,-6.53 8.11,-13.01 12.13,-19.53 4.01,-6.52 7.94,-13.08 11.96,-19.6 4.02,-6.52 8.08,-13.03 12.16,-19.52 4.08,-6.49 8.18,-12.98 12.34,-19.44 4.16,-6.46 8.35,-12.91 12.63,-19.32 4.29,-6.41 8.61,-12.81 13.07,-19.15 4.46,-6.33 8.99,-12.64 13.7,-18.88 4.7,-6.23 9.42,-12.46 14.51,-18.54 5.09,-6.08 10.4,-12.15 16,-17.92 5.61,-5.77 11.35,-15.5 17.62,-16.72 6.27,-1.22 13.68,5.19 20.01,9.41 6.33,4.22 12.83,10.04 17.97,15.89 5.13,5.86 9.5,12.42 12.84,19.22 3.34,6.8 5.76,14.05 7.2,21.58 1.43,7.53 1.94,15.87 1.42,23.58 -0.52,7.71 -2.26,15.44 -4.55,22.67 -2.29,7.24 -5.5,14.09 -9.19,20.75 -3.68,6.66 -8.06,13.12 -12.92,19.2 -4.86,6.08 -10.48,11.88 -16.22,17.29 -5.75,5.41 -11.94,10.69 -18.26,15.19 -6.32,4.49 -12.91,8.35 -19.67,11.79 -6.76,3.44 -13.77,6.26 -20.88,8.85 -7.11,2.6 -14.32,4.95 -21.77,6.74 -7.44,1.79 -15.06,3.14 -22.9,3.98 -7.84,0.84 -16.09,1.03 -24.12,1.07 -8.03,0.03 -25.8129,-5.50527 -28.5029,-3.79527 -2.68,1.71 8.6629,9.32527 12.4129,14.04527 3.75,4.71 11.67,10.42 14.51,17.2 2.84,6.79 2.26,15.56 2.51,23.51 0.25,7.94 -0.67,16.09 -1,24.14 -0.34,8.04 -0.83,16.02 -0.99,24.14 -0.17,8.12 -0.41,16.54 0,24.56 0.4,8.01 1.27,15.84 2.44,23.54 1.18,7.7 2.81,15.2 4.6,22.65 1.79,7.44 3.65,14.86 6.13,22.01 2.49,7.16 5.52,14.09 8.79,20.92 3.27,6.83 6.95,13.49 10.85,20.06 3.89,6.57 7.88,13.1 12.51,19.37 4.62,6.27 9.75,12.43 15.23,18.25 5.49,5.82 11.59,11.61 17.69,16.65 6.1,5.05 12.46,9.45 18.92,13.61 6.46,4.16 13.05,8 19.85,11.36 6.79,3.35 13.77,6.27 20.92,8.75 7.16,2.48 14.61,4.27 22.03,6.12 7.41,1.85 14.71,4.01 22.48,4.99 7.78,0.98 16.16,1 24.18,0.9 8.02,-0.1 16.21,-0.37 23.93,-1.5 7.72,-1.12 15.18,-2.86 22.38,-5.24 7.2,-2.38 15.79,-6.28 20.82,-9.03 5.02,-2.75 11.23,-7.75 9.33,-7.46 -1.9,0.29 -13.55,6.81 -20.74,9.21 -7.19,2.41 -14.7,4.05 -22.4,5.22 -7.7,1.16 -15.94,1.97 -23.8,1.8 -7.86,-0.18 -15.79,-1.39 -23.36,-2.87 -7.57,-1.48 -14.94,-3.47 -22.06,-6.02 -7.13,-2.56 -14,-5.74 -20.69,-9.33 -6.7,-3.59 -13.25,-7.53 -19.49,-12.23 -6.24,-4.7 -12.42,-10.26 -17.95,-15.96 -5.52,-5.7 -10.62,-11.96 -15.2,-18.25 -4.58,-6.29 -8.62,-12.8 -12.28,-19.47 -3.65,-6.67 -6.66,-13.61 -9.63,-20.56 -2.97,-6.95 -5.78,-13.98 -8.2,-21.16 -2.42,-7.18 -4.6,-14.46 -6.33,-21.93 -1.72,-7.47 -2.69,-15.25 -4.02,-22.89 -1.33,-7.64 -2.9,-15.17 -3.93,-22.93 -1.04,-7.75 -1.45,-15.77 -2.28,-23.61 -0.84,-7.84 -1.95,-15.56 -2.73,-23.42 -0.79,-7.86 -0.62,-16.11 -1.96,-23.74 -1.34,-7.63 -2.84,-15.2 -6.08,-22.04 -3.24,-6.84 -11.07,-14.22 -13.39,-18.99 -2.32,-4.77 -4.41,-7.68 -0.54,-9.61 3.86,-1.93 15.89,-1.14 23.73,-1.97 7.84,-0.84 15.66,-1.72 23.29,-3.06 7.63,-1.33 15.13,-2.99 22.5,-4.95 7.37,-1.97 14.62,-4.22 21.72,-6.86 7.09,-2.63 14.05,-5.6 20.84,-8.96 6.79,-3.36 13.46,-7.02 19.92,-11.2 6.45,-4.17 12.75,-8.75 18.82,-13.83 6.07,-5.08 12.5,-10.7 17.62,-16.66 5.12,-5.97 9.46,-12.46 13.12,-19.12 3.67,-6.67 6.81,-13.55 8.88,-20.88 2.08,-7.33 3.44,-15.35 3.56,-23.09 0.12,-7.75 -0.95,-15.98 -2.84,-23.38 -1.89,-7.41 -4.8,-14.39 -8.49,-21.04 -3.69,-6.66 -8.42,-13.05 -13.66,-18.89 -5.25,-5.85 -11.64,-11.37 -17.83,-16.18 -6.18,-4.81 -12.69,-8.87 -19.29,-12.69 -6.6,-3.83 -16.21,-6.49 -20.31,-10.26 -4.1,-3.77 -7.23,-11.19 -4.32,-12.36 2.92,-1.17 14.43,3.63 21.81,5.35 7.38,1.73 14.85,3.67 22.48,5 7.63,1.34 15.4,2.35 23.31,3.02 7.9,0.67 16.18,1.26 24.12,1.01 7.94,-0.24 15.89,-1.16 23.51,-2.51 7.63,-1.35 15.09,-3.09 22.24,-5.58 7.15,-2.5 14.13,-5.4 20.67,-9.38 6.54,-3.97 13.98,-8.59 18.57,-14.48 4.6,-5.88 9.65,-14.36 9.01,-20.84 -0.64,-6.48 -7.04,-14.02 -12.85,-18.04 -5.81,-4.03 -14.36,-4.93 -22.03,-6.09 -7.68,-1.16 -16.21,-1.37 -24.04,-0.88 z m 6.82,5.41 1.95,-0.15 c 0.65,-0.04 1.31,-0.08 1.96,-0.12 0.65,-0.04 1.31,-0.07 1.96,-0.09 0.65,-0.03 1.31,-0.05 1.96,-0.06 0.65,-0.02 1.3,-0.02 1.95,-0.02 0.65,0 1.3,0 1.95,0.02 0.64,0.01 1.29,0.03 1.93,0.06 0.64,0.04 1.29,0.07 1.92,0.12 0.64,0.05 1.27,0.11 1.9,0.17 0.63,0.07 1.26,0.15 1.88,0.23 0.63,0.09 1.25,0.19 1.86,0.3 0.61,0.1 1.22,0.22 1.83,0.35 0.6,0.14 1.2,0.28 1.8,0.44 0.6,0.15 1.19,0.32 1.78,0.5 0.6,0.19 1.18,0.39 1.77,0.6 0.59,0.21 1.18,0.44 1.77,0.69 0.59,0.24 1.17,0.5 1.76,0.78 0.59,0.28 1.19,0.58 1.78,0.89 0.58,0.32 1.18,0.65 1.76,1 0.58,0.35 1.17,0.72 1.73,1.11 0.56,0.38 1.12,0.78 1.66,1.2 0.53,0.42 1.05,0.85 1.55,1.3 0.49,0.45 0.96,0.92 1.4,1.4 0.44,0.48 0.86,0.97 1.23,1.48 0.38,0.51 0.72,1.03 1.03,1.57 0.3,0.53 0.56,1.08 0.78,1.64 0.22,0.56 0.41,1.14 0.56,1.72 0.15,0.58 0.26,1.17 0.34,1.76 0.08,0.6 0.12,1.21 0.14,1.81 0.01,0.61 -0.01,1.23 -0.05,1.84 -0.05,0.61 -0.13,1.23 -0.23,1.85 -0.1,0.62 -0.23,1.24 -0.39,1.86 -0.15,0.61 -0.33,1.23 -0.54,1.84 -0.2,0.61 -0.43,1.22 -0.67,1.82 -0.25,0.6 -0.52,1.2 -0.8,1.78 -0.29,0.59 -0.59,1.17 -0.91,1.73 -0.32,0.57 -0.66,1.13 -1.01,1.67 -0.35,0.55 -0.72,1.08 -1.1,1.6 -0.37,0.51 -0.76,1.02 -1.17,1.51 -0.4,0.49 -0.81,0.98 -1.24,1.44 -0.42,0.47 -0.86,0.93 -1.3,1.38 -0.45,0.44 -0.91,0.88 -1.37,1.3 -0.47,0.43 -0.95,0.84 -1.43,1.25 -0.48,0.4 -0.97,0.8 -1.47,1.19 -0.5,0.38 -1.01,0.76 -1.52,1.13 -0.52,0.37 -1.04,0.73 -1.57,1.08 -0.52,0.35 -1.05,0.69 -1.59,1.03 -0.54,0.34 -1.08,0.67 -1.63,0.99 -0.54,0.33 -1.09,0.64 -1.65,0.95 -0.55,0.31 -1.11,0.62 -1.67,0.92 -0.56,0.3 -1.12,0.59 -1.68,0.88 -0.56,0.29 -1.13,0.58 -1.69,0.86 -0.57,0.28 -1.13,0.55 -1.7,0.83 -0.57,0.27 -1.14,0.54 -1.71,0.8 l -1.71,0.78 c -0.57,0.25 -1.14,0.5 -1.72,0.75 -0.57,0.24 -1.15,0.48 -1.72,0.72 -0.58,0.24 -1.16,0.47 -1.74,0.7 -0.58,0.23 -1.16,0.45 -1.74,0.67 -0.58,0.22 -1.16,0.44 -1.75,0.65 -0.58,0.21 -1.17,0.42 -1.76,0.62 -0.58,0.2 -1.17,0.4 -1.76,0.59 -0.59,0.2 -1.18,0.39 -1.78,0.57 -0.59,0.19 -1.19,0.37 -1.78,0.55 -0.6,0.17 -1.2,0.35 -1.8,0.51 -0.6,0.17 -1.2,0.34 -1.8,0.5 -0.6,0.16 -1.21,0.31 -1.81,0.46 -0.61,0.15 -1.22,0.3 -1.83,0.44 -0.61,0.15 -1.22,0.28 -1.83,0.42 -0.62,0.13 -1.23,0.26 -1.85,0.39 -0.61,0.12 -1.23,0.25 -1.85,0.36 -0.62,0.12 -1.25,0.23 -1.87,0.34 -0.63,0.11 -1.25,0.21 -1.88,0.32 -0.63,0.1 -1.26,0.19 -1.89,0.28 -0.63,0.1 -1.27,0.18 -1.9,0.27 -0.64,0.08 -1.28,0.16 -1.92,0.23 -0.64,0.08 -1.28,0.15 -1.93,0.22 -0.64,0.06 -1.29,0.13 -1.94,0.19 -0.64,0.05 -1.29,0.11 -1.95,0.16 -0.65,0.05 -1.3,0.1 -1.95,0.14 -0.66,0.04 -1.31,0.08 -1.97,0.11 -0.66,0.04 -1.31,0.07 -1.97,0.09 -0.66,0.03 -1.32,0.05 -1.98,0.07 -0.66,0.02 -1.32,0.03 -1.98,0.05 -0.67,0.01 -1.33,0.01 -1.99,0.02 h -1.99 c -0.66,-0.01 -1.32,-0.02 -1.99,-0.03 -0.66,-0.01 -1.32,-0.03 -1.99,-0.05 -0.66,-0.01 -1.32,-0.04 -1.98,-0.06 -0.66,-0.03 -1.33,-0.06 -1.99,-0.09 -0.66,-0.04 -1.32,-0.07 -1.98,-0.12 -0.66,-0.04 -1.32,-0.08 -1.97,-0.13 -0.66,-0.05 -1.32,-0.1 -1.97,-0.15 -0.66,-0.06 -1.31,-0.12 -1.96,-0.18 -0.66,-0.06 -1.31,-0.12 -1.96,-0.19 -0.65,-0.07 -1.29,-0.14 -1.94,-0.22 -0.65,-0.07 -1.29,-0.15 -1.93,-0.23 -0.65,-0.08 -1.29,-0.17 -1.92,-0.26 -0.64,-0.08 -1.28,-0.18 -1.91,-0.27 -0.63,-0.1 -1.27,-0.19 -1.9,-0.29 -0.62,-0.1 -1.25,-0.21 -1.88,-0.31 -0.62,-0.11 -1.25,-0.22 -1.87,-0.33 -0.62,-0.11 -1.24,-0.23 -1.86,-0.34 -0.62,-0.12 -1.24,-0.24 -1.85,-0.36 -0.62,-0.12 -1.23,-0.25 -1.85,-0.37 l -1.83,-0.39 c -0.62,-0.13 -1.23,-0.26 -1.84,-0.4 -0.61,-0.13 -1.22,-0.27 -1.83,-0.4 -0.6,-0.14 -1.21,-0.28 -1.82,-0.42 -0.61,-0.14 -1.22,-0.29 -1.82,-0.43 -0.61,-0.14 -1.22,-0.29 -1.83,-0.43 -0.6,-0.15 -1.21,-0.3 -1.82,-0.45 -0.61,-0.14 -1.21,-0.29 -1.82,-0.44 -0.61,-0.15 -1.22,-0.31 -1.83,-0.46 l -1.83,-0.45 c -0.61,-0.16 -1.22,-0.31 -1.83,-0.46 -0.61,-0.16 -1.23,-0.31 -1.84,-0.47 -0.62,-0.15 -1.23,-0.31 -1.85,-0.46 -0.62,-0.16 -1.23,-0.31 -1.85,-0.47 -0.62,-0.15 -1.25,-0.31 -1.87,-0.46 -0.62,-0.15 -1.25,-0.31 -1.87,-0.46 -0.63,-0.15 -1.26,-0.31 -1.89,-0.46 -0.63,-0.15 -1.26,-0.3 -1.9,-0.46 -0.63,-0.15 -1.27,-0.3 -1.89,-0.46 -0.62,-0.16 -1.25,-0.33 -1.83,-0.52 -0.59,-0.19 -1.18,-0.39 -1.7,-0.62 -0.53,-0.23 -1.08,-0.49 -1.47,-0.78 -0.38,-0.28 -0.72,-0.6 -0.84,-0.94 -0.12,-0.35 -0.02,-0.73 0.11,-1.11 0.14,-0.37 0.41,-0.76 0.68,-1.13 0.28,-0.38 0.62,-0.75 0.98,-1.12 0.37,-0.37 0.79,-0.74 1.24,-1.1 0.44,-0.36 0.93,-0.72 1.43,-1.08 0.5,-0.36 1.03,-0.71 1.57,-1.06 0.55,-0.36 1.11,-0.71 1.68,-1.05 0.57,-0.35 1.15,-0.69 1.72,-1.03 0.57,-0.34 1.15,-0.68 1.72,-1.02 0.57,-0.34 1.14,-0.67 1.7,-1 0.57,-0.33 1.13,-0.66 1.69,-0.99 0.56,-0.33 1.12,-0.65 1.68,-0.98 0.55,-0.32 1.11,-0.64 1.66,-0.96 0.55,-0.32 1.11,-0.64 1.66,-0.96 0.55,-0.31 1.09,-0.62 1.64,-0.94 0.55,-0.31 1.09,-0.62 1.64,-0.93 0.54,-0.31 1.09,-0.61 1.63,-0.92 0.55,-0.3 1.09,-0.61 1.63,-0.91 0.54,-0.3 1.09,-0.6 1.63,-0.9 l 1.62,-0.9 c 0.55,-0.3 1.09,-0.59 1.63,-0.89 0.54,-0.29 1.09,-0.59 1.63,-0.88 0.55,-0.29 1.09,-0.58 1.64,-0.87 0.54,-0.29 1.09,-0.58 1.63,-0.87 0.55,-0.29 1.1,-0.58 1.65,-0.86 0.54,-0.29 1.09,-0.57 1.64,-0.85 0.55,-0.29 1.1,-0.57 1.65,-0.85 0.56,-0.28 1.11,-0.56 1.66,-0.84 0.55,-0.27 1.11,-0.55 1.66,-0.83 0.55,-0.27 1.11,-0.54 1.66,-0.82 0.56,-0.27 1.12,-0.54 1.67,-0.81 0.56,-0.27 1.12,-0.53 1.68,-0.8 0.56,-0.27 1.12,-0.53 1.68,-0.79 0.56,-0.27 1.12,-0.53 1.68,-0.79 0.57,-0.26 1.13,-0.51 1.69,-0.77 0.57,-0.25 1.13,-0.51 1.7,-0.76 0.56,-0.25 1.13,-0.5 1.7,-0.75 0.57,-0.25 1.13,-0.5 1.7,-0.74 0.57,-0.25 1.14,-0.49 1.71,-0.73 0.58,-0.24 1.15,-0.48 1.72,-0.72 0.57,-0.23 1.15,-0.47 1.72,-0.7 0.58,-0.23 1.16,-0.47 1.73,-0.69 0.58,-0.23 1.16,-0.46 1.74,-0.68 0.58,-0.23 1.16,-0.45 1.74,-0.67 0.58,-0.22 1.16,-0.44 1.74,-0.65 0.59,-0.22 1.17,-0.43 1.76,-0.64 0.58,-0.21 1.17,-0.42 1.75,-0.63 0.59,-0.2 1.18,-0.41 1.77,-0.61 0.59,-0.2 1.18,-0.4 1.77,-0.59 0.59,-0.2 1.18,-0.39 1.78,-0.59 0.59,-0.19 1.19,-0.38 1.78,-0.56 0.6,-0.19 1.2,-0.37 1.79,-0.55 l 1.8,-0.54 c 0.6,-0.17 1.2,-0.35 1.81,-0.52 0.6,-0.17 1.2,-0.33 1.81,-0.5 0.6,-0.16 1.21,-0.32 1.82,-0.48 0.61,-0.16 1.21,-0.32 1.82,-0.47 0.61,-0.15 1.23,-0.3 1.84,-0.45 0.61,-0.15 1.22,-0.29 1.84,-0.43 0.61,-0.15 1.23,-0.28 1.85,-0.42 0.61,-0.13 1.23,-0.27 1.85,-0.39 0.62,-0.13 1.24,-0.26 1.87,-0.38 0.62,-0.12 1.24,-0.24 1.87,-0.36 0.62,-0.12 1.25,-0.23 1.88,-0.34 0.62,-0.11 1.25,-0.22 1.88,-0.32 0.63,-0.1 1.26,-0.2 1.9,-0.3 0.63,-0.09 1.26,-0.19 1.9,-0.28 0.64,-0.09 1.27,-0.17 1.91,-0.26 0.64,-0.08 1.28,-0.16 1.92,-0.23 0.64,-0.08 1.28,-0.15 1.93,-0.22 0.64,-0.07 1.29,-0.13 1.93,-0.19 z"
     fill="currentColor"
     fill-rule="evenodd"
     id="path1"
     sodipodi:nodetypes="cssssccccccsscccccscccccccscccsccccccsscccccscsscccccsccccccscsccccscsccccccccccsscccsscscscccccsccssccscccsscccsscccccccccsscscccsscscccccccccccccsscsscccccscccscccccccscccccccccscscccccsccsscsscscsscssscccccsscscsscscscssscccscsscscsccsccsccscccccccccccsccccsccccscscscccsccscscsscscccssscccccscscccscccccscccccccccscccccsccscccccccccscscscccsccsscccscccccccccccccccsccssccscccssccccccsccccccccccccccccscccscccccccsccccccsccccccscccsscccccscscsccccccccsccsscscsccccssccccccccccccsccccsccccccscccscccccccsssccccccscsccccc" />
</svg>
