<svg xmlns="http://www.w3.org/2000/svg" viewBox="0 0 1024 1024" width="2966" height="1859"><path d="m 949.96289,127.23828 c -3.72332,-0.0319 -7.42531,0.0728 -11.00781,0.29688 a 0.16603545,0.16603545 0 0 0 -0.004,-0.002 c -9.57594,0.59851 -18.87433,2.71175 -28.04101,4.66211 -9.17315,1.95175 -18.17559,4.30564 -27.01954,7.0625 -8.84592,2.75748 -17.45729,6.07572 -26.04101,9.45313 -8.58493,3.37786 -17.09891,6.91467 -25.47852,10.78125 -8.3793,3.86645 -16.63378,8.03739 -24.80468,12.42773 -8.18441,4.39191 -15.87647,11.53562 -24.15625,13.84766 -8.29822,2.30506 -17.0011,1.28912 -25.78907,0.0703 -8.77194,-1.21494 -17.87679,-4.9678 -26.87695,-7.36133 -8.98545,-2.40182 -17.97083,-4.79188 -27.03125,-7.02344 -9.05879,-2.21897 -18.13257,-4.41328 -27.31641,-6.32812 -9.19884,-1.9032 -18.59714,-3.29295 -27.80859,-5.13281 -9.21082,-1.83973 -18.22081,-4.18191 -27.49414,-5.90235 -9.27094,-1.71998 -18.72259,-3.0122 -28.12109,-4.41406 -9.38856,-1.40217 -18.82488,-2.73106 -28.26172,-4.02344 a 0.16603545,0.16603545 0 0 0 -0.002,0 c -9.44977,-1.28031 -18.93516,-2.4625 -28.41992,-3.68164 -9.47109,-1.21892 -18.88313,-2.59699 -28.43359,-3.60937 -9.56236,-1.02456 -19.26853,-1.70868 -28.89844,-2.52539 -9.64194,-0.81672 -19.21415,-1.77883 -28.94726,-2.38867 -9.73102,-0.60972 -19.53568,-1.04855 -29.42579,-1.25586 -9.90088,-0.21948 -20.10738,-0.34065 -29.95117,-0.0234 -9.85648,0.31715 -19.50281,1.12112 -29.14648,1.92578 -9.65542,0.80462 -19.3151,1.57247 -28.7461,2.90234 -9.42732,1.34153 -18.74786,2.93899 -27.83789,5.12305 -9.07784,2.18405 -17.92215,4.9553 -26.64257,7.99219 -8.71783,3.04819 -17.41753,6.15847 -25.69532,10.28515 -8.28439,4.12389 -16.44791,8.83349 -23.96875,14.48633 -7.51449,5.64808 -15.3652,12.12967 -21.17187,19.42774 -5.7858,7.29937 -11.13906,15.557 -13.61133,24.36914 -2.46981,8.81544 -3.26621,19.65986 -1.20898,28.47656 2.07814,8.86594 11.6317,21.78174 13.58593,24.37109 0.24622,0.32624 0.41328,0.52927 0.54688,0.64258 0.0334,0.0283 0.064,0.0512 0.10351,0.0703 0.0395,0.0192 0.0949,0.0401 0.16602,0.0195 0.0711,-0.0206 0.12214,-0.0874 0.13867,-0.13477 0.0165,-0.0473 0.0166,-0.0854 0.0156,-0.125 -0.004,-0.15856 -0.06,-0.36228 -0.14844,-0.65625 -0.0885,-0.29397 -0.2111,-0.6673 -0.35742,-1.10742 -0.5853,-1.76049 -1.53612,-4.60115 -2.03321,-7.65039 -0.49708,-3.08685 -1.86147,-7.87224 -2.92968,-12.98828 -1.06822,-5.11604 -1.83693,-10.55851 -1.1543,-14.91407 1.37013,-8.75423 6.69246,-17.45236 12.29297,-24.76953 5.60046,-7.30127 13.78233,-13.4906 21.32812,-19.08594 7.5483,-5.58817 15.69673,-10.22868 23.92188,-14.45703 8.22241,-4.21474 16.69962,-7.82022 25.42187,-10.85351 8.70557,-3.01955 17.82075,-5.10295 26.88086,-7.32227 9.0588,-2.21896 18.10105,-4.46182 27.44336,-5.98437 9.34159,-1.52243 18.98175,-2.31454 28.61328,-3.16797 9.62818,-0.84093 19.36583,-1.40203 29.13086,-1.91406 a 0.16603545,0.16603545 0 0 0 0.002,0 c 9.76717,-0.52434 19.62679,-1.19532 29.43359,-1.19532 9.80554,0.0121 19.6052,0.80599 29.42383,1.22071 a 0.16603545,0.16603545 0 0 0 0.002,0 c 9.81674,0.4024 19.71396,0.59728 29.42578,1.21875 9.72465,0.60932 19.29334,1.59713 28.91406,2.46289 9.6216,0.86582 19.32435,1.53451 28.79102,2.72851 9.47699,1.19376 18.6814,3.07113 28.09961,4.4375 9.41704,1.36621 18.99898,2.31662 28.38086,3.74219 9.38394,1.42587 18.64872,3.15922 27.93945,4.8418 9.27719,1.68232 18.52826,3.4234 27.74414,5.25195 9.22883,1.82869 18.43456,3.68323 27.57617,5.71875 9.12956,2.02339 18.19848,4.21781 27.24414,6.46094 l -0.002,-0.002 c 9.04833,2.256 18.28831,4.37732 27.00977,7.04493 4.37522,1.34246 10.71378,3.08627 15.95898,4.74414 2.6226,0.82893 4.97237,1.63664 6.66016,2.35937 0.84389,0.36137 1.52188,0.70284 1.98047,1.00781 0.22929,0.15249 0.40349,0.29638 0.51367,0.42188 0.11018,0.1255 0.15151,0.22614 0.15234,0.29492 8.5e-4,0.0704 -0.0334,0.15184 -0.13476,0.25391 -0.10141,0.10207 -0.26641,0.21468 -0.48828,0.32617 -0.44376,0.22299 -1.10953,0.444 -1.93946,0.65039 -1.65985,0.41278 -3.9791,0.77257 -6.57617,1.05859 -5.19413,0.57205 -11.50038,0.84639 -15.90039,0.66407 a 0.16603545,0.16603545 0 0 0 -0.002,0 c -8.79037,-0.35211 -18.40381,-3.65067 -27.72461,-5.27539 -9.31415,-1.62144 -18.60691,-3.26788 -28.09766,-4.45118 -9.50378,-1.18339 -19.21169,-1.83026 -28.85351,-2.63476 -9.65312,-0.8044 -19.20303,-1.84051 -29.03711,-2.21875 -9.83489,-0.36608 -19.96661,-5.8e-4 -29.93555,0.0117 -9.98044,0 -20.12765,-0.41551 -29.93945,0.0117 -9.80832,0.42695 -19.39466,1.39133 -28.90625,2.52539 -9.51486,1.14667 -18.82979,2.73244 -28.14454,4.34179 -9.31524,1.60943 -18.59586,3.27941 -27.74414,5.31641 -9.13624,2.03707 -18.1245,4.45166 -27.08593,6.90234 a 0.16603545,0.16603545 0 0 0 -0.002,0 c -8.96036,2.46257 -17.93674,4.87802 -26.70898,7.81836 -8.75875,2.95212 -17.3451,6.31707 -25.86914,9.85352 a 0.16603545,0.16603545 0 0 0 0,0.002 c -8.51304,3.53694 -16.9153,7.34159 -25.2207,11.39063 -8.30682,4.04972 -16.4655,8.46468 -24.58594,12.93945 v -0.002 c -8.12996,4.46112 -16.34083,8.75602 -24.20117,13.89453 -7.8592,5.13777 -15.40669,11.00573 -22.94141,16.89453 -7.54762,5.90153 -15.135,11.96281 -22.29688,18.49023 -7.15976,6.53772 -14.23415,13.51386 -20.66406,20.72461 -6.42891,7.22187 -12.49517,14.79898 -17.90039,22.54688 -5.39148,7.74567 -10.40506,15.66556 -14.48242,23.96679 -4.06476,8.30039 -7.27421,16.96664 -9.92188,25.86133 -2.63344,8.88788 -5.35758,18.10363 -5.91992,27.54102 -0.57416,9.41854 0.38901,19.82963 2.50196,28.95312 2.10002,9.12042 5.30151,17.91612 10.1289,25.79883 4.83959,7.88266 11.71381,15.52558 18.85938,21.48633 7.16118,5.97578 15.59822,10.61422 24.05664,14.3125 8.46108,3.69943 17.34983,6.37414 26.71484,7.90039 9.36887,1.52686 19.80293,1.66043 29.45313,1.25781 9.6421,-0.40275 19.25926,-1.73315 28.43554,-3.68554 9.16735,-1.96532 17.96531,-4.85606 26.61328,-8.07618 8.64828,-3.23243 17.15322,-6.82005 25.29493,-11.27539 8.1419,-4.45547 15.91359,-9.80113 23.54882,-15.47265 7.6355,-5.67175 15.30918,-11.83258 22.25391,-18.58203 6.95796,-6.76264 13.37411,-14.4738 19.41016,-21.96094 6.03727,-7.48869 11.6978,-15.11163 16.83398,-22.98047 v -0.002 c 5.13499,-7.85504 9.8939,-15.87132 13.94531,-24.18164 4.05091,-8.30923 7.5303,-16.85171 10.36133,-25.66211 2.83063,-8.82134 5.11321,-17.86288 6.63867,-27.21094 1.53666,-9.35407 2.92709,-19.42036 2.56055,-28.91406 -0.37849,-9.48652 -1.92808,-19.19429 -4.79883,-28.00196 -1.43803,-4.41811 -4.03487,-9.99092 -6.52734,-14.77929 -2.49247,-4.78838 -4.86609,-8.77375 -5.91211,-10.07032 -0.2605,-0.32484 -0.46653,-0.52506 -0.67969,-0.61328 -0.10658,-0.0441 -0.22632,-0.056 -0.33203,-0.0137 -0.1057,0.0423 -0.18153,0.12805 -0.23242,0.22656 -0.10178,0.19703 -0.13748,0.46353 -0.14844,0.81055 -0.0109,0.34702 0.0105,0.77327 0.0547,1.26563 0.17663,1.9694 0.73407,5.00868 1.25195,8.09765 1.04265,6.21911 5.21801,17.98175 6.01953,27.41797 0.79077,9.46471 -0.10732,19.89215 -1.22851,29.41016 -1.10836,9.51242 -2.99818,18.6965 -5.45899,27.65039 -2.46012,8.95143 -5.68726,17.57838 -9.31836,26.04687 -3.6303,8.46662 -7.82272,16.71441 -12.46484,24.75586 -4.64171,8.05293 -9.80751,15.88692 -15.40039,23.53906 -5.60557,7.65285 -11.59932,15.19335 -18.17773,22.38086 -6.57968,7.18893 -13.93935,14.48629 -21.3086,20.77149 -7.36969,6.27334 -15.03149,11.84041 -22.91406,16.89648 -7.88376,5.04465 -15.9338,9.68531 -24.35938,13.38672 -8.44108,3.70286 -17.15041,6.7485 -26.25781,8.81836 -9.11162,2.07083 -18.96334,3.61616 -28.41797,3.5918 -9.46665,-0.0243 -19.7153,-0.53986 -28.32422,-3.72071 h -0.002 c -8.62831,-3.19646 -17.07158,-8.9031 -23.4668,-15.41992 -6.38411,-6.51815 -11.96741,-14.93806 -14.87109,-23.68554 -2.88868,-8.7389 -2.75894,-19.2917 -2.52734,-28.82422 0.23129,-9.51974 1.69139,-19.23912 3.91992,-28.28711 2.22715,-9.04253 5.74701,-17.55656 9.47656,-25.97852 3.71517,-8.42919 8.06386,-16.60158 12.88867,-24.58203 4.82378,-7.96656 10.28208,-15.67957 16.0586,-23.25977 a 0.16603545,0.16603545 0 0 0 0,-0.002 c 5.76377,-7.57942 11.93021,-15.00019 18.54687,-22.23828 6.61732,-7.22669 13.89313,-14.63474 21.16602,-21.15234 7.25917,-6.5162 14.87279,-12.21777 22.46875,-17.97266 7.60721,-5.74199 15.22446,-11.43442 23.09375,-16.50195 v 0.002 c 7.87015,-5.0559 15.97326,-9.5785 24.17578,-13.88086 a 0.16603545,0.16603545 0 0 0 0.002,0 c 8.18853,-4.3014 16.53466,-8.22456 24.96875,-11.92969 8.44631,-3.70518 16.97792,-7.19159 25.66602,-10.29882 8.68708,-3.10689 17.55948,-5.75049 26.45898,-8.35938 8.90058,-2.6092 17.76991,-5.26549 26.91797,-7.27539 9.13598,-1.99774 18.54701,-3.36352 27.94727,-4.76563 9.40013,-1.40211 18.78192,-2.82632 28.40625,-3.64257 9.63679,-0.80407 19.53451,-1.02518 29.42187,-1.23243 9.89745,-0.19502 20.0366,-0.19502 29.92188,0 9.89738,0.19503 19.71073,0.59807 29.4375,1.19532 9.72914,0.5974 19.46625,1.18218 28.93164,2.40039 9.46727,1.21844 18.73005,2.91151 27.89453,4.91015 4.59389,0.99706 11.12182,1.70923 16.61719,2.69532 2.74768,0.49304 5.23586,1.05649 7.08593,1.75 0.92504,0.34675 1.68978,0.72533 2.24414,1.13867 0.55437,0.41333 0.89338,0.85475 1.00196,1.32617 0.10855,0.47133 -0.004,1.00829 -0.32422,1.61133 -0.32041,0.60304 -0.84627,1.26348 -1.53125,1.96289 -1.36997,1.39881 -3.3764,2.95133 -5.64063,4.56445 -4.52845,3.22625 -10.09079,6.69766 -13.73437,9.76563 -7.26275,6.0929 -14.96924,12.04208 -22.26563,18.5332 a 0.16603545,0.16603545 0 0 0 -0.002,0.002 c -7.2937,6.5009 -14.52302,13.42635 -21.48633,20.41407 -6.95258,6.98916 -13.64945,14.30744 -20.26953,21.53711 -6.62114,7.24302 -13.10604,14.53389 -19.45898,21.88671 -6.34075,7.35285 -12.54902,14.76585 -18.60938,22.22852 -6.06008,7.47449 -12.01202,14.98848 -17.75586,22.58594 -5.75613,7.59763 -11.28955,15.29168 -16.75195,23.00976 -5.47561,7.70731 -10.74455,15.51001 -16.08399,23.27539 -5.35215,7.76609 -10.70245,15.51934 -15.99414,23.31055 -5.29118,7.77831 -10.59702,15.57013 -15.77929,23.39844 -5.18217,7.84029 -10.26683,15.71704 -15.31446,23.60547 -5.03636,7.88988 -9.9007,15.8503 -14.95898,23.73632 h 0.002 c -5.07135,7.87525 -10.20441,15.72703 -15.42187,23.54102 -5.21721,7.81365 -10.55686,15.57892 -15.88477,23.35742 -5.32835,7.77915 -10.57013,15.58044 -16.05469,23.28321 -5.4964,7.70228 -11.27525,15.27346 -16.88476,22.93164 -5.61004,7.65893 -10.9614,15.42166 -16.77344,22.98828 -5.81337,7.56838 -11.90655,15.01609 -18.11133,22.42773 -6.19186,7.41071 -12.59278,14.73744 -19.07812,22.02735 h 0.002 c -6.49818,7.29063 -13.14215,14.73967 -19.88086,21.68554 -6.73808,6.93303 -13.56456,13.24591 -20.57617,19.96485 -7.01304,6.73253 -14.14202,14.04638 -21.49805,20.36718 -7.34595,6.32265 -14.96357,12.01156 -22.61914,17.61914 -7.65523,5.60735 -15.35817,11.09336 -23.28906,16.02735 -7.93183,4.92234 -16.05844,9.38039 -24.29688,13.56054 -8.25328,4.18154 -16.51382,8.31143 -25.14648,11.51368 -8.64489,3.18998 -17.66173,5.50427 -26.74219,7.67382 -9.08036,2.16953 -18.23096,4.13401 -27.70703,5.33985 -9.46933,1.20651 -19.53104,2.16715 -29.11133,1.875 -9.569,-0.30436 -19.20371,-1.7413 -28.37695,-3.66602 h -0.002 c -9.16324,-1.93754 -18.185485,-4.22791 -26.61719,-7.90234 -8.451869,-3.67791 -16.898834,-8.21983 -24.025391,-14.1543 h -0.002 c -7.117711,-5.94988 -13.911967,-13.63142 -18.728515,-21.47656 -4.819061,-7.86139 -8.490939,-16.56242 -10.19336,-25.6582 -1.701982,-9.0813 -1.448908,-19.69692 -0.03711,-28.91016 1.410604,-9.20541 4.795286,-17.93516 8.511719,-26.36719 3.726228,-8.42664 8.290555,-16.48635 13.80664,-24.16992 5.527396,-7.6945 12.362708,-15.28443 19.330078,-21.94726 6.953384,-6.6733 14.661764,-12.7154 22.421875,-18.03907 7.770976,-5.32273 15.836666,-9.92549 24.156246,-13.89648 8.32983,-3.97006 16.9764,-7.13784 25.81055,-9.91602 a 0.16603545,0.16603545 0 0 0 0.002,0 c 8.82248,-2.77835 17.78688,-5.20244 27.12696,-6.72461 9.34028,-1.51003 19.19553,-2.15658 28.93164,-2.35156 9.72474,-0.20718 19.95756,-0.0491 29.42969,1.15625 4.72192,0.60771 10.41275,1.97857 15.5,3.27539 5.08724,1.29683 9.56289,2.51923 11.9082,2.83399 1.16516,0.15637 2.04657,0.20198 2.66015,0.14843 0.3068,-0.0268 0.54689,-0.0764 0.73047,-0.16015 0.18358,-0.0838 0.32601,-0.22279 0.34961,-0.4043 0.0236,-0.18151 -0.0657,-0.35077 -0.20703,-0.51562 -0.14131,-0.16486 -0.34638,-0.33496 -0.61914,-0.51758 -0.54552,-0.36526 -1.35999,-0.77879 -2.45117,-1.23242 -4.35574,-1.82304 -17.29583,-6.46739 -26.44727,-8.50782 -9.14347,-2.03867 -18.68614,-3.11227 -28.4082,-3.73437 -9.73458,-0.62214 -20.32245,-0.80507 -29.99023,-0.0117 -9.6689,0.78131 -18.8582,2.67207 -28.00391,4.7207 -9.13516,2.03688 -18.14085,4.41598 -26.8418,7.51563 -8.69944,3.11129 -17.16716,6.77336 -25.355466,11.10547 -8.200364,4.33204 -16.120468,9.3206 -23.794922,14.89648 -7.671304,5.57359 -15.602479,11.68931 -22.294921,18.55273 -6.677916,6.84884 -12.743808,14.66946 -17.796875,22.56641 -5.04101,7.88497 -9.240956,16.14972 -12.488282,24.79297 -3.244618,8.63607 -6.249775,17.72047 -7.007812,27.08594 -0.757718,9.36147 0.318393,19.89684 2.443359,29.01953 2.136892,9.10926 5.458177,17.85733 10.333985,25.71484 4.877387,7.86004 11.837562,15.2076 18.892578,21.40821 7.058735,6.20387 15.2134,11.51405 23.427734,15.81054 8.207787,4.31152 16.959042,7.3123 25.826172,10.00781 8.87372,2.69751 18.08549,4.55378 27.39063,6.17579 9.31803,1.63431 18.74868,2.97628 28.48632,3.57421 9.73832,0.59798 20.11863,0.41365 29.93555,0.0234 9.81867,-0.39032 19.49196,-1.15954 28.98242,-2.36719 9.47809,-1.20764 18.78528,-2.84176 27.92188,-4.8789 9.13698,-2.03722 18.10318,-4.51332 26.91015,-7.35547 8.80918,-2.84285 17.3845,-6.23303 25.93164,-9.68359 8.54699,-3.45048 17.0835,-6.95262 25.39258,-11.01563 8.29678,-4.0752 16.35917,-8.69722 24.39453,-13.41601 8.02276,-4.70636 16.03693,-9.47344 23.78516,-14.87891 7.75044,-5.39479 15.14011,-11.64059 22.69531,-17.50195 7.54259,-5.86103 15.25045,-11.33772 22.60938,-17.6836 7.36924,-6.34438 14.56636,-13.36912 21.54101,-20.34375 6.97587,-6.97587 13.84215,-14.23205 20.31836,-21.52539 6.47826,-7.29566 12.37948,-14.83165 18.5586,-22.2539 6.16709,-7.42244 12.59334,-14.73981 18.49804,-22.2793 5.90345,-7.53784 11.45118,-15.2199 16.92578,-22.92578 5.47563,-7.71955 10.73364,-15.52381 15.92774,-23.35157 5.19513,-7.82924 10.18153,-15.74149 15.22851,-23.6289 5.04773,-7.8886 10.04635,-15.80294 15.04493,-23.70313 5.0097,-7.91073 10.18039,-15.75067 14.98632,-23.74023 4.80665,-7.99076 9.13388,-16.17101 13.84961,-24.20117 4.70514,-8.02063 9.55749,-15.99403 14.42188,-23.95508 4.86347,-7.95952 9.88521,-15.85828 14.78711,-23.80859 4.88955,-7.95012 9.68168,-15.94868 14.58203,-23.89649 4.90079,-7.94854 9.85021,-15.88672 14.82422,-23.79883 4.97408,-7.91222 9.97169,-15.82219 15.04297,-23.69726 5.0715,-7.87549 10.18115,-15.73899 15.39843,-23.55274 5.23003,-7.81456 10.49537,-15.61595 15.93164,-23.34375 h -0.002 c 5.43696,-7.71658 10.96042,-15.40809 16.70117,-23.01367 5.72999,-7.59528 11.48141,-15.18719 17.6836,-22.5957 6.20403,-7.41069 12.6766,-14.80934 19.5,-21.83985 3.43256,-3.53046 6.89246,-8.25464 10.44531,-12.27734 3.55285,-4.02269 7.199,-7.33084 10.94922,-8.06055 3.75656,-0.73094 7.89043,0.82768 12.05469,3.23047 4.16425,2.4028 8.3507,5.64136 12.21679,8.21875 7.70239,5.13494 15.61821,12.22272 21.875,19.34375 6.2447,7.13332 11.56547,15.11767 15.63086,23.39453 4.06545,8.27698 7.01279,17.10354 8.76563,26.26953 h -0.002 c 1.74058,9.16542 2.36146,19.32054 1.72852,28.70508 -0.63282,9.38246 -2.75013,18.79439 -5.53906,27.59961 -2.78754,8.813 -6.69626,17.15438 -11.19141,25.26758 -4.48157,8.11066 -9.81657,15.97896 -15.73633,23.38477 -5.91839,7.40405 -12.7635,14.47028 -19.75781,21.0625 -7.0062,6.5919 -14.54918,13.02544 -22.24609,18.50586 -7.69738,5.46854 -15.72519,10.16842 -23.96094,14.35937 -8.23298,4.18958 -16.77261,7.6268 -25.4375,10.7832 -8.66462,3.16851 -17.44932,6.02927 -26.52344,8.21094 -9.06441,2.17935 -18.34555,3.82435 -27.89648,4.84766 -9.54875,1.0231 -19.60087,1.262 -29.38868,1.30468 -4.86089,0.0212 -13.73375,-1.44487 -21.7871,-2.6582 -4.02668,-0.60666 -7.85049,-1.15092 -10.87891,-1.41211 -1.51421,-0.13059 -2.83063,-0.19083 -3.87695,-0.15234 -1.04632,0.0385 -1.82099,0.16407 -2.28711,0.46094 -0.22946,0.14613 -0.38525,0.33799 -0.44532,0.56054 -0.0601,0.22256 -0.0229,0.46179 0.0781,0.70508 0.20207,0.48659 0.66141,1.01676 1.31055,1.61133 1.29827,1.18914 3.36546,2.61949 5.67578,4.16601 4.62062,3.09305 10.21767,6.65841 12.46289,9.48438 5.23477,6.58881 14.23603,12.73246 17.66797,20.93164 3.44184,8.22287 2.74151,18.89916 3.04687,28.60352 0.30409,9.66387 -0.81609,19.59754 -1.21875,29.41992 -0.41442,9.7994 -1.01189,19.53001 -1.20703,29.43359 -0.20723,9.89883 -0.50034,20.16612 0,29.95313 0.48799,9.77218 1.54947,19.32472 2.97656,28.71679 1.43966,9.39431 3.42648,18.5437 5.60938,27.62891 2.18257,9.0717 4.45369,18.12319 7.48047,26.84961 3.03855,8.73735 6.7343,17.19304 10.72265,25.52344 3.98949,8.33279 8.47786,16.4539 13.23438,24.46679 4.74339,8.01132 9.61129,15.97704 15.26172,23.62891 5.63659,7.64967 11.89438,15.16512 18.58007,22.26562 6.69769,7.10029 14.14079,14.16662 21.58399,20.31641 v -0.002 c 7.44415,6.16279 15.20308,11.52976 23.08203,16.60351 7.87999,5.07441 15.91958,9.75959 24.2168,13.85938 8.28435,4.08728 16.79981,7.64997 25.52343,10.67578 8.7396,3.02711 17.82771,5.20959 26.87305,7.46484 9.02948,2.25434 17.93553,4.89093 27.42578,6.08789 9.49956,1.19661 19.72441,1.22156 29.50391,1.09961 9.78009,-0.12196 19.77037,-0.45054 29.19531,-1.83007 9.42117,-1.36681 18.52682,-3.48975 27.31445,-6.39454 8.792,-2.90623 19.26587,-7.66227 25.41016,-11.02148 3.07201,-1.68287 6.49825,-4.04778 8.875,-5.95313 1.18838,-0.95267 2.11144,-1.7873 2.60742,-2.38085 0.124,-0.14839 0.22144,-0.28226 0.29102,-0.4043 0.0696,-0.12204 0.11762,-0.23067 0.11523,-0.35352 -0.002,-0.12284 -0.0975,-0.25342 -0.21484,-0.29687 -0.11733,-0.0435 -0.24527,-0.0399 -0.4043,-0.0156 -0.32291,0.0493 -0.79807,0.21589 -1.42969,0.47461 -0.63161,0.25873 -1.41214,0.61032 -2.31054,1.03125 -1.79681,0.84186 -4.06382,1.95989 -6.53125,3.15821 -4.93486,2.39662 -10.67537,5.11306 -15.04102,6.57031 -8.75435,2.93436 -17.90053,4.93205 -27.28125,6.35742 -9.38166,1.41335 -19.41946,2.40032 -28.98828,2.19336 -9.56823,-0.21913 -19.22866,-1.69265 -28.45312,-3.49609 -9.22156,-1.80292 -18.19702,-4.2281 -26.86914,-7.33399 -8.68348,-3.11777 -17.05257,-6.99148 -25.20313,-11.36523 -8.1636,-4.37424 -16.14156,-9.17313 -23.74023,-14.89649 -7.59947,-5.72398 -15.12867,-12.49581 -21.86524,-19.43945 -6.72314,-6.94236 -12.93547,-14.56886 -18.51562,-22.23242 -5.57909,-7.66211 -10.49968,-15.59401 -14.95899,-23.72071 -4.44516,-8.12305 -8.11365,-16.57807 -11.73437,-25.05078 -3.61993,-8.47086 -7.04373,-17.03725 -9.99219,-25.78515 -2.94919,-8.75009 -5.60529,-17.62025 -7.71289,-26.72071 -2.09439,-9.09597 -3.27601,-18.58056 -4.89844,-27.90039 -1.62211,-9.3181 -3.53828,-18.49441 -4.79297,-27.94726 -1.26668,-9.43934 -1.76477,-19.21681 -2.77734,-28.78125 -1.02453,-9.56223 -2.37765,-18.97281 -3.32813,-28.55078 a 0.16603545,0.16603545 0 0 0 0,-0.002 c -0.96176,-9.56883 -0.753,-19.63032 -2.39062,-28.95508 -1.63413,-9.30467 -3.46583,-18.54806 -7.42774,-26.9121 -1.98733,-4.19547 -5.36859,-8.53494 -8.60351,-12.55469 -3.23492,-4.01975 -6.32582,-7.72571 -7.72266,-10.59766 -1.41701,-2.91342 -2.7535,-5.25734 -3.14453,-7.11914 -0.19551,-0.9309 -0.15866,-1.73174 0.20117,-2.44531 0.35984,-0.71357 1.05165,-1.35349 2.21094,-1.93164 2.2832,-1.1416 7.13206,-1.50766 12.57813,-1.6875 5.44606,-0.17985 11.50338,-0.1898 16.29687,-0.69727 9.55891,-1.02418 19.09713,-2.09753 28.40625,-3.73242 9.30722,-1.62234 18.45544,-3.64828 27.44531,-6.03906 8.98955,-2.40292 17.83422,-5.14644 26.4961,-8.36719 8.64896,-3.20827 17.13813,-6.83248 25.42187,-10.93164 8.28241,-4.09852 16.42021,-8.5636 24.30274,-13.66406 7.86883,-5.08729 15.55485,-10.67488 22.96093,-16.87305 7.40236,-6.19505 15.24667,-13.05275 21.5,-20.33203 a 0.16603545,0.16603545 0 0 0 0.002,0 c 6.25071,-7.28838 11.54673,-15.20953 16.01367,-23.33789 4.47833,-8.1391 8.31357,-16.53757 10.8418,-25.49024 2.53938,-8.94886 4.19913,-18.73929 4.3457,-28.19336 0.14657,-9.46571 -1.16094,-19.5129 -3.46875,-28.54882 -2.30814,-9.04943 -5.86055,-17.5712 -10.36524,-25.68946 -4.50608,-8.13293 -10.28029,-15.93467 -16.67578,-23.0625 -6.41073,-7.14339 -14.2082,-13.87611 -21.75976,-19.74414 -7.54336,-5.87108 -15.48542,-10.82723 -23.53516,-15.48633 -4.0391,-2.3439 -8.9861,-4.32158 -13.54297,-6.28906 -4.55686,-1.96748 -8.72339,-3.9297 -11.18945,-6.19726 -2.47484,-2.27565 -4.67028,-5.67308 -5.79492,-8.66016 -0.56232,-1.49354 -0.85598,-2.88351 -0.79492,-3.9668 0.0611,-1.08328 0.4524,-1.8359 1.27343,-2.16601 0.81867,-0.32803 2.35096,-0.24792 4.29688,0.13086 1.94592,0.37877 4.311,1.04161 6.84765,1.81445 5.07332,1.54569 10.83228,3.53403 15.34571,4.58594 8.99487,2.10857 18.10291,4.47463 27.41406,6.09765 9.30721,1.63456 18.78701,2.86636 28.43555,3.6836 9.63301,0.81698 19.73368,1.53759 29.42578,1.23242 9.68972,-0.29288 19.38869,-1.41542 28.68555,-3.0625 9.30814,-1.64692 18.41234,-3.7709 27.14062,-6.81055 8.72308,-3.05001 17.24285,-6.58824 25.23047,-11.44922 7.97452,-4.8408 17.06192,-10.47897 22.68555,-17.69531 5.61959,-7.18332 11.80949,-17.52604 11.01949,-25.52539 -0.7896,-7.99544 -8.6219,-17.19134 -15.73824,-22.11523 -7.1366,-4.95016 -17.58216,-6.03776 -26.92774,-7.45118 -4.68912,-0.70825 -9.63433,-1.12667 -14.60351,-1.29296 -1.2423,-0.0416 -2.48697,-0.0675 -3.72852,-0.0781 z m 9.23633,6.6875 c 4.64774,0.0733 -0.15859,-0.1036 4.72265,0.0977 4.31233,0.29556 -0.38736,-0.12328 4.64844,0.35156 4.17845,0.55602 -0.24396,-0.19464 4.54883,0.64648 4.12195,0.83163 -0.40835,-0.27637 4.41211,0.95899 2.20533,0.56118 8.56394,3.05224 6.46484,2.17578 2.22281,0.91859 8.49965,4.48177 6.4375,3.24414 0.70541,0.4257 1.42135,0.87528 2.09961,1.34766 4.11415,2.72965 -2.22095,-1.74707 2.01758,1.45703 1.8878,1.46896 6.49642,6.98408 5.06445,5.0625 1.34257,1.76632 3.41057,8.10239 2.86327,5.95312 0.5477,2.13102 0.3546,8.73254 0.5176,6.54297 -0.6535,4.32362 0.5643,-0.905 -0.752,4.4961 -0.5751,2.27829 -3.46888,8.71078 -2.43941,6.5996 h 0.002 c -2.09595,3.84995 0.42936,-0.22846 -2.33203,4.12696 -2.50997,3.54524 0.41993,-0.14781 -2.75586,3.77734 -1.45923,1.77984 -6.45905,6.54642 -4.75,5.00391 -1.70363,1.55234 -7.24879,5.68356 -5.375,4.34179 -1.8887,1.33771 -7.82564,4.94004 -5.82813,3.77149 -0.65499,0.4003 -1.32384,0.7787 -2.00585,1.15625 -1.99123,1.18203 -6.13926,3.25073 -4.08008,2.19141 -2.04605,1.0584 -8.30205,3.99534 -6.20899,3.0332 -2.07023,0.96208 -8.38628,3.6093 -6.27539,2.74023 -2.10554,0.86402 -8.50872,3.23482 -6.36914,2.45899 -4.25527,1.4794 0.33023,-0.0423 -4.28711,1.47461 -2.16133,0.70517 -8.72055,2.57831 -6.52539,1.98437 a 0.16603545,0.16603545 0 0 0 -0.002,0 c -4.1143,1.11602 0.56631,-0.0547 -4.39453,1.16797 -0.74373,0.18288 -1.48851,0.36681 -2.23047,0.53711 -2.22766,0.55067 -6.73128,1.44353 -4.48242,0.98633 -2.26514,0.46205 -9.10244,1.62435 -6.82227,1.24219 -0.76514,0.12141 -1.53208,0.23224 -2.29883,0.34179 -2.31256,0.34828 -6.97787,0.86151 -4.65234,0.60938 -2.3569,0.28528 -9.45491,0.87596 -7.08789,0.69336 a 0.16603545,0.16603545 0 0 0 -0.002,0 c -4.47052,0.3018 0.62546,0.0288 -4.7754,0.30468 -0.80302,0.0487 -1.59544,0.085 -2.39843,0.10938 -4.77495,0.20879 2.78349,-0.0805 -2.41407,0.0859 -4.47573,0.0962 0.44526,0.0413 -4.83398,0.084 -3.66347,-0.0127 -1.40656,0.0425 -4.85156,-0.0352 -4.7878,-0.13084 0.28861,0.0386 -4.83594,-0.13476 -0.80349,-0.0365 -1.6186,-0.0729 -2.42187,-0.10938 -4.77129,-0.23996 2.66774,0.19405 -2.41407,-0.14648 -0.80466,-0.0487 -1.60782,-0.0975 -2.39843,-0.1582 -4.7236,-0.31767 2.6368,0.20435 -2.4004,-0.1836 -2.38169,-0.21668 -9.51275,-1.00788 -7.13867,-0.71679 -4.58359,-0.56838 0.10046,0.0824 -4.6914,-0.59766 -0.77617,-0.0971 -1.55716,-0.22021 -2.32618,-0.33008 -4.58406,-0.65547 2.56395,0.39214 -2.3164,-0.35351 -2.28461,-0.36305 -9.11084,-1.6126 -6.83594,-1.19336 -4.23403,-0.82544 0.59939,0.13227 -4.50781,-0.88868 -0.74262,-0.15826 -1.48621,-0.31641 -2.22852,-0.4746 -4.41044,-0.95363 2.5116,0.57731 -2.24218,-0.48829 -0.74129,-0.15796 -1.48365,-0.32951 -2.22852,-0.48828 -2.22991,-0.47562 -6.65801,-1.56087 -4.43945,-1.03515 -4.43797,-1.05417 0.36518,0.11739 -4.44922,-1.07422 -2.2335,-0.51974 -8.91001,-2.17671 -6.67969,-1.64453 -4.44263,-1.12831 0.38085,0.11299 -4.47461,-1.13477 -4.45771,-1.11527 0.28258,0.0937 -4.50976,-1.13281 -2.28683,-0.565 -9.15259,-2.23849 -6.86329,-1.6836 -4.51966,-1.09811 0.12168,0.054 -4.61914,-1.11914 -2.07694,-0.56496 -7.86348,-3.49935 -6.03906,-2.31445 -1.29452,-1.81931 -1.53786,0.056 -0.83203,-2.30664 0.15947,-0.42143 0.4793,-0.89131 0.80664,-1.33984 h -0.002 c 0.33375,-0.45296 0.7448,-0.89867 1.18164,-1.34766 0.44525,-0.44508 0.95209,-0.89097 1.49609,-1.32617 a 0.16603545,0.16603545 0 0 0 0.002,0 c 0.5318,-0.43509 1.12771,-0.8743 1.73633,-1.3125 0.60574,-0.43614 1.24855,-0.86082 1.90625,-1.28711 a 0.16603545,0.16603545 0 0 0 0.002,0 c 0.66866,-0.43765 1.35006,-0.86403 2.04296,-1.27734 a 0.16603545,0.16603545 0 0 0 0,-0.002 c 0.69306,-0.42556 1.40012,-0.83899 2.09571,-1.2539 0.694,-0.41398 1.40182,-0.82711 2.09765,-1.24219 0.69388,-0.41387 1.38701,-0.81804 2.07032,-1.2207 v 0.002 c 0.69564,-0.40275 1.3778,-0.80665 2.06054,-1.20899 0.68129,-0.40147 1.36462,-0.79017 2.04883,-1.19336 0.66996,-0.38979 1.3523,-0.78143 2.02344,-1.17187 0.66898,-0.38925 1.3509,-0.77784 2.02148,-1.16797 l 0.002,-0.002 c 0.66973,-0.37751 1.32855,-0.75499 1.99804,-1.14453 l 0.002,-0.002 c 0.67046,-0.3779 1.32702,-0.75375 1.99609,-1.13086 0.65534,-0.37622 1.32649,-0.74037 1.98633,-1.11914 l 0.002,-0.002 c 0.67187,-0.36652 1.32822,-0.74484 1.98438,-1.10937 0.65759,-0.36531 1.32912,-0.73147 1.98828,-1.09766 0.65841,-0.3658 1.3163,-0.73195 1.97461,-1.09766 v 0.002 c 0.66914,-0.365 1.32742,-0.71988 1.98633,-1.08594 l 0.002,-0.002 c 0.65826,-0.35352 1.32742,-0.71749 1.98437,-1.07032 0.67123,-0.35391 1.33015,-0.70732 2,-1.06054 0.65765,-0.35317 1.32729,-0.70662 1.98633,-1.06055 0.67059,-0.35358 1.34067,-0.70626 2.00977,-1.04688 a 0.16603545,0.16603545 0 0 0 0.002,-0.002 c 0.65601,-0.35231 1.32733,-0.69174 1.99805,-1.0332 a 0.16603545,0.16603545 0 0 0 0.002,-0.002 c 0.66874,-0.3526 1.33786,-0.69407 2.00781,-1.03515 0.6834,-0.34167 1.3548,-0.68205 2.02539,-1.02344 h -0.004 c 0.67129,-0.32952 1.35608,-0.66998 2.02734,-1.01172 h -0.004 c 0.66861,-0.32821 1.35206,-0.65631 2.02344,-0.99804 l 0.004,-0.002 c 0.68145,-0.32856 1.36326,-0.65941 2.0332,-0.98828 v 0.002 c 0.68117,-0.32841 1.36451,-0.64468 2.04883,-0.97461 0.68131,-0.32852 1.36223,-0.6459 2.04492,-0.96289 a 0.16603545,0.16603545 0 0 0 0.002,0 c 0.68094,-0.32828 1.3629,-0.64817 2.04493,-0.96484 0.69262,-0.31594 1.37554,-0.61845 2.05859,-0.93555 l 0.004,-0.002 c 0.69585,-0.30527 1.37707,-0.6226 2.06836,-0.92578 a 0.16603545,0.16603545 0 0 0 0.002,0 c 0.68204,-0.30447 1.37538,-0.60925 2.07031,-0.91406 0.69564,-0.30511 1.3776,-0.61068 2.07031,-0.90235 a 0.16603545,0.16603545 0 0 0 0.002,0 c 0.6932,-0.30402 1.38883,-0.59596 2.08398,-0.88867 v 0.002 c 0.70706,-0.29258 1.40166,-0.58667 2.0957,-0.8789 l 0.002,-0.002 c 0.6946,-0.28029 1.39918,-0.57208 2.09179,-0.85156 0.70846,-0.28094 1.41681,-0.57253 2.10938,-0.83984 0.70726,-0.28047 1.41373,-0.56248 2.11914,-0.83008 a 0.16603545,0.16603545 0 0 0 0.002,0 c 0.70556,-0.27978 1.41196,-0.54815 2.11914,-0.81641 0.70718,-0.26824 1.41369,-0.53558 2.11914,-0.79101 a 0.16603545,0.16603545 0 0 0 0.002,0 c 0.71818,-0.26779 1.42561,-0.52341 2.14453,-0.7793 0.70541,-0.25541 1.42275,-0.51191 2.12891,-0.76758 l 0.004,-0.002 c 0.71933,-0.24388 1.43772,-0.49732 2.1543,-0.74023 0.71951,-0.24387 1.43874,-0.48964 2.15625,-0.72071 a 0.16603545,0.16603545 0 0 0 0.002,0 c 0.71708,-0.24307 1.43597,-0.47475 2.16797,-0.71875 0.71891,-0.23152 1.44993,-0.46451 2.16797,-0.68359 a 0.16603545,0.16603545 0 0 0 0.002,0 c 0.72918,-0.2309 1.46032,-0.45044 2.17969,-0.66992 0.73153,-0.21946 1.46191,-0.43877 2.19336,-0.65821 l -0.002,0.002 c 0.73324,-0.20776 1.46551,-0.4281 2.20703,-0.63477 0.72921,-0.20661 1.46081,-0.40197 2.20508,-0.60937 0.73093,-0.19489 1.47488,-0.38888 2.21875,-0.58399 0.74427,-0.19522 1.47338,-0.38994 2.21484,-0.57226 0.7433,-0.18279 1.50004,-0.36586 2.24414,-0.54883 0.74198,-0.18246 1.48464,-0.35285 2.24023,-0.52344 a 0.16603545,0.16603545 0 0 0 0.002,0 c 0.73928,-0.18181 1.49497,-0.3408 2.25195,-0.51172 0.74517,-0.15881 1.4996,-0.33095 2.25195,-0.47656 a 0.16603545,0.16603545 0 0 0 0.002,0 c 0.75586,-0.15849 1.51119,-0.315 2.27734,-0.46094 a 0.16603545,0.16603545 0 0 0 0,-0.002 c 0.75571,-0.14628 1.51134,-0.28927 2.2793,-0.43555 a 0.16603545,0.16603545 0 0 0 0,-0.002 c 0.75405,-0.14594 1.52312,-0.28001 2.29101,-0.41406 0.75537,-0.13402 1.52246,-0.267 2.28907,-0.38868 0.76763,-0.12186 1.5353,-0.24544 2.31445,-0.36718 0.76985,-0.10997 1.53809,-0.23236 2.3164,-0.3418 0.77813,-0.10944 1.54507,-0.20657 2.32618,-0.31641 0.78013,-0.0976 1.55722,-0.1941 2.33593,-0.27929 a 0.16603545,0.16603545 0 0 0 0.004,0 c 0.77875,-0.0974 1.55749,-0.18227 2.34961,-0.26758 a 0.16603545,0.16603545 0 0 0 0,-0.002 c 0.7782,-0.0852 1.57095,-0.15533 2.35156,-0.22852 0.79199,-0.0731 1.58336,-0.14762 2.375,-0.2207 0.79093,-0.061 1.58362,-0.12077 2.375,-0.18164 0.7924,-0.0488 1.59614,-0.0978 2.38867,-0.14649 0.7906,-0.0486 1.59585,-0.085 2.38672,-0.10937 a 0.16603545,0.16603545 0 0 0 0.002,0 c 0.79083,-0.0365 1.59219,-0.0622 2.38281,-0.0742 a 0.16603545,0.16603545 0 0 0 0.004,0 c 0.78898,-0.0242 1.57852,-0.0234 2.3711,-0.0234 z" fill="#FFFFFF"/></svg>