<svg xmlns="http://www.w3.org/2000/svg" viewBox="0 0 1024 1024" width="2966" height="1859"><path d="m 938.96154,127.70004 c -9.55833,0.59741 -18.84844,2.70658 -28.01663,4.65726 -9.1682,1.95069 -18.16571,4.30369 -27.00472,7.05902 -8.83902,2.75533 -17.44638,6.07149 -26.02937,9.44861 -8.58299,3.3771 -17.09283,6.9127 -25.46857,10.77749 -8.37572,3.8648 -16.62955,8.03437 -24.79801,12.4234 -8.1563,4.37683 -15.84927,11.53339 -24.18843,13.86201 -8.33915,2.31643 -17.06844,1.29233 -25.8587,0.0732 -8.80243,-1.21916 -17.90966,-4.97423 -26.89499,-7.36381 -8.98531,-2.40178 -17.97062,-4.79137 -27.02907,-7.02244 -9.05849,-2.2189 -18.12914,-4.41342 -27.30954,-6.32754 -9.19257,-1.9019 -18.59241,-3.29176 -27.80938,-5.13272 -9.21695,-1.84095 -18.22664,-4.18177 -27.49238,-5.9008 -9.26572,-1.71901 -18.71433,-3.01136 -28.11416,-4.41342 -9.38764,-1.40203 -18.82406,-2.73094 -28.26048,-4.02326 -9.4486,-1.28015 -18.93377,-2.46273 -28.41895,-3.68192 -9.47298,-1.21917 -18.88502,-2.59682 -28.43116,-3.60874 -9.55831,-1.02412 -19.26296,-1.70685 -28.89444,-2.5237 -9.64366,-0.81686 -19.21418,-1.78 -28.94319,-2.38959 -9.72903,-0.60959 -19.53119,-1.04849 -29.41868,-1.25575 -9.89971,-0.21945 -20.1042,-0.34135 -29.94294,-0.0243 -9.85094,0.31697 -19.49461,1.12163 -29.13828,1.92629 -9.65585,0.80466 -19.31172,1.57272 -28.73593,2.90164 -9.42422,1.34108 -18.73873,2.93819 -27.82158,5.12053 -9.07065,2.18232 -17.90966,4.94985 -26.62677,7.98558 -8.71709,3.04793 -17.40979,6.15684 -25.67582,10.27766 -8.2782,4.1208 -16.43447,8.82682 -23.94458,14.4716 -7.51011,5.64478 -15.3494,12.11859 -21.14049,19.39707 -5.77889,7.29066 -11.11888,15.53227 -13.58159,24.31033 -2.46275,8.79025 -3.25521,19.61653 -1.207,28.39459 2.0604,8.79025 11.60653,21.72568 13.55722,24.31034 1.95068,2.58466 -0.86562,-2.68218 -1.86534,-8.81464 -0.98752,-6.13243 -5.4619,-19.16543 -4.08424,-27.95567 1.37768,-8.80245 6.71767,-17.51954 12.32588,-24.84677 5.62038,-7.32724 13.81323,-13.52065 21.35993,-19.11666 7.55888,-5.59601 15.71515,-10.24106 23.94458,-14.47161 8.22944,-4.21835 16.7149,-7.82711 25.44417,-10.86284 8.71711,-3.02355 17.83654,-5.10834 26.89499,-7.32725 9.05849,-2.21889 18.10475,-4.46217 27.45582,-5.98615 9.35108,-1.52397 18.99476,-2.31643 28.62623,-3.16986 9.63147,-0.84122 19.37267,-1.40203 29.13827,-1.91409 9.76558,-0.52425 19.6287,-1.19478 29.44307,-1.19478 9.81436,0.0121 19.61651,0.80464 29.43086,1.21918 9.81436,0.40231 19.71408,0.59738 29.43087,1.21916 9.72904,0.6096 19.29955,1.59711 28.91884,2.46274 9.61929,0.86561 19.32392,1.53615 28.79691,2.73095 9.48517,1.19479 18.68994,3.0723 28.10197,4.43778 9.41203,1.36548 18.99474,2.31643 28.38238,3.74288 9.38764,1.42643 18.65337,3.15765 27.94348,4.84011 9.27792,1.68247 18.53146,3.4259 27.7484,5.25466 9.22917,1.82876 18.43393,3.6819 27.57775,5.71791 9.13163,2.02385 18.20227,4.21835 27.24855,6.46163 9.04628,2.25549 18.28762,4.37684 27.0169,7.04684 8.7415,2.68218 25.35885,6.97368 25.38324,8.98531 0.0244,2.02383 -16.38572,3.48684 -25.21254,3.12109 -8.82685,-0.35357 -18.44612,-3.65753 -27.74843,-5.27903 -9.31449,-1.6215 -18.60459,-3.26738 -28.08977,-4.44998 -9.49737,-1.1826 -19.202,-1.82878 -28.84569,-2.63344 -9.65585,-0.80463 -19.20197,-1.84093 -29.02854,-2.21888 -9.82654,-0.36577 -19.95788,0 -29.93073,0.0123 -9.98504,0 -20.12857,-0.41451 -29.93073,0.0123 -9.80217,0.42669 -19.38489,1.38987 -28.89444,2.52368 -9.50957,1.14604 -18.82406,2.73096 -28.13855,4.34027 -9.31449,1.6093 -18.59241,3.27958 -27.73622,5.31559 -9.13162,2.03604 -18.11693,4.44999 -27.07788,6.90054 -8.96093,2.46272 -17.93405,4.87669 -26.69991,7.8149 -8.75368,2.95041 -17.33668,6.31533 -25.85871,9.85094 -8.50983,3.53561 -16.90994,7.33943 -25.21252,11.38709 -8.30258,4.04766 -16.45886,8.46107 -24.57856,12.93543 -8.13189,4.46219 -16.33695,8.75369 -24.18843,13.8864 -7.85149,5.13273 -15.39819,10.99696 -22.93268,16.88558 -7.54669,5.90081 -15.12995,11.96011 -22.2865,18.48268 -7.15655,6.53478 -14.22778,13.50846 -20.65283,20.71377 -6.42505,7.21752 -12.48434,14.7886 -17.88528,22.53036 -5.38875,7.74175 -10.39957,15.6542 -14.4716,23.94458 -4.05987,8.29039 -7.26629,16.94653 -9.9119,25.83432 -2.63341,8.88778 -5.35217,18.09255 -5.91299,27.50456 -0.57302,9.39986 0.39012,19.79941 2.4993,28.90665 2.09699,9.10722 5.29123,17.88529 10.10696,25.74896 4.82794,7.86368 11.69189,15.49571 18.82406,21.44529 7.14436,5.96175 15.56886,10.59462 24.01773,14.28872 8.44889,3.6941 17.32447,6.36408 26.67555,7.88806 9.35107,1.52396 19.77501,1.65809 29.41869,1.25574 9.63147,-0.40231 19.23856,-1.73123 28.40676,-3.6819 9.156,-1.96288 17.94626,-4.85231 26.59019,-8.07092 8.64397,-3.23083 17.14159,-6.81521 25.27351,-11.26519 8.13188,-4.44999 15.89804,-9.78998 23.53006,-15.45912 7.63204,-5.66917 15.30064,-11.82599 22.23774,-18.56803 6.94931,-6.75423 13.36216,-14.45942 19.39708,-21.94516 6.03489,-7.48573 11.69187,-15.10556 16.8246,-22.96923 5.13273,-7.8515 9.88752,-15.86147 13.93516,-24.16405 4.04767,-8.30259 7.52232,-16.8368 10.3508,-25.63925 2.82848,-8.81463 5.10834,-17.84871 6.63231,-27.18759 1.53616,-9.35107 2.92602,-19.40926 2.56028,-28.88225 -0.37795,-9.47298 -1.92631,-19.16542 -4.79137,-27.95566 -2.86507,-8.80244 -10.37518,-22.27433 -12.4112,-24.79802 -2.02382,-2.52371 -0.82904,3.46245 0.20727,9.64367 1.0363,6.18122 5.21806,17.95844 6.02271,27.43142 0.79248,9.48519 -0.10973,19.92133 -1.23136,29.44307 -1.10945,9.52176 -2.99917,18.71434 -5.46191,27.67527 -2.46273,8.96093 -5.69354,17.59268 -9.32668,26.06595 -3.63315,8.47326 -7.82709,16.72708 -12.47215,24.77363 -4.64506,8.05874 -9.81438,15.89804 -15.41038,23.55445 -5.60819,7.65642 -11.60654,15.20312 -18.19009,22.39624 -6.58352,7.19313 -13.94735,14.49598 -21.32335,20.78694 -7.37602,6.27873 -15.04463,11.85036 -22.93267,16.90994 -7.88805,5.04739 -15.9468,9.69244 -24.3835,13.39874 -8.44889,3.70628 -17.16598,6.75423 -26.28539,8.82682 -9.11943,2.0726 -18.98256,3.62096 -28.45556,3.59655 -9.47296,-0.0243 -19.73843,-0.53643 -28.38238,-3.73066 -8.65614,-3.20644 -17.11722,-8.92435 -23.53007,-15.45914 -6.40067,-6.53477 -11.99668,-14.97147 -14.91051,-23.74953 -2.90162,-8.77805 -2.76751,-19.3483 -2.53588,-28.88224 0.23164,-9.53394 1.69465,-19.26297 3.92576,-28.32143 2.23108,-9.05846 5.7545,-17.5805 9.48516,-26.00497 3.71848,-8.4367 8.07095,-16.61736 12.89888,-24.60296 4.82792,-7.97341 10.28984,-15.69076 16.06871,-23.27404 5.7667,-7.58328 11.93572,-15.00805 18.55585,-22.24993 6.6201,-7.22971 13.89859,-14.64228 21.17706,-21.16488 7.26629,-6.52258 14.88612,-12.22832 22.48158,-17.98284 7.60764,-5.74231 15.22749,-11.43585 23.10335,-16.50761 7.87589,-5.05959 15.98338,-9.58271 24.18843,-13.8864 8.19285,-4.30367 16.5442,-8.22945 24.98088,-11.93571 8.44889,-3.70631 16.98311,-7.19315 25.67583,-10.30204 8.69271,-3.1089 17.56829,-5.75451 26.46827,-8.36354 8.89997,-2.60902 17.77557,-5.26683 26.93159,-7.27848 9.14379,-1.99945 18.55583,-3.36492 27.95565,-4.76696 9.39984,-1.40207 18.78749,-2.82848 28.41897,-3.64534 9.64367,-0.80464 19.54337,-1.0241 29.43087,-1.23135 9.89969,-0.19507 20.04322,-0.19507 29.93073,0 9.89972,0.19507 19.71407,0.59739 29.4431,1.19478 9.729,0.59739 19.47019,1.18258 28.94319,2.40177 9.47298,1.21918 18.73872,2.91384 27.90689,4.91329 9.15603,1.98724 26.11474,2.85286 27.07788,7.03463 0.96315,4.18178 -14.03271,11.9601 -21.28678,18.06817 -7.26628,6.09587 -14.97148,12.04545 -22.26213,18.53146 -7.29066,6.49819 -14.52039,13.4231 -21.48186,20.40897 -6.94931,6.98587 -13.64257,14.30093 -20.26268,21.53062 -6.62013,7.24192 -13.10614,14.53257 -19.45804,21.88419 -6.3397,7.35164 -12.5453,14.7642 -18.6046,22.22557 -6.0593,7.47352 -12.00887,14.98364 -17.75119,22.57909 -5.75448,7.59546 -11.28954,15.28845 -16.75145,23.00584 -5.47409,7.70517 -10.74094,15.50789 -16.08091,23.27404 -5.35219,7.76614 -10.70436,15.52008 -15.99559,23.31061 -5.29121,7.77835 -10.59462,15.56887 -15.7761,23.39597 -5.1815,7.8393 -10.26545,15.71516 -15.31284,23.60322 -5.0352,7.88806 -9.89969,15.84927 -14.95927,23.73732 -5.07176,7.87588 -10.2045,15.72737 -15.42257,23.54226 -5.21805,7.81492 -10.55804,15.58105 -15.88583,23.35938 -5.3278,7.77834 -10.57025,15.58106 -16.05653,23.28625 -5.49848,7.70519 -11.27736,15.27626 -16.88558,22.93268 -5.60818,7.6564 -10.96038,15.42255 -16.77584,22.99362 -5.81545,7.57109 -11.91134,15.02023 -18.11692,22.43283 -6.19343,7.41258 -12.59408,14.73982 -19.08009,22.03048 -6.49821,7.29066 -13.1427,14.73982 -19.88474,21.68912 -6.74204,6.9371 -13.56942,13.25243 -20.57967,19.97006 -7.01026,6.72986 -14.14243,14.04491 -21.50624,20.37241 -7.35162,6.32753 -14.97147,12.02107 -22.62788,17.62927 -7.65642,5.60822 -15.36161,11.09449 -23.29842,16.03216 -7.93684,4.92545 -16.06873,9.38763 -24.31036,13.5694 -8.2538,4.18179 -16.51982,8.31477 -25.16375,11.5212 -8.65613,3.19426 -17.67804,5.51068 -26.76089,7.68081 -9.08286,2.17012 -18.23885,4.13299 -27.72403,5.33999 -9.47299,1.20698 -19.54336,2.17012 -29.13827,1.87752 -9.58271,-0.30479 -19.22637,-1.74342 -28.40677,-3.66972 -9.16819,-1.93854 -18.202277,-4.23058 -26.651157,-7.9125 C 77.565902,781.50709 69.104829,776.95958 61.960467,771.01001 54.828296,765.04825 48.0253,757.35525 43.19737,749.49157 38.369437,741.61571 34.687529,732.8986 32.980685,723.77918 c -1.706844,-9.10724 -1.450816,-19.73844 -0.03658,-28.96759 1.414244,-9.22917 4.803549,-17.97063 8.522031,-26.40731 3.730673,-8.43669 8.302579,-16.50763 13.825441,-24.20063 5.535053,-7.70517 12.374622,-15.30064 19.3483,-21.96952 6.961487,-6.68107 14.678863,-12.72818 22.445004,-18.05598 7.778339,-5.32778 15.849279,-9.93627 24.176239,-13.91078 8.33916,-3.97451 16.9953,-7.14436 25.83432,-9.92407 8.82682,-2.77972 17.79995,-5.20589 27.151,-6.72985 9.35108,-1.51178 19.21419,-2.15793 28.9554,-2.35301 9.72902,-0.20727 19.97009,-0.0488 29.45526,1.15822 9.47299,1.21916 22.77419,5.48629 27.40706,6.10806 4.63287,0.62178 4.7182,-0.56083 0.37794,-2.36521 -4.34027,-1.81656 -17.28791,-6.46162 -26.41952,-8.49763 -9.1316,-2.03603 -18.66556,-3.1089 -28.38238,-3.73067 -9.72901,-0.62178 -20.31145,-0.80466 -29.96731,-0.0123 -9.65588,0.78027 -18.83625,2.66999 -27.98007,4.7182 -9.13162,2.03604 -18.12912,4.4134 -26.82184,7.51012 -8.69272,3.10889 -17.15378,6.76642 -25.33445,11.09449 -8.192853,4.32808 -16.105296,9.31448 -23.773905,14.88611 -7.668608,5.57163 -15.593244,11.6797 -22.27432,18.53147 -6.668886,6.83957 -12.728183,14.65446 -17.775565,22.54253 -5.035193,7.87587 -9.229152,16.12969 -12.472157,24.76144 -3.243004,8.63177 -6.242175,17.70241 -6.998062,27.0413 -0.755889,9.33887 0.316984,19.86034 2.438349,28.96757 2.133555,9.09504 5.449709,17.82434 10.314216,25.66364 4.864508,7.83928 11.813804,15.17871 18.860632,21.37212 7.046829,6.19341 15.190916,11.49681 23.395962,15.78832 8.192852,4.30367 16.934334,7.30285 25.797735,9.99723 8.863395,2.69437 18.068175,4.54752 27.370475,6.16903 9.3145,1.63369 18.7387,2.97477 28.46772,3.57218 9.72903,0.5974 20.1042,0.41451 29.91855,0.0244 9.81435,-0.39015 19.48241,-1.15822 28.96761,-2.3652 9.47297,-1.20699 18.77527,-2.84067 27.9069,-4.8767 9.13161,-2.03602 18.09253,-4.51094 26.89499,-7.35163 8.80243,-2.84067 17.37323,-6.22997 25.91964,-9.68024 8.54642,-3.45025 17.08064,-6.94931 25.38322,-11.00914 8.29039,-4.07206 16.34912,-8.69272 24.38349,-13.41093 8.02216,-4.70601 16.03215,-9.47298 23.7739,-14.87393 7.74175,-5.38874 15.12996,-11.63093 22.68885,-17.49516 7.54669,-5.86421 15.25186,-11.33832 22.60349,-17.67802 7.36382,-6.33971 14.55695,-13.36216 21.53063,-20.33584 6.97368,-6.97368 13.83761,-14.22777 20.31144,-21.51843 6.47381,-7.29066 12.37463,-14.82517 18.55584,-22.24993 6.16904,-7.42478 12.59408,-14.73982 18.49488,-22.27433 5.90082,-7.53448 11.44805,-15.21529 16.92215,-22.92047 5.47409,-7.71738 10.72874,-15.52011 15.92241,-23.34722 5.1937,-7.82708 10.1801,-15.73952 15.2275,-23.62759 5.04738,-7.88805 10.046,-15.8005 15.04462,-23.70075 5.0108,-7.91246 10.1801,-15.75173 14.98365,-23.73733 4.80354,-7.98559 9.13162,-16.16626 13.84981,-24.20062 4.70604,-8.02217 9.55834,-15.99556 14.42284,-23.95679 4.86451,-7.96121 9.88751,-15.86145 14.7886,-23.81046 4.88888,-7.94902 9.68024,-15.94681 14.58133,-23.89582 4.90108,-7.94901 9.85094,-15.88586 14.82517,-23.79831 4.97422,-7.91244 9.97283,-15.82488 15.04462,-23.70075 5.07174,-7.87586 10.1801,-15.73955 15.39816,-23.55445 5.23026,-7.81492 10.4971,-15.61764 15.93461,-23.34719 5.43753,-7.71739 10.96036,-15.41036 16.70269,-23.01803 5.73012,-7.59546 11.48462,-15.19091 17.69022,-22.60349 6.20561,-7.41257 12.67942,-14.81298 19.50681,-21.8476 6.83955,-7.03464 13.83761,-18.89722 21.48185,-20.38461 7.64421,-1.48739 16.67831,6.32753 24.39568,11.47243 7.71737,5.14492 15.64201,12.24053 21.90857,19.37268 6.25436,7.14436 11.58217,15.14217 15.6542,23.43255 4.07204,8.2904 7.02246,17.12939 8.77805,26.3098 1.74342,9.18038 2.36521,19.34829 1.73125,28.74812 -0.63399,9.39983 -2.75534,18.82408 -5.54725,27.6387 -2.79191,8.82683 -6.70547,17.17817 -11.20422,25.29787 -4.48656,8.11969 -9.82654,15.99555 -15.75173,23.40815 -5.9252,7.41257 -12.77696,14.48379 -19.77502,21.07954 -7.01025,6.59572 -14.55695,13.03296 -22.26212,18.51925 -7.70518,5.47409 -15.73955,10.18012 -23.98117,14.37406 -8.24163,4.19398 -16.78803,7.63204 -25.45637,10.7897 -8.66833,3.16986 -17.45891,6.03354 -26.54143,8.21724 -9.07099,2.18092 -18.36077,3.82821 -27.91911,4.85231 -9.55832,1.02413 -19.61649,1.26184 -29.40649,1.30453 -9.78994,0.0427 -35.46221,-5.87476 -38.74004,-3.7872 -3.26915,2.08203 14.55161,10.52923 19.12353,16.28373 5.20814,6.55529 14.22993,12.70288 17.69023,20.96982 3.46462,8.27728 2.75513,18.97035 3.06012,28.66279 0.3046,9.68024 -0.81685,19.61651 -1.21918,29.43086 -0.41451,9.80216 -1.01191,19.53118 -1.20697,29.43089 -0.20725,9.8997 -0.49987,20.16513 0,29.94292 0.48766,9.76559 1.54835,19.31174 2.97477,28.69937 1.43864,9.38764 3.42588,18.53145 5.60821,27.6143 2.18232,9.07066 4.44999,18.11693 7.47354,26.83405 3.03574,8.72928 6.72984,17.17816 10.71655,25.50513 3.98669,8.32696 8.47325,16.44666 13.22803,24.45662 4.74261,8.00999 9.60711,15.9712 15.25189,23.61543 5.63258,7.64422 11.88695,15.15434 18.56802,22.24993 6.69328,7.09561 14.13024,14.15462 21.5672,20.29926 7.43697,6.15685 15.19093,11.52121 23.06679,16.59297 7.87587,5.07176 15.91023,9.7534 24.20061,13.84981 8.2782,4.08425 16.78804,7.64424 25.50514,10.66779 8.72928,3.02354 17.81214,5.20586 26.85841,7.46134 9.03409,2.25549 17.93405,4.8889 27.40706,6.08369 9.48517,1.19479 19.70185,1.21918 29.47963,1.09726 9.77778,-0.12193 19.76282,-0.4511 29.17486,-1.82875 9.41203,-1.36548 18.50705,-3.48687 27.28514,-6.3885 8.77803,-2.90162 19.25074,-7.6564 25.3832,-11.00914 6.12026,-3.35272 13.69133,-9.44861 11.37489,-9.09503 -2.31643,0.35355 -16.51981,8.30256 -25.28568,11.2286 -8.76587,2.93822 -17.92187,4.93765 -27.30951,6.36407 -9.38765,1.41425 -19.43364,2.40179 -29.01636,2.19452 -9.58271,-0.21945 -19.25076,-1.69465 -28.47992,-3.49902 -9.22915,-1.80439 -18.21446,-4.23054 -26.89499,-7.33944 -8.69271,-3.12109 -17.06844,-6.99806 -25.22473,-11.37489 -8.16847,-4.37684 -16.15405,-9.18039 -23.76171,-14.91051 -7.60764,-5.73013 -15.14212,-12.50874 -21.88417,-19.45803 -6.72985,-6.94929 -12.94764,-14.58133 -18.53146,-22.24993 -5.58383,-7.66863 -10.50929,-15.60544 -14.97146,-23.73735 -4.44999,-8.13188 -8.11971,-16.59297 -11.74066,-25.06622 -3.62095,-8.47326 -7.04682,-17.04405 -9.99723,-25.79774 -2.9504,-8.75368 -5.6082,-17.62926 -7.71737,-26.73648 -2.09699,-9.10725 -3.27959,-18.59243 -4.90109,-27.90692 -1.62148,-9.31449 -3.53562,-18.49487 -4.79136,-27.95567 -1.26793,-9.44861 -1.76779,-19.22639 -2.77971,-28.78473 -1.02411,-9.5583 -2.37739,-18.97033 -3.32834,-28.55307 -0.96316,-9.5827 -0.7559,-19.64089 -2.38958,-28.9432 -1.63371,-9.3023 -3.46248,-18.53145 -7.41259,-26.87059 -3.95014,-8.33917 -13.49627,-17.33668 -16.32475,-23.15214 -2.82849,-5.81547 -5.37655,-9.36327 -0.65836,-11.71626 4.70601,-2.35301 19.37269,-1.38987 28.93102,-2.40177 9.55833,-1.02412 19.09229,-2.097 28.39457,-3.73069 9.30232,-1.62149 18.4461,-3.64532 27.43144,-6.0349 8.98532,-2.40179 17.82432,-5.14493 26.48047,-8.36355 8.64396,-3.20642 17.1294,-6.82738 25.40759,-10.92379 8.2782,-4.09644 16.4101,-8.55862 24.28597,-13.65477 7.86367,-5.08395 15.54447,-10.66777 22.94487,-16.86118 7.40039,-6.1934 15.23967,-13.04516 21.48185,-20.31146 6.24219,-7.27844 11.53339,-15.1909 15.99557,-23.3106 4.47437,-8.1319 8.30258,-16.51982 10.82626,-25.45637 2.53589,-8.93655 4.19397,-18.71433 4.34027,-28.15074 0.14631,-9.44861 -1.15822,-19.48242 -3.46245,-28.5043 -2.30423,-9.03409 -5.85205,-17.54392 -10.35079,-25.65145 -4.49876,-8.1197 -10.26547,-15.91022 -16.65392,-23.0302 -6.40067,-7.13218 -14.1912,-13.86202 -21.73789,-19.72626 -7.53451,-5.8642 -15.47134,-10.81407 -23.51789,-15.47132 -8.04654,-4.66943 -19.76281,-7.91244 -24.76144,-12.50873 -4.99861,-4.59628 -8.81462,-13.64255 -5.26684,-15.06899 3.56002,-1.42643 17.5927,4.42562 26.59022,6.52259 8.99749,2.10918 18.10474,4.47438 27.40704,6.09586 9.30229,1.63369 18.77529,2.86508 28.41896,3.68191 9.63147,0.81685 19.72624,1.53617 29.40649,1.23137 9.68025,-0.29259 19.37269,-1.41424 28.66278,-3.06012 9.30233,-1.64589 18.39737,-3.76726 27.11446,-6.80301 8.7171,-3.04792 17.22694,-6.58353 25.20034,-11.43585 7.97342,-4.84014 17.04404,-10.47272 22.64007,-17.65365 5.60816,-7.16875 11.76496,-17.50735 10.98476,-25.4076 -0.7802,-7.90025 -8.583,-17.09283 -15.66638,-21.99391 -7.08342,-4.91327 -17.50736,-6.01053 -26.85843,-7.42478 -9.36325,-1.41423 -19.76282,-1.67024 -29.30895,-1.07287 z m 8.31478,6.59574 c 0.79245,-0.0611 1.58491,-0.12191 2.37737,-0.18287 0.79247,-0.0488 1.59713,-0.0976 2.3896,-0.14631 0.79244,-0.0487 1.59711,-0.0853 2.38958,-0.10972 0.79245,-0.0366 1.5971,-0.0611 2.38957,-0.0732 0.79248,-0.0243 1.58494,-0.0243 2.3774,-0.0243 0.79246,0 1.58491,0 2.37738,0.0243 0.78028,0.0123 1.57275,0.0366 2.35301,0.0732 0.78028,0.0488 1.57275,0.0854 2.34083,0.14631 0.78025,0.0611 1.54834,0.1341 2.31643,0.20725 0.76807,0.0854 1.53616,0.18288 2.29203,0.28041 0.76809,0.10974 1.52397,0.23164 2.26767,0.36576 0.74369,0.1219 1.48739,0.26823 2.2311,0.42672 0.73151,0.17066 1.463,0.34136 2.1945,0.53643 0.73152,0.18288 1.45083,0.39013 2.17014,0.60959 0.73151,0.23164 1.43862,0.47547 2.15792,0.73149 0.71934,0.25604 1.43865,0.53644 2.15796,0.84125 0.7193,0.29258 1.42644,0.60956 2.14576,0.95095 0.71931,0.34137 1.4508,0.70711 2.17011,1.08507 0.70713,0.39012 1.43862,0.79246 2.14578,1.21917 0.70708,0.42671 1.42646,0.87779 2.10919,1.35328 0.68274,0.46329 1.36548,0.95096 2.02375,1.463 0.64621,0.51207 1.28013,1.0363 1.8898,1.58495 0.59742,0.5486 1.17024,1.12163 1.70687,1.70682 0.53633,0.58522 1.0484,1.1826 1.49951,1.8044 0.46332,0.62176 0.87782,1.25574 1.25572,1.91409 0.3657,0.64617 0.6829,1.31671 0.951,1.99945 0.2682,0.68274 0.4998,1.38986 0.6827,2.09698 0.1829,0.70712 0.3169,1.42644 0.4145,2.14575 0.097,0.7315 0.1464,1.4752 0.1708,2.2067 0.012,0.74371 -0.013,1.4996 -0.062,2.24328 -0.062,0.74369 -0.1584,1.49958 -0.2803,2.25548 -0.122,0.7559 -0.2804,1.51177 -0.4755,2.26765 -0.1829,0.74371 -0.4023,1.4996 -0.6583,2.24328 -0.2438,0.74372 -0.5244,1.48741 -0.8169,2.21891 -0.3048,0.7315 -0.6339,1.46301 -0.97536,2.17013 -0.35355,0.71931 -0.71932,1.42645 -1.10937,2.10918 -0.39024,0.69493 -0.80475,1.37766 -1.23148,2.03602 -0.42674,0.67054 -0.87775,1.3167 -1.34109,1.95066 -0.45107,0.6218 -0.92659,1.24358 -1.42635,1.84096 -0.4877,0.59742 -0.98758,1.1948 -1.51181,1.75561 -0.51204,0.57302 -1.04855,1.13383 -1.58496,1.68247 -0.54857,0.53644 -1.10944,1.07288 -1.6703,1.58493 -0.57297,0.52424 -1.15818,1.02411 -1.74337,1.52396 -0.58521,0.48767 -1.18261,0.97533 -1.79221,1.45082 -0.60957,0.4633 -1.23135,0.92659 -1.85312,1.37767 -0.63398,0.4511 -1.26795,0.89 -1.91412,1.31671 -0.63397,0.42671 -1.28013,0.84123 -1.93848,1.25575 -0.65835,0.41453 -1.31672,0.81685 -1.98727,1.20698 -0.65833,0.40234 -1.32889,0.78026 -2.01163,1.15821 -0.67055,0.37796 -1.35329,0.75589 -2.03602,1.12164 -0.68273,0.36574 -1.36548,0.71932 -2.04821,1.07289 -0.68274,0.35355 -1.37767,0.70711 -2.0604,1.0485 -0.69494,0.34134 -1.37767,0.67052 -2.0726,1.01191 -0.69494,0.32916 -1.38986,0.65833 -2.08477,0.97533 -0.69495,0.31698 -1.38988,0.63396 -2.08481,0.95096 -0.69492,0.30479 -1.38985,0.60959 -2.09699,0.91438 -0.69491,0.29259 -1.40203,0.58519 -2.09698,0.8778 -0.7071,0.2926 -1.41424,0.57301 -2.12136,0.85342 -0.70712,0.28042 -1.41423,0.54864 -2.12136,0.81685 -0.70712,0.26823 -1.41425,0.53644 -2.13357,0.79247 -0.7071,0.25601 -1.42642,0.51205 -2.14573,0.75588 -0.70711,0.24384 -1.42643,0.48768 -2.14574,0.71929 -0.71933,0.24386 -1.43865,0.47549 -2.17014,0.69495 -0.71931,0.23164 -1.45082,0.4511 -2.17013,0.67055 -0.73151,0.20725 -1.463,0.42672 -2.19452,0.62178 -0.7315,0.20726 -1.46301,0.41453 -2.1945,0.6096 -0.7315,0.19505 -1.47521,0.37795 -2.20673,0.56081 -0.74368,0.18287 -1.48738,0.36574 -2.23107,0.53644 -0.74369,0.18288 -1.48738,0.34136 -2.23107,0.51205 -0.7559,0.15849 -1.49961,0.31699 -2.25549,0.47547 -0.7437,0.1463 -1.49959,0.30481 -2.25548,0.4389 -0.75589,0.14632 -1.52398,0.28041 -2.27985,0.41452 -0.76809,0.13412 -1.52396,0.25604 -2.29205,0.39014 -0.76806,0.12192 -1.53617,0.23163 -2.30424,0.34137 -0.76809,0.12192 -1.54836,0.21945 -2.31645,0.32918 -0.78025,0.0976 -1.56053,0.19506 -2.3408,0.28041 -0.78028,0.0976 -1.56055,0.18287 -2.353,0.26823 -0.78028,0.0732 -1.57275,0.15848 -2.36522,0.23163 -0.78025,0.0611 -1.57273,0.13411 -2.37737,0.19508 -0.79247,0.0611 -1.58494,0.12189 -2.3774,0.17067 -0.80465,0.0488 -1.59712,0.0976 -2.40177,0.13411 -0.80466,0.0488 -1.59712,0.0853 -2.40177,0.10972 -0.80465,0.0366 -1.60932,0.0611 -2.41397,0.0853 -0.80465,0.0243 -1.60931,0.0366 -2.41397,0.0611 -0.81685,0.0123 -1.6215,0.0123 -2.42615,0.0243 h -2.42616 c -0.80465,-0.0122 -1.60932,-0.0243 -2.42617,-0.0366 -0.80465,-0.0122 -1.60931,-0.0366 -2.42613,-0.0611 -0.80466,-0.0123 -1.60931,-0.0487 -2.41399,-0.0732 -0.80465,-0.0366 -1.62149,-0.0732 -2.42615,-0.10972 -0.80466,-0.0488 -1.60931,-0.0854 -2.41397,-0.14631 -0.80465,-0.0487 -1.60931,-0.0976 -2.40176,-0.15848 -0.80465,-0.0611 -1.60933,-0.12193 -2.40179,-0.18288 -0.80465,-0.0732 -1.5971,-0.1463 -2.38958,-0.21947 -0.80465,-0.0732 -1.59711,-0.14629 -2.38957,-0.23164 -0.79247,-0.0853 -1.57273,-0.17067 -2.3652,-0.26821 -0.79246,-0.0853 -1.57274,-0.18288 -2.35301,-0.2804 -0.79246,-0.0976 -1.57274,-0.20727 -2.34081,-0.31699 -0.78027,-0.0976 -1.56055,-0.21945 -2.32863,-0.32917 -0.76809,-0.12194 -1.54835,-0.23166 -2.31643,-0.35358 -0.75588,-0.1219 -1.52398,-0.25601 -2.29205,-0.37795 -0.75591,-0.1341 -1.52398,-0.26821 -2.27986,-0.40231 -0.7559,-0.13413 -1.51179,-0.28043 -2.26768,-0.41452 -0.75586,-0.14632 -1.51175,-0.29262 -2.25544,-0.43891 -0.7559,-0.1463 -1.4996,-0.30478 -2.25549,-0.4511 -0.7437,-0.1585 -1.48738,-0.31698 -2.23109,-0.47547 -0.75588,-0.15849 -1.49959,-0.31698 -2.24328,-0.48768 -0.74371,-0.15848 -1.48739,-0.32918 -2.23109,-0.48768 -0.7315,-0.17066 -1.4752,-0.34135 -2.21889,-0.51202 -0.74371,-0.1707 -1.4874,-0.35358 -2.21892,-0.52425 -0.74369,-0.17069 -1.48738,-0.35358 -2.23107,-0.52424 -0.73152,-0.18289 -1.47519,-0.36578 -2.21891,-0.54865 -0.74368,-0.17067 -1.4752,-0.35356 -2.21889,-0.53643 -0.7437,-0.18288 -1.4874,-0.37794 -2.23109,-0.56082 -0.74369,-0.18288 -1.48739,-0.36575 -2.2311,-0.54864 -0.74368,-0.19506 -1.48739,-0.37793 -2.23108,-0.5608 -0.7437,-0.19508 -1.49958,-0.37796 -2.24329,-0.57301 -0.75589,-0.18288 -1.49957,-0.37796 -2.25548,-0.56084 -0.75588,-0.19505 -1.49957,-0.37794 -2.25545,-0.57301 -0.75589,-0.18286 -1.52397,-0.37793 -2.27986,-0.56082 -0.75589,-0.18287 -1.52398,-0.37793 -2.27986,-0.56081 -0.76809,-0.18288 -1.53616,-0.37795 -2.30424,-0.56083 -0.76808,-0.18287 -1.53617,-0.36576 -2.31644,-0.56081 -0.76806,-0.18288 -1.54835,-0.36575 -2.30425,-0.56081 -0.75588,-0.19508 -1.52395,-0.40234 -2.23106,-0.634 -0.71931,-0.23163 -1.43863,-0.47547 -2.07261,-0.75587 -0.64617,-0.28042 -1.31671,-0.59741 -1.79218,-0.95097 -0.46329,-0.34136 -0.87781,-0.73149 -1.0241,-1.14602 -0.14631,-0.42669 -0.0244,-0.88999 0.13409,-1.35328 0.1707,-0.4511 0.49986,-0.92658 0.82905,-1.37766 0.34137,-0.46329 0.75588,-0.91437 1.19479,-1.36549 0.45109,-0.45108 0.96315,-0.90218 1.51177,-1.34108 0.53646,-0.43891 1.13383,-0.8778 1.74342,-1.3167 0.6096,-0.43892 1.25575,-0.86563 1.91411,-1.29235 0.67054,-0.43888 1.35327,-0.8656 2.04822,-1.28013 0.69491,-0.4267 1.40204,-0.84122 2.09698,-1.25575 0.69492,-0.41452 1.40205,-0.82903 2.09697,-1.24356 0.69493,-0.4145 1.38986,-0.81684 2.0726,-1.21917 0.69492,-0.40233 1.37766,-0.80465 2.0604,-1.20698 0.68274,-0.40233 1.36547,-0.79246 2.04823,-1.19479 0.67053,-0.39013 1.35326,-0.78028 2.02382,-1.17039 0.67054,-0.39015 1.35328,-0.78029 2.02382,-1.17041 0.67055,-0.37795 1.32891,-0.75589 1.99945,-1.14605 0.67055,-0.37794 1.32889,-0.75587 1.99946,-1.13382 0.65834,-0.37794 1.32889,-0.74368 1.98724,-1.12164 0.67054,-0.36575 1.32891,-0.74371 1.98725,-1.10946 0.65837,-0.36574 1.3289,-0.73148 1.98728,-1.09724 0.65834,-0.36576 1.31668,-0.7315 1.97506,-1.09725 0.67052,-0.36575 1.3289,-0.71932 1.98723,-1.08509 0.65837,-0.35356 1.32891,-0.71929 1.98727,-1.07287 0.67054,-0.35355 1.3289,-0.7071 1.99944,-1.06068 0.65836,-0.35355 1.32892,-0.70713 1.98725,-1.06068 0.67055,-0.35355 1.34109,-0.70712 2.01165,-1.04848 0.65833,-0.35356 1.32889,-0.69493 1.99944,-1.03631 0.67056,-0.35356 1.34108,-0.69492 2.01164,-1.03631 0.68274,-0.34134 1.35329,-0.68273 2.02383,-1.02409 0.67055,-0.32916 1.35328,-0.67055 2.02382,-1.01192 0.67056,-0.32917 1.35329,-0.65835 2.02384,-0.99973 0.68274,-0.32918 1.36547,-0.65834 2.03602,-0.98751 0.68273,-0.32917 1.36547,-0.64617 2.04823,-0.97534 0.68272,-0.3292 1.36546,-0.64616 2.04819,-0.96316 0.68274,-0.32916 1.36549,-0.64615 2.04822,-0.96314 0.69492,-0.31699 1.37766,-0.62177 2.06039,-0.93877 0.69494,-0.3048 1.37769,-0.62179 2.07261,-0.92657 0.68273,-0.30478 1.37768,-0.60958 2.07259,-0.91438 0.69495,-0.3048 1.37769,-0.6096 2.0726,-0.90219 0.69492,-0.30478 1.38987,-0.59739 2.08479,-0.89 0.70713,-0.29261 1.40205,-0.58521 2.09699,-0.87781 0.69491,-0.28041 1.40205,-0.57301 2.09698,-0.85341 0.70711,-0.28041 1.41424,-0.57301 2.10917,-0.84123 0.70712,-0.28041 1.41424,-0.56082 2.12135,-0.82906 0.70713,-0.28041 1.41425,-0.54861 2.12139,-0.81685 0.7071,-0.26821 1.41422,-0.53642 2.12134,-0.79245 0.71931,-0.26821 1.42645,-0.52424 2.14577,-0.78027 0.70711,-0.25603 1.42641,-0.51206 2.13353,-0.76808 0.71932,-0.24384 1.43863,-0.49986 2.15795,-0.7437 0.71933,-0.24381 1.43864,-0.48767 2.15794,-0.71931 0.71932,-0.24383 1.43863,-0.47547 2.17013,-0.71931 0.71931,-0.23165 1.45082,-0.46329 2.17012,-0.68275 0.73151,-0.23164 1.46303,-0.45107 2.18234,-0.67054 0.7315,-0.21945 1.46301,-0.43891 2.19449,-0.65835 0.73151,-0.20727 1.46304,-0.4267 2.20672,-0.63397 0.7315,-0.20726 1.46301,-0.40233 2.2067,-0.60959 0.73153,-0.19505 1.4752,-0.39014 2.21891,-0.58521 0.74368,-0.19507 1.47519,-0.39013 2.21889,-0.573 0.74371,-0.18289 1.4996,-0.36575 2.24329,-0.54862 0.74371,-0.18289 1.48739,-0.35359 2.24328,-0.52425 0.74369,-0.18289 1.49958,-0.34137 2.25547,-0.51206 0.7437,-0.1585 1.49959,-0.32918 2.25546,-0.47547 0.7559,-0.1585 1.51179,-0.31698 2.27988,-0.46329 0.75589,-0.14631 1.51175,-0.29262 2.27985,-0.43892 0.75588,-0.14629 1.52396,-0.28041 2.29204,-0.4145 0.7559,-0.13411 1.52397,-0.26823 2.29205,-0.39014 0.76807,-0.12193 1.53616,-0.24384 2.31643,-0.36575 0.76808,-0.10971 1.53615,-0.23166 2.31644,-0.34138 0.78028,-0.10974 1.54835,-0.20726 2.32861,-0.31699 0.78029,-0.0976 1.56055,-0.19505 2.34081,-0.28041 0.78028,-0.0976 1.56056,-0.18286 2.35302,-0.26821 0.78027,-0.0854 1.57274,-0.15849 2.35301,-0.23164 0.79247,-0.0732 1.58493,-0.1463 2.37739,-0.21946 z" fill="#FFFFFF" fill-rule="evenodd"/></svg>